<?xml version="1.0" standalone="no"?>
<!DOCTYPE svg PUBLIC "-//W3C//DTD SVG 1.1//EN" "http://www.w3.org/Graphics/SVG/1.1/DTD/svg11.dtd" >
<svg xmlns="http://www.w3.org/2000/svg" width="100%" height="100%">
<metadata>
Created by FontForge 20090622 at Sat Apr 20 23:05:00 2013
 By fontface
Copyright 1990 as an unpublished work by Bitstream Inc.  All rights reserved.  Confidential.
</metadata>
<defs>
<font id="FuturaBT-Medium" horiz-adv-x="500" >
  <font-face 
    font-family="FuturaBT-Medium"
    font-weight="5"
    font-stretch="normal"
    units-per-em="1000"
    panose-1="0 0 0 0 0 0 0 0 0 0"
    ascent="800"
    descent="-200"
    x-height="463"
    cap-height="715"
    bbox="-167 -236 1141 963"
    underline-thickness="71"
    underline-position="-74"
    unicode-range="U+0020-U+F002"
  />
<missing-glyph horiz-adv-x="777" 
d="M48 0v777h681v-777h-681zM681 48v681h-585v-681h585z" />
    <glyph glyph-name=".notdef" horiz-adv-x="777" 
d="M48 0v777h681v-777h-681zM681 48v681h-585v-681h585z" />
    <glyph glyph-name="glyph1" horiz-adv-x="0" 
 />
    <glyph glyph-name="glyph2" horiz-adv-x="302" 
 />
    <glyph glyph-name="space" unicode=" " horiz-adv-x="302" 
 />
    <glyph glyph-name="exclam" unicode="!" horiz-adv-x="329" 
d="M164 109q27 0 45.5 -18.5t18.5 -45.5t-18.5 -45.5t-45.5 -18.5q-26 0 -45 19t-19 45t19 45t45 19zM220 731v-567h-111v567h111z" />
    <glyph glyph-name="quotedbl" unicode="&#x22;" horiz-adv-x="314" 
d="M122 701v-272h-80v272h80zM273 701v-272h-80v272h80z" />
    <glyph glyph-name="numbersign" unicode="#" horiz-adv-x="769" 
d="M452 713l-75 -213h122l76 213h93l-75 -213h142l-29 -84h-143l-44 -123h151l-30 -84h-150l-76 -212h-93l76 212h-123l-77 -212h-93l76 212h-146l30 84h145l44 123h-154l30 84h154l76 213h93zM302 292h125l44 124h-125z" />
    <glyph glyph-name="dollar" unicode="$" horiz-adv-x="604" 
d="M410 203q0 61 -82 101v-199q82 21 82 98zM209 538q0 -31 15.5 -53t52.5 -41v175q-68 -20 -68 -81zM159 196q24 -84 118 -94v223q-99 41 -145 89t-46 117q0 77 50.5 127.5t140.5 61.5v55h51v-56q141 -12 179 -113l-90 -45q-32 51 -89 61v-196q111 -52 156.5 -97.5
t45.5 -118.5q0 -88 -52.5 -142.5t-149.5 -66.5v-83h-51v81q-86 0 -139 41.5t-71 114.5z" />
    <glyph glyph-name="percent" unicode="%" horiz-adv-x="792" 
d="M155 -19l417 741h67l-417 -741h-67zM259 534q0 63 -18 97t-52 34q-73 0 -73 -132q0 -130 71 -130q72 0 72 131zM188 722q76 0 117.5 -48.5t41.5 -139.5q0 -89 -41.5 -138.5t-117.5 -49.5q-75 0 -117.5 49.5t-42.5 138.5q0 90 42 139t118 49zM606 358q76 0 117.5 -48.5
t41.5 -139.5q0 -89 -42 -139t-118 -50q-75 0 -117 50t-42 139q0 90 42 139t118 49zM677 170q0 130 -71 130q-73 0 -73 -131q0 -130 71 -130q73 0 73 131z" />
    <glyph glyph-name="ampersand" unicode="&#x26;" horiz-adv-x="671" 
d="M473 68q-98 -85 -221 -85q-99 0 -160.5 57.5t-61.5 146.5q0 117 159 216l-29 31q-49 54 -49 119q0 70 50.5 115.5t133.5 45.5t129 -41t46 -110q0 -54 -33.5 -96.5t-105.5 -84.5l149 -173q42 42 92 112l68 -73q-20 -31 -43.5 -59t-51.5 -53l120 -136h-134zM251 324
l-18 -12q-47 -30 -69.5 -58t-22.5 -64q0 -47 33 -80t83 -33q73 0 150 67zM305 471q55 33 55 85q0 30 -18.5 49.5t-48.5 19.5q-33 0 -53 -19t-20 -51q0 -30 23 -56l36 -43z" />
    <glyph glyph-name="quotesingle" unicode="'" horiz-adv-x="163" 
d="M122 701v-272h-80v272h80z" />
    <glyph glyph-name="parenleft" unicode="(" horiz-adv-x="303" 
d="M82 263q0 140 28 259t88 226l80 -24q-52 -103 -77.5 -217.5t-25.5 -242.5q0 -134 24.5 -245.5t78.5 -210.5l-80 -26q-116 215 -116 481z" />
    <glyph glyph-name="parenright" unicode=")" horiz-adv-x="303" 
d="M22 -192q54 99 78.5 209t24.5 247q0 131 -24.5 242t-78.5 218l79 24q58 -103 87 -225.5t29 -259.5q0 -266 -116 -481z" />
    <glyph glyph-name="asterisk" unicode="*" horiz-adv-x="440" 
d="M52 483l110 56l-110 65l35 60l103 -66l-6 117h71l-7 -118l105 67l35 -60l-113 -62l113 -59l-37 -59l-103 68l7 -120h-71l5 119l-102 -67z" />
    <glyph glyph-name="plus" unicode="+" horiz-adv-x="833" 
d="M458 596v-257h251v-81h-251v-258h-83v258h-251v81h251v257h83z" />
    <glyph glyph-name="comma" unicode="," horiz-adv-x="302" 
d="M246 86l-127 -262l-63 25l95 272z" />
    <glyph glyph-name="hyphen" unicode="-" horiz-adv-x="405" 
d="M333 279v-98h-261v98h261z" />
    <glyph glyph-name="period" unicode="." horiz-adv-x="302" 
d="M151 119q26 0 45 -19t19 -46t-18 -45t-46 -18q-27 0 -45.5 18.5t-18.5 44.5q0 27 18 46t46 19z" />
    <glyph glyph-name="slash" unicode="/" horiz-adv-x="433" 
d="M433 731l-350 -824h-83l350 824h83z" />
    <glyph glyph-name="zero" unicode="0" horiz-adv-x="604" 
d="M443 353q0 133 -35.5 201.5t-103.5 68.5q-143 0 -143 -272q0 -132 36 -201t103 -69q143 0 143 272zM302 -19q-120 0 -188.5 97t-68.5 274q0 175 69 272.5t189 97.5q123 0 189.5 -96.5t66.5 -281.5q0 -172 -68.5 -267.5t-188.5 -95.5z" />
    <glyph glyph-name="one" unicode="1" horiz-adv-x="604" 
d="M264 616h-148l45 92h209v-708h-106v616z" />
    <glyph glyph-name="two" unicode="2" horiz-adv-x="604" 
d="M500 0h-479l267 320q49 59 72.5 104t23.5 84q0 53 -31.5 83.5t-86.5 30.5q-49 0 -82.5 -30.5t-33.5 -80.5h-112q0 96 64.5 153.5t173.5 57.5q103 0 163 -53t60 -145q0 -77 -42 -146.5t-138 -179.5l-91 -105h272v-93z" />
    <glyph glyph-name="three" unicode="3" horiz-adv-x="604" 
d="M157 191v-6q0 -49 33.5 -78.5t91.5 -29.5q66 0 101 32t35 94q0 129 -145 129l-22 -1v94l21 -1q128 0 128 105q0 46 -29 73t-78 27q-53 0 -83 -25t-30 -71h-105q0 90 58.5 139.5t162.5 49.5q99 0 156 -51t57 -139q0 -66 -32 -108t-91 -51q68 -12 103.5 -59.5t35.5 -125.5
q0 -94 -65.5 -150.5t-181.5 -56.5q-104 0 -168 57t-64 153h111z" />
    <glyph glyph-name="four" unicode="4" horiz-adv-x="604" 
d="M356 145h-343l416 577h33v-496h87v-81h-87v-145h-106v145zM177 226h179v186q0 4 1.5 31t1.5 40z" />
    <glyph glyph-name="five" unicode="5" horiz-adv-x="604" 
d="M266 76q71 0 115 45t44 119q0 70 -46 115t-121 45q-92 0 -151 -61l-29 6l89 363h338v-94h-268l-42 -158q57 24 111 24q103 0 166.5 -65.5t63.5 -170.5q0 -120 -73.5 -191.5t-201.5 -71.5q-146 0 -223 105l77 85q52 -95 151 -95z" />
    <glyph glyph-name="six" unicode="6" horiz-adv-x="604" 
d="M324 457q95 0 157.5 -64.5t62.5 -166.5q0 -111 -69 -178t-184 -67q-107 0 -171.5 65.5t-64.5 173.5q0 57 20.5 110t50 99t98.5 143l125 177l89 -45l-207 -270q48 23 93 23zM294 77q65 0 101 38t36 104q0 68 -35.5 105.5t-100.5 37.5q-58 0 -93.5 -39.5t-35.5 -103.5
q0 -65 35.5 -103.5t92.5 -38.5z" />
    <glyph glyph-name="seven" unicode="7" horiz-adv-x="604" 
d="M404 616h-331v92h493l-360 -735l-94 42z" />
    <glyph glyph-name="eight" unicode="8" horiz-adv-x="604" 
d="M435 200q0 59 -35 92t-99 33q-63 0 -98 -33t-35 -92q0 -58 35 -91t98 -33q64 0 99 33t35 91zM194 529q0 -44 28 -70t79 -26t79.5 25.5t28.5 70.5q0 46 -28.5 72.5t-77.5 26.5q-50 0 -79.5 -26.5t-29.5 -72.5zM80 531q0 85 60 138t161 53q103 0 162.5 -53.5t59.5 -142.5
q0 -108 -103 -148q59 -19 93 -68.5t34 -117.5q0 -98 -64.5 -154.5t-181.5 -56.5q-116 0 -180.5 56.5t-64.5 152.5q0 70 33 119.5t94 68.5q-103 44 -103 153z" />
    <glyph glyph-name="nine" unicode="9" horiz-adv-x="604" 
d="M271 247q-96 0 -158 64t-62 166q0 111 69 178t184 67q107 0 172 -65t65 -173q0 -57 -20.5 -110t-50 -99t-98.5 -143l-126 -177l-88 45l206 269q-21 -10 -46 -16t-47 -6zM302 627q-64 0 -101 -38t-37 -104q0 -67 35.5 -105.5t100.5 -38.5q57 0 93 40t36 104q0 66 -35 104
t-92 38z" />
    <glyph glyph-name="colon" unicode=":" horiz-adv-x="329" 
d="M164 118q27 0 45.5 -18.5t18.5 -45.5t-18 -45t-46 -18q-27 0 -45.5 18.5t-18.5 44.5t19 45t45 19zM164 451q26 0 45 -18t19 -45t-18.5 -45.5t-45.5 -18.5q-26 0 -45 19t-19 45t18.5 44.5t45.5 18.5z" />
    <glyph glyph-name="semicolon" unicode=";" horiz-adv-x="329" 
d="M249 86l-127 -262l-64 25l96 272zM206 451q26 0 45 -18t19 -45t-18.5 -45.5t-45.5 -18.5t-45 19t-18 45q0 27 18 45t45 18z" />
    <glyph glyph-name="less" unicode="&#x3c;" horiz-adv-x="833" 
d="M704 484l-456 -186l456 -186v-89l-575 236v78l575 237v-90z" />
    <glyph glyph-name="equal" unicode="=" horiz-adv-x="833" 
d="M709 440v-82h-585v82h585zM709 238v-81h-585v81h585z" />
    <glyph glyph-name="greater" unicode="&#x3e;" horiz-adv-x="833" 
d="M704 337v-78l-575 -236v89l456 186l-456 186v90z" />
    <glyph glyph-name="question" unicode="?" horiz-adv-x="544" 
d="M258 109q27 0 45.5 -18.5t18.5 -45.5t-18.5 -45.5t-45.5 -18.5q-26 0 -45 19t-19 45t19 45t45 19zM102 545l-1 18q0 77 47 123t124 46q80 0 127 -46t47 -122q0 -62 -31 -97t-93 -65t-91.5 -48t-29.5 -54q0 -25 19 -43t46 -18q69 0 69 76h87v-10q0 -72 -40.5 -111.5
t-115.5 -39.5q-70 0 -114.5 40.5t-44.5 103.5q0 64 35 101t97.5 66.5t88.5 47t26 55.5q0 33 -23 54t-59 21q-40 0 -63 -25.5t-23 -72.5h-84z" />
    <glyph glyph-name="at" unicode="@" horiz-adv-x="1000" 
d="M512 431q-62 0 -106 -62t-44 -152q0 -100 85 -100q43 0 79 32t49 85l27 111q-14 86 -90 86zM425 56q-75 0 -114 42t-39 122q0 115 68 193.5t162 78.5q84 0 121 -69l27 52h75l-72 -286l-4 -24q0 -19 13 -30t34 -11q53 0 114.5 66.5t61.5 181.5q0 123 -90.5 200.5
t-239.5 77.5q-135 0 -226.5 -58t-139.5 -145t-48 -193q0 -153 102 -244t273 -91q81 0 158 23.5t142 69.5l33 -48q-147 -111 -329 -111q-189 0 -324 103.5t-135 298.5q0 163 85.5 267.5t187 150.5t224.5 46q83 0 154.5 -22t162 -91.5t90.5 -232.5q0 -81 -31 -147.5
t-95.5 -118.5t-150.5 -52q-102 0 -102 81q-52 -80 -148 -80z" />
    <glyph glyph-name="A" unicode="A" horiz-adv-x="662" 
d="M473 184h-283l-83 -184h-122l346 743l346 -743h-123zM432 281l-73 163q-6 14 -13.5 38l-13.5 43q-5 -19 -11.5 -41t-14.5 -40l-73 -163h199z" />
    <glyph glyph-name="B" unicode="B" horiz-adv-x="576" 
d="M82 715h180q70 0 108 -6.5t70 -30t50.5 -63.5t18.5 -87q0 -118 -103 -149q62 -10 98 -57t36 -119q0 -91 -46.5 -137.5t-94.5 -56t-136 -9.5h-181v715zM236 97q60 0 89 3.5t62 26.5t33 83q0 70 -36 89t-59.5 22.5t-53.5 3.5h-35h-40v-228h40zM240 413q81 0 116.5 22
t35.5 77q0 63 -35 84.5t-117 21.5h-44v-205h44z" />
    <glyph glyph-name="C" unicode="C" horiz-adv-x="718" 
d="M436 625q-118 0 -191 -75t-73 -195q0 -117 71.5 -191.5t180.5 -74.5q126 0 231 90v-131q-94 -67 -222 -67q-166 0 -274 106t-108 269q0 79 28 147.5t109 148.5t243 80q125 0 231 -74l-6 -117q-99 84 -220 84z" />
    <glyph glyph-name="D" unicode="D" horiz-adv-x="740" 
d="M82 715h157q160 0 218 -15t145 -82t87 -261q0 -95 -32 -168.5t-90.5 -119t-125.5 -57.5t-171 -12h-31h-157v715zM240 105h56q71 0 113 8.5t100.5 58t58.5 186.5t-58.5 186.5t-104 58t-123.5 8.5h-42h-42v-506h42z" />
    <glyph glyph-name="E" unicode="E" horiz-adv-x="532" 
d="M82 715h399v-99h-283v-179h283v-102h-283v-231h283v-104h-399v715z" />
    <glyph glyph-name="F" unicode="F" horiz-adv-x="525" 
d="M82 715h399v-99h-283v-178h283v-102h-283v-336h-116v715z" />
    <glyph glyph-name="G" unicode="G" horiz-adv-x="803" 
d="M761 366l2 -67q0 -152 -87 -235t-243 -83q-174 0 -278 105.5t-104 269.5t108.5 269.5t273.5 105.5q167 0 270 -125l-85 -64q-71 83 -183 83q-116 0 -189.5 -73.5t-73.5 -194.5t73.5 -196.5t190.5 -75.5q101 0 157.5 46t56.5 127v10h-172v98h283z" />
    <glyph glyph-name="H" unicode="H" horiz-adv-x="748" 
d="M82 715h116v-264h352v264h116v-715h-116v347h-352v-347h-116v715z" />
    <glyph glyph-name="I" unicode="I" horiz-adv-x="285" 
d="M84 715h116v-715h-116v715z" />
    <glyph glyph-name="J" unicode="J" horiz-adv-x="394" 
d="M146 89q37 0 49.5 25t12.5 81v520h115v-558q0 -90 -39.5 -133t-125.5 -43q-91 0 -156 74l74 75q35 -41 70 -41z" />
    <glyph glyph-name="K" unicode="K" horiz-adv-x="620" 
d="M82 715h116v-296l257 296h142l-283 -318l317 -397h-150l-283 365v-365h-116v715z" />
    <glyph glyph-name="L" unicode="L" horiz-adv-x="470" 
d="M82 715h116v-611h260v-104h-376v715z" />
    <glyph glyph-name="M" unicode="M" horiz-adv-x="863" 
d="M652 451q-9 -49 -33 -99l-187 -381l-187 389q-23 47 -35 91q0 -22 -3.5 -47t-9.5 -52l-77 -352h-107l169 743l211 -449l39 -97q11 31 21 53l20 44l206 449l173 -743h-108l-79 353q-2 7 -7 47.5t-6 50.5z" />
    <glyph glyph-name="N" unicode="N" horiz-adv-x="803" 
d="M82 743l454 -437q26 -25 38.5 -39.5l39.5 -47.5v496h107v-743l-463 445q-38 36 -69 80v-497h-107v743z" />
    <glyph glyph-name="O" unicode="O" horiz-adv-x="866" 
d="M703 91q-113 -110 -270 -110q-78 0 -147 28t-124 81.5t-83 121t-28 144.5q0 157 111.5 266t270.5 109q158 0 270 -109.5t112 -265.5t-112 -265zM617 546q-75 78 -184 78t-166 -58t-76 -106.5t-19 -103.5q0 -111 76 -189t185 -78q108 0 184.5 78.5t76.5 188.5
q0 111 -77 190z" />
    <glyph glyph-name="P" unicode="P" horiz-adv-x="532" 
d="M191 0h-109v715h153h23q68 0 107 -6.5t91.5 -44.5t52.5 -146q0 -52 -19 -94t-52.5 -66t-72.5 -30.5t-107 -6.5h-23h-44v-321zM228 416q89 0 125 18t36 77q0 61 -37.5 82.5t-123.5 21.5h-30v-199h30z" />
    <glyph glyph-name="Q" unicode="Q" horiz-adv-x="866" 
d="M859 -67h-139l-93 101q-95 -51 -200 -51q-73 0 -142.5 28t-123.5 81t-82 120.5t-28 144.5q0 157 111 265.5t271 108.5q77 0 146.5 -28t152.5 -109t83 -237q0 -152 -108 -260zM631 182q63 78 63 175q0 111 -76.5 189.5t-184.5 78.5t-184.5 -78.5t-76.5 -189.5t75.5 -188.5
t188.5 -77.5q59 0 113 27l-128 138h141z" />
    <glyph glyph-name="R" unicode="R" horiz-adv-x="560" 
d="M191 0h-109v715h162q65 0 106 -8t73 -33t50 -65t18 -91q0 -173 -164 -193l246 -325h-131l-238 320h-13v-320zM219 410q85 0 119 18t34 80q0 63 -35 85t-118 22h-21v-205h21z" />
    <glyph glyph-name="S" unicode="S" horiz-adv-x="549" 
d="M134 186q26 -98 138 -98q52 0 82.5 28.5t30.5 77.5q0 54 -31 72.5t-116 60t-131 87t-46 121.5q0 87 58.5 141.5t156.5 54.5q164 0 206 -118l-91 -47q-41 65 -106 65q-48 0 -75 -24t-27 -66q0 -46 30 -69t118 -63.5t130.5 -86t42.5 -120.5q0 -100 -63.5 -160.5
t-173.5 -60.5q-91 0 -149.5 42t-76.5 120z" />
    <glyph glyph-name="T" unicode="T" horiz-adv-x="509" 
d="M313 0h-116v616h-190v99h495v-99h-189v-616z" />
    <glyph glyph-name="U" unicode="U" horiz-adv-x="744" 
d="M194 715v-434q0 -194 178 -194t178 194v434h116v-445q0 -289 -294 -289q-293 0 -293 289v445h115z" />
    <glyph glyph-name="V" unicode="V" horiz-adv-x="618" 
d="M-10 715h121l160 -381q11 -26 21.5 -57t16.5 -58q13 54 39 115l160 381h120l-319 -743z" />
    <glyph glyph-name="W" unicode="W" horiz-adv-x="939" 
d="M112 715l135 -361q11 -29 20 -56t18 -57l24.5 76.5l14.5 43.5l144 382l151 -389q21 -56 38 -114q4 19 15 52l20 59l134 364h116l-277 -743l-163 408q-22 54 -35 100q-16 -57 -34 -102l-160 -406l-276 743h115z" />
    <glyph glyph-name="X" unicode="X" horiz-adv-x="572" 
d="M232 374l-205 341h122l103 -175q2 -4 14.5 -27.5l23.5 -43.5l39 70l109 176h119l-209 -339l225 -376h-128l-120 203l-38 72q-16 -34 -39 -71l-125 -204h-123z" />
    <glyph glyph-name="Y" unicode="Y" horiz-adv-x="593" 
d="M236 327l-241 388h122l150 -243l30 -57q14 35 30 60l154 240h116l-246 -388v-327h-115v327z" />
    <glyph glyph-name="Z" unicode="Z" horiz-adv-x="576" 
d="M373 616h-303v99h482l-361 -611h365v-104h-547z" />
    <glyph glyph-name="bracketleft" unicode="[" horiz-adv-x="303" 
d="M283 -125v-77h-186v933h186v-76h-93v-780h93z" />
    <glyph glyph-name="backslash" unicode="\" horiz-adv-x="433" 
d="M0 731h83l350 -824h-83z" />
    <glyph glyph-name="bracketright" unicode="]" horiz-adv-x="303" 
d="M113 655h-92v76h185v-933h-185v77h92v780z" />
    <glyph glyph-name="asciicircum" unicode="^" horiz-adv-x="1000" 
d="M553 713l242 -274h-101l-194 194l-195 -194h-101l243 274h106z" />
    <glyph glyph-name="underscore" unicode="_" 
d="M500 -152v-84h-500v84h500z" />
    <glyph glyph-name="grave" unicode="`" 
d="M259 533l-143 133h110l93 -133h-60z" />
    <glyph glyph-name="a" unicode="a" horiz-adv-x="582" 
d="M279 385q-60 0 -94.5 -41.5t-34.5 -114.5q0 -74 33 -114t94 -40q56 0 92.5 42.5t36.5 115.5q0 72 -34 112t-93 40zM403 0v60q-57 -79 -153 -79q-98 0 -154.5 66.5t-56.5 184.5q0 111 58 179t150 68q117 0 156 -92v76h106v-463h-106z" />
    <glyph glyph-name="b" unicode="b" horiz-adv-x="582" 
d="M179 387q39 92 157 92q92 0 149.5 -68t57.5 -179q0 -118 -56.5 -184.5t-154.5 -66.5q-96 0 -153 79v-60h-106v757h106v-370zM306 75q60 0 93 40t33 114t-34 115t-95 41q-60 0 -93.5 -39.5t-33.5 -112.5q0 -72 36.5 -115t93.5 -43z" />
    <glyph glyph-name="c" unicode="c" horiz-adv-x="454" 
d="M292 386q-66 0 -104.5 -41.5t-38.5 -111.5q0 -73 39 -114t109 -41q76 0 122 58v-122q-59 -33 -134 -33q-109 0 -177.5 69.5t-68.5 179.5q0 111 71 180t186 69q71 0 123 -29v-119q-50 55 -127 55z" />
    <glyph glyph-name="d" unicode="d" horiz-adv-x="582" 
d="M509 757v-757h-106v60q-57 -79 -153 -79q-98 0 -154.5 66.5t-56.5 184.5q0 111 58 179t150 68q117 0 156 -92v370h106zM279 385q-60 0 -94.5 -41.5t-34.5 -114.5q0 -74 33 -114t94 -40q56 0 92.5 43t36.5 115t-34 112t-93 40z" />
    <glyph glyph-name="e" unicode="e" horiz-adv-x="556" 
d="M284 389q-103 0 -128 -102h253q-12 102 -125 102zM149 216q0 -65 35.5 -101.5t95.5 -36.5q51 0 85 21t60 70l89 -50q-77 -138 -232 -138q-111 0 -177 68t-66 181q0 108 67.5 178.5t175.5 70.5q112 0 174.5 -63.5t62.5 -179.5v-20h-370z" />
    <glyph glyph-name="f" unicode="f" horiz-adv-x="306" 
d="M88 370h-81v93h81v124q0 180 157 180q35 0 72 -10v-96q-26 15 -52 15q-39 0 -55 -24t-16 -79v-110h111v-93h-111v-370h-106v370z" />
    <glyph glyph-name="g" unicode="g" horiz-adv-x="582" 
d="M272 -218q-98 0 -154.5 40.5t-56.5 107.5h114q0 -29 26 -45t73 -16q70 0 99 31t29 99l1 61q-57 -79 -153 -79q-98 0 -154.5 66.5t-56.5 184.5q0 111 58 179t150 68q117 0 156 -92v76h106v-434q0 -132 -52.5 -189.5t-184.5 -57.5zM279 385q-60 0 -94.5 -41.5t-34.5 -114.5
q0 -74 33 -114t94 -40q56 0 92.5 42.5t36.5 115.5q0 72 -34 112t-93 40z" />
    <glyph glyph-name="h" unicode="h" horiz-adv-x="588" 
d="M73 757h100v-370q61 92 179 92q104 0 132.5 -44.5t32 -73t3.5 -80.5v-281h-107v238q0 84 -19 117.5t-82 33.5q-77 0 -101 -35t-28 -66t-4 -77v-211h-106v757z" />
    <glyph glyph-name="i" unicode="i" horiz-adv-x="262" 
d="M78 463h106v-463h-106v463zM131 729q28 0 47 -18t19 -48q0 -29 -19 -48t-47 -19q-27 0 -47 20t-20 47t19.5 46.5t47.5 19.5z" />
    <glyph glyph-name="j" unicode="j" horiz-adv-x="262" 
d="M78 463h106v-681h-106v681zM131 729q28 0 47 -18t19 -48q0 -29 -19 -48t-47 -19q-27 0 -47 20t-20 47t19.5 46.5t47.5 19.5z" />
    <glyph glyph-name="k" unicode="k" horiz-adv-x="516" 
d="M73 757h106v-486l194 192h131l-210 -204l230 -259h-137l-208 239v-239h-106v757z" />
    <glyph glyph-name="l" unicode="l" horiz-adv-x="262" 
d="M78 757h106v-757h-106v757z" />
    <glyph glyph-name="m" unicode="m" horiz-adv-x="875" 
d="M73 0v463h100v-76q61 93 167 93q107 0 144 -92q35 46 77 69t95 23q46 0 80 -17t48.5 -41.5t18 -47.5t3.5 -56v-37v-281h-106v238q0 84 -17 118t-73 34q-66 0 -91 -43t-25 -136v-211h-107v238q0 83 -19.5 117.5t-72.5 34.5q-66 0 -88 -37t-25 -61.5t-3 -80.5v-211h-106z
" />
    <glyph glyph-name="n" unicode="n" horiz-adv-x="588" 
d="M73 463h100v-76q61 92 179 92q104 0 132.5 -44.5t32 -73t3.5 -80.5v-281h-107v238q0 84 -19 117.5t-82 33.5q-77 0 -101 -35t-28 -66t-4 -77v-211h-106v463z" />
    <glyph glyph-name="o" unicode="o" horiz-adv-x="588" 
d="M114 407q74 72 179 72q106 0 181 -73t75 -175q0 -105 -75.5 -177.5t-180.5 -72.5q-50 0 -96.5 18.5t-102 73t-55.5 158.5t75 176zM294 384q-60 0 -101.5 -44.5t-41.5 -109.5t41.5 -109.5t101.5 -44.5t101.5 44.5t41.5 109.5t-41.5 109.5t-101.5 44.5z" />
    <glyph glyph-name="p" unicode="p" horiz-adv-x="582" 
d="M73 463h106v-76q39 92 157 92q92 0 149.5 -68t57.5 -179q0 -118 -56.5 -184.5t-154.5 -66.5q-96 0 -153 79v-278h-106v681zM306 75q60 0 93 40t33 114t-34 115t-95 41q-60 0 -93.5 -39.5t-33.5 -112.5t36.5 -115.5t93.5 -42.5z" />
    <glyph glyph-name="q" unicode="q" horiz-adv-x="582" 
d="M403 -218v278q-57 -79 -153 -79q-98 0 -154.5 66.5t-56.5 184.5q0 111 58 179t150 68q117 0 156 -92v76h106v-681h-106zM279 385q-60 0 -94.5 -41.5t-34.5 -114.5q0 -74 33 -114t94 -40q57 0 93 42.5t36 115.5q0 72 -34 112t-93 40z" />
    <glyph glyph-name="r" unicode="r" horiz-adv-x="368" 
d="M294 479q45 0 87 -21l-38 -90q-15 11 -30 15t-35 4q-54 0 -76.5 -44.5t-22.5 -139.5v-203h-106v464h106v-75q34 90 115 90z" />
    <glyph glyph-name="s" unicode="s" horiz-adv-x="426" 
d="M108 132q20 -71 104 -71q76 0 76 61q0 36 -39 51.5l-90 36t-82.5 51.5t-31.5 80q0 61 48 100t129 39q112 0 148 -76l-75 -52q-18 48 -77 48q-67 0 -67 -53q0 -23 13 -32.5t92.5 -41.5t107.5 -63t28 -81q0 -69 -49.5 -108.5t-139.5 -39.5q-133 0 -183 103z" />
    <glyph glyph-name="t" unicode="t" horiz-adv-x="303" 
d="M98 370h-81v93h81v175h106v-175h81v-93h-81v-370h-106v370z" />
    <glyph glyph-name="u" unicode="u" horiz-adv-x="588" 
d="M176 202q0 -66 27 -96t91 -30q63 0 90.5 29.5t27.5 96.5v261h106v-229q0 -132 -52 -192.5t-171 -60.5q-120 0 -172.5 60.5t-52.5 192.5v229h106v-261z" />
    <glyph glyph-name="v" unicode="v" horiz-adv-x="472" 
d="M-7 463h116l101 -233q5 -11 11.5 -31.5t14.5 -52.5q9 42 27 84l101 233h115l-243 -491z" />
    <glyph glyph-name="w" unicode="w" horiz-adv-x="750" 
d="M409 213q-14 33 -19.5 47t-14.5 45l-32 -88l-110 -245l-240 491h113l104 -223q3 -7 10 -31.5t13 -62.5q0 16 4.5 33.5t19.5 50.5l113 250h9l115 -250q11 -24 16.5 -43t5.5 -41q9 54 27 93l102 224h112l-241 -491z" />
    <glyph glyph-name="x" unicode="x" horiz-adv-x="453" 
d="M-12 0l175 249l-150 214h117l65 -96q8 -11 16 -24.5t16 -31.5q12 23 19.5 35.5t13.5 21.5l64 95h116l-150 -215l174 -248h-116l-86 122l-21.5 34t-14.5 29q-13 -26 -21 -39l-16 -25l-84 -121h-117z" />
    <glyph glyph-name="y" unicode="y" horiz-adv-x="471" 
d="M44 -218l127 258l-170 423h117l85 -240q6 -17 13 -45.5t9 -45.5q5 18 11 32.5l22 51.5l114 247h115l-334 -681h-109z" />
    <glyph glyph-name="z" unicode="z" horiz-adv-x="449" 
d="M-1 0l258 370h-232v93h404l-252 -370h252v-93h-430z" />
    <glyph glyph-name="braceleft" unicode="{" 
d="M427 634l-23 1q-56 0 -73.5 -21.5t-17.5 -83.5v-118q0 -73 -19.5 -105.5t-79.5 -47.5q59 -14 79 -48t20 -105v-117q0 -62 17.5 -84t74.5 -22l22 1v-86h-31q-51 0 -79.5 4.5t-56 21t-37.5 50.5t-10 94v121q0 69 -25.5 98.5t-87.5 29.5l-21 -1v87l21 -1q61 0 87 29t26 98
v121q0 63 9 95.5t36.5 48.5t62.5 21.5t84 5.5h22v-87z" />
    <glyph glyph-name="bar" unicode="|" 
d="M294 764v-1000h-87v1000h87z" />
    <glyph glyph-name="braceright" unicode="}" 
d="M96 721q54 0 85 -4.5t59.5 -21.5t37.5 -49.5t9 -95.5v-121q0 -69 25 -98t88 -29l21 1v-87l-21 1q-63 0 -88 -29t-25 -99v-121q0 -62 -9.5 -94.5t-36 -48.5t-61.5 -21.5t-84 -5.5h-22v86l22 -1q57 0 74 21.5t17 84.5v117q0 71 20 104.5t80 48.5q-60 14 -80 48t-20 105v118
q0 62 -17 83.5t-73 21.5l-23 -1v87h22z" />
    <glyph glyph-name="asciitilde" unicode="~" horiz-adv-x="833" 
d="M747 293q-48 -33 -95.5 -51t-90.5 -18q-44 0 -93 16.5l-98 33.5q-52 15 -95 15q-44 0 -87 -18t-101 -59v91q103 70 189 70q39 0 70 -7.5t87 -26.5t79.5 -25t49.5 -6q42 0 88 19t97 56v-90z" />
    <glyph glyph-name="Adieresis" unicode="&#xc4;" horiz-adv-x="662" 
d="M473 184h-283l-83 -184h-122l346 743l346 -743h-123zM432 281l-73 163q-6 14 -13.5 38l-13.5 43q-5 -19 -11.5 -41t-14.5 -40l-73 -163h199zM242 923q24 0 41 -17t17 -41q0 -26 -16 -43t-42 -17q-25 0 -42 17t-17 43q0 24 17 41t42 17zM420 923q24 0 41 -17t17 -41
q0 -26 -16 -43t-42 -17q-25 0 -42 17t-17 43q0 24 17 41t42 17z" />
    <glyph glyph-name="Aring" unicode="&#xc5;" horiz-adv-x="662" 
d="M432 281l-73 163q-6 14 -13.5 38l-13.5 43q-5 -19 -11.5 -41t-14.5 -40l-73 -163h199zM473 184h-283l-83 -184h-122l334 715h25l333 -715h-123zM331 963q48 0 82 -34t34 -82t-33.5 -81.5t-82.5 -33.5t-82 33t-33 82q0 48 33 82t82 34zM332 792q24 0 40 16t16 39
q0 24 -16 40t-40 16t-40 -16t-16 -40q0 -23 16 -39t40 -16z" />
    <glyph glyph-name="Ccedilla" unicode="&#xc7;" horiz-adv-x="718" 
d="M436 625q-118 0 -191 -75t-73 -195q0 -117 71.5 -191.5t180.5 -74.5q126 0 231 90v-131q-94 -67 -222 -67q-166 0 -274 106t-108 269q0 79 28 147.5t109 148.5t243 80q125 0 231 -74l-6 -117q-99 84 -220 84zM308 -140q77 -18 118 -18q50 0 50 33q0 36 -65 36l-20 -1v90
h42v-42h8q109 0 109 -85q0 -84 -116 -84q-26 0 -53 4t-73 15v52z" />
    <glyph glyph-name="Eacute" unicode="&#xc9;" horiz-adv-x="532" 
d="M82 715h399v-99h-283v-179h283v-102h-283v-231h283v-104h-399v715zM307 918h110l-143 -133h-60z" />
    <glyph glyph-name="Ntilde" unicode="&#xd1;" horiz-adv-x="803" 
d="M82 743l454 -437q26 -25 38.5 -39.5l39.5 -47.5v496h107v-743l-463 445q-38 36 -69 80v-497h-107v743zM450 805l-26 3l-61 16l-18 2q-32 0 -42 -33h-44q22 102 92 102q15 0 30 -4l57 -15q6 -1 11.5 -1.5t11.5 -0.5q31 0 40 33h44q-9 -49 -34 -75.5t-61 -26.5z" />
    <glyph glyph-name="Odieresis" unicode="&#xd6;" horiz-adv-x="866" 
d="M703 91q-113 -110 -270 -110q-78 0 -147 28t-124 81.5t-83 121t-28 144.5q0 157 111.5 266t270.5 109q158 0 270 -109.5t112 -265.5t-112 -265zM617 546q-75 78 -184 78t-166 -58t-76 -106.5t-19 -103.5q0 -111 76 -189t185 -78q108 0 184.5 78.5t76.5 188.5
q0 111 -77 190zM344 923q24 0 41 -17t17 -41q0 -26 -16 -43t-42 -17q-25 0 -42 17t-17 43q0 24 17 41t42 17zM522 923q24 0 41 -17t17 -41q0 -26 -16 -43t-42 -17q-25 0 -42 17t-17 43q0 24 17 41t42 17z" />
    <glyph glyph-name="Udieresis" unicode="&#xdc;" horiz-adv-x="744" 
d="M194 715v-434q0 -194 178 -194t178 194v434h116v-445q0 -289 -294 -289q-293 0 -293 289v445h115zM283 923q24 0 41 -17t17 -41q0 -26 -16 -43t-42 -17q-25 0 -42 17t-17 43q0 24 17 41t42 17zM461 923q24 0 41 -17t17 -41q0 -26 -16 -43t-42 -17q-25 0 -42 17t-17 43
q0 24 17 41t42 17z" />
    <glyph glyph-name="aacute" unicode="&#xe1;" horiz-adv-x="582" 
d="M279 385q-60 0 -94.5 -41.5t-34.5 -114.5q0 -74 33 -114t94 -40q56 0 92.5 42.5t36.5 115.5q0 72 -34 112t-93 40zM403 0v60q-57 -79 -153 -79q-98 0 -154.5 66.5t-56.5 184.5q0 111 58 179t150 68q117 0 156 -92v76h106v-463h-106zM320 666h110l-143 -133h-60z" />
    <glyph glyph-name="agrave" unicode="&#xe0;" horiz-adv-x="582" 
d="M279 385q-60 0 -94.5 -41.5t-34.5 -114.5q0 -74 33 -114t94 -40q56 0 92.5 42.5t36.5 115.5q0 72 -34 112t-93 40zM403 0v60q-57 -79 -153 -79q-98 0 -154.5 66.5t-56.5 184.5q0 111 58 179t150 68q117 0 156 -92v76h106v-463h-106zM305 533l-143 133h110l93 -133h-60z
" />
    <glyph glyph-name="acircumflex" unicode="&#xe2;" horiz-adv-x="582" 
d="M279 385q-60 0 -94.5 -41.5t-34.5 -114.5q0 -74 33 -114t94 -40q56 0 92.5 42.5t36.5 115.5q0 72 -34 112t-93 40zM403 0v60q-57 -79 -153 -79q-98 0 -154.5 66.5t-56.5 184.5q0 111 58 179t150 68q117 0 156 -92v76h106v-463h-106zM245 666h102l94 -133h-60l-85 77
l-85 -77h-60z" />
    <glyph glyph-name="adieresis" unicode="&#xe4;" horiz-adv-x="582" 
d="M279 385q-60 0 -94.5 -41.5t-34.5 -114.5q0 -74 33 -114t94 -40q56 0 92.5 42.5t36.5 115.5q0 72 -34 112t-93 40zM403 0v60q-57 -79 -153 -79q-98 0 -154.5 66.5t-56.5 184.5q0 111 58 179t150 68q117 0 156 -92v76h106v-463h-106zM207 671q24 0 41 -17t17 -41
q0 -26 -16 -43t-42 -17q-25 0 -42 17t-17 43q0 24 17 41t42 17zM385 671q24 0 41 -17t17 -41q0 -26 -16 -43t-42 -17q-25 0 -42 17t-17 43q0 24 17 41t42 17z" />
    <glyph glyph-name="atilde" unicode="&#xe3;" horiz-adv-x="582" 
d="M279 385q-60 0 -94.5 -41.5t-34.5 -114.5q0 -74 33 -114t94 -40q56 0 92.5 42.5t36.5 115.5q0 72 -34 112t-93 40zM403 0v60q-57 -79 -153 -79q-98 0 -154.5 66.5t-56.5 184.5q0 111 58 179t150 68q117 0 156 -92v76h106v-463h-106zM344 553l-26 3l-61 16l-18 2
q-32 0 -42 -33h-44q22 102 92 102q15 0 30 -4l57 -15q6 -1 11.5 -1.5t11.5 -0.5q31 0 40 33h44q-9 -49 -34 -75.5t-61 -26.5z" />
    <glyph glyph-name="aring" unicode="&#xe5;" horiz-adv-x="582" 
d="M403 0v60q-57 -79 -153 -79q-98 0 -154.5 66.5t-56.5 184.5q0 111 58 179t150 68q117 0 156 -92v76h106v-463h-106zM279 385q-60 0 -94.5 -41.5t-34.5 -114.5q0 -74 33 -114t94 -40q56 0 92.5 42.5t36.5 115.5q0 72 -34 112t-93 40zM277 743q47 0 81 -34t34 -82
t-33.5 -81.5t-81.5 -33.5t-82 33t-34 82q0 48 34 82t82 34zM277 572q24 0 40 16t16 39q0 24 -16 40t-40 16q-23 0 -39 -16t-16 -40q0 -23 16 -39t39 -16z" />
    <glyph glyph-name="ccedilla" unicode="&#xe7;" horiz-adv-x="454" 
d="M292 386q-66 0 -104.5 -41.5t-38.5 -111.5q0 -73 39 -114t109 -41q76 0 122 58v-122q-59 -33 -134 -33q-109 0 -177.5 69.5t-68.5 179.5q0 111 71 180t186 69q71 0 123 -29v-119q-50 55 -127 55zM155 -140q77 -18 118 -18q50 0 50 33q0 36 -65 36l-20 -1v90h42v-42h8
q109 0 109 -85q0 -84 -116 -84q-26 0 -53 4t-73 15v52z" />
    <glyph glyph-name="eacute" unicode="&#xe9;" horiz-adv-x="556" 
d="M284 389q-103 0 -128 -102h253q-12 102 -125 102zM149 216q0 -65 35.5 -101.5t95.5 -36.5q51 0 85 21t60 70l89 -50q-77 -138 -232 -138q-111 0 -177 68t-66 181q0 108 67.5 178.5t175.5 70.5q112 0 174.5 -63.5t62.5 -179.5v-20h-370zM306 666h110l-143 -133h-60z" />
    <glyph glyph-name="egrave" unicode="&#xe8;" horiz-adv-x="556" 
d="M284 389q-103 0 -128 -102h253q-12 102 -125 102zM149 216q0 -65 35.5 -101.5t95.5 -36.5q51 0 85 21t60 70l89 -50q-77 -138 -232 -138q-111 0 -177 68t-66 181q0 108 67.5 178.5t175.5 70.5q112 0 174.5 -63.5t62.5 -179.5v-20h-370zM291 533l-143 133h110l93 -133h-60
z" />
    <glyph glyph-name="ecircumflex" unicode="&#xea;" horiz-adv-x="556" 
d="M284 389q-103 0 -128 -102h253q-12 102 -125 102zM149 216q0 -65 35.5 -101.5t95.5 -36.5q51 0 85 21t60 70l89 -50q-77 -138 -232 -138q-111 0 -177 68t-66 181q0 108 67.5 178.5t175.5 70.5q112 0 174.5 -63.5t62.5 -179.5v-20h-370zM231 666h102l94 -133h-60l-85 77
l-85 -77h-60z" />
    <glyph glyph-name="edieresis" unicode="&#xeb;" horiz-adv-x="556" 
d="M284 389q-103 0 -128 -102h253q-12 102 -125 102zM149 216q0 -65 35.5 -101.5t95.5 -36.5q51 0 85 21t60 70l89 -50q-77 -138 -232 -138q-111 0 -177 68t-66 181q0 108 67.5 178.5t175.5 70.5q112 0 174.5 -63.5t62.5 -179.5v-20h-370zM193 671q24 0 41 -17t17 -41
q0 -26 -16 -43t-42 -17q-25 0 -42 17t-17 43q0 24 17 41t42 17zM371 671q24 0 41 -17t17 -41q0 -26 -16 -43t-42 -17q-25 0 -42 17t-17 43q0 24 17 41t42 17z" />
    <glyph glyph-name="iacute" unicode="&#xed;" horiz-adv-x="262" 
d="M78 463h106v-463h-106v463zM155 666h110l-143 -133h-60z" />
    <glyph glyph-name="igrave" unicode="&#xec;" horiz-adv-x="262" 
d="M78 463h106v-463h-106v463zM140 533l-143 133h110l93 -133h-60z" />
    <glyph glyph-name="icircumflex" unicode="&#xee;" horiz-adv-x="262" 
d="M78 463h106v-463h-106v463zM80 666h102l94 -133h-60l-85 77l-85 -77h-60z" />
    <glyph glyph-name="idieresis" unicode="&#xef;" horiz-adv-x="262" 
d="M78 463h106v-463h-106v463zM42 671q24 0 41 -17t17 -41q0 -26 -16 -43t-42 -17q-25 0 -42 17t-17 43q0 24 17 41t42 17zM220 671q24 0 41 -17t17 -41q0 -26 -16 -43t-42 -17q-25 0 -42 17t-17 43q0 24 17 41t42 17z" />
    <glyph glyph-name="ntilde" unicode="&#xf1;" horiz-adv-x="588" 
d="M73 463h100v-76q61 92 179 92q104 0 132.5 -44.5t32 -73t3.5 -80.5v-281h-107v238q0 84 -19 117.5t-82 33.5q-77 0 -101 -35t-28 -66t-4 -77v-211h-106v463zM350 553l-26 3l-61 16l-18 2q-32 0 -42 -33h-44q22 102 92 102q15 0 30 -4l57 -15q6 -1 11.5 -1.5t11.5 -0.5
q31 0 40 33h44q-9 -49 -34 -75.5t-61 -26.5z" />
    <glyph glyph-name="oacute" unicode="&#xf3;" horiz-adv-x="588" 
d="M114 407q74 72 179 72q106 0 181 -73t75 -175q0 -105 -75.5 -177.5t-180.5 -72.5q-50 0 -96.5 18.5t-102 73t-55.5 158.5t75 176zM294 384q-60 0 -101.5 -44.5t-41.5 -109.5t41.5 -109.5t101.5 -44.5t101.5 44.5t41.5 109.5t-41.5 109.5t-101.5 44.5zM318 666h110
l-143 -133h-60z" />
    <glyph glyph-name="ograve" unicode="&#xf2;" horiz-adv-x="588" 
d="M114 407q74 72 179 72q106 0 181 -73t75 -175q0 -105 -75.5 -177.5t-180.5 -72.5q-50 0 -96.5 18.5t-102 73t-55.5 158.5t75 176zM294 384q-60 0 -101.5 -44.5t-41.5 -109.5t41.5 -109.5t101.5 -44.5t101.5 44.5t41.5 109.5t-41.5 109.5t-101.5 44.5zM303 533l-143 133
h110l93 -133h-60z" />
    <glyph glyph-name="ocircumflex" unicode="&#xf4;" horiz-adv-x="588" 
d="M114 407q74 72 179 72q106 0 181 -73t75 -175q0 -105 -75.5 -177.5t-180.5 -72.5q-50 0 -96.5 18.5t-102 73t-55.5 158.5t75 176zM294 384q-60 0 -101.5 -44.5t-41.5 -109.5t41.5 -109.5t101.5 -44.5t101.5 44.5t41.5 109.5t-41.5 109.5t-101.5 44.5zM243 666h102
l94 -133h-60l-85 77l-85 -77h-60z" />
    <glyph glyph-name="odieresis" unicode="&#xf6;" horiz-adv-x="588" 
d="M114 407q74 72 179 72q106 0 181 -73t75 -175q0 -105 -75.5 -177.5t-180.5 -72.5q-50 0 -96.5 18.5t-102 73t-55.5 158.5t75 176zM294 384q-60 0 -101.5 -44.5t-41.5 -109.5t41.5 -109.5t101.5 -44.5t101.5 44.5t41.5 109.5t-41.5 109.5t-101.5 44.5zM205 671
q24 0 41 -17t17 -41q0 -26 -16 -43t-42 -17q-25 0 -42 17t-17 43q0 24 17 41t42 17zM383 671q24 0 41 -17t17 -41q0 -26 -16 -43t-42 -17q-25 0 -42 17t-17 43q0 24 17 41t42 17z" />
    <glyph glyph-name="otilde" unicode="&#xf5;" horiz-adv-x="588" 
d="M114 407q74 72 179 72q106 0 181 -73t75 -175q0 -105 -75.5 -177.5t-180.5 -72.5q-50 0 -96.5 18.5t-102 73t-55.5 158.5t75 176zM294 384q-60 0 -101.5 -44.5t-41.5 -109.5t41.5 -109.5t101.5 -44.5t101.5 44.5t41.5 109.5t-41.5 109.5t-101.5 44.5zM342 553l-26 3
l-61 16l-18 2q-32 0 -42 -33h-44q22 102 92 102q15 0 30 -4l57 -15q6 -1 11.5 -1.5t11.5 -0.5q31 0 40 33h44q-9 -49 -34 -75.5t-61 -26.5z" />
    <glyph glyph-name="uacute" unicode="&#xfa;" horiz-adv-x="588" 
d="M176 202q0 -66 27 -96t91 -30q63 0 90.5 29.5t27.5 96.5v261h106v-229q0 -132 -52 -192.5t-171 -60.5q-120 0 -172.5 60.5t-52.5 192.5v229h106v-261zM318 666h110l-143 -133h-60z" />
    <glyph glyph-name="ugrave" unicode="&#xf9;" horiz-adv-x="588" 
d="M176 202q0 -66 27 -96t91 -30q63 0 90.5 29.5t27.5 96.5v261h106v-229q0 -132 -52 -192.5t-171 -60.5q-120 0 -172.5 60.5t-52.5 192.5v229h106v-261zM303 533l-143 133h110l93 -133h-60z" />
    <glyph glyph-name="ucircumflex" unicode="&#xfb;" horiz-adv-x="588" 
d="M176 202q0 -66 27 -96t91 -30q63 0 90.5 29.5t27.5 96.5v261h106v-229q0 -132 -52 -192.5t-171 -60.5q-120 0 -172.5 60.5t-52.5 192.5v229h106v-261zM243 666h102l94 -133h-60l-85 77l-85 -77h-60z" />
    <glyph glyph-name="udieresis" unicode="&#xfc;" horiz-adv-x="588" 
d="M176 202q0 -66 27 -96t91 -30q63 0 90.5 29.5t27.5 96.5v261h106v-229q0 -132 -52 -192.5t-171 -60.5q-120 0 -172.5 60.5t-52.5 192.5v229h106v-261zM205 671q24 0 41 -17t17 -41q0 -26 -16 -43t-42 -17q-25 0 -42 17t-17 43q0 24 17 41t42 17zM383 671q24 0 41 -17
t17 -41q0 -26 -16 -43t-42 -17q-25 0 -42 17t-17 43q0 24 17 41t42 17z" />
    <glyph glyph-name="dagger" unicode="&#x2020;" horiz-adv-x="532" 
d="M216 362h-175v89h175v264h100v-264h176v-89h-176v-580h-100v580z" />
    <glyph glyph-name="degree" unicode="&#xb0;" horiz-adv-x="329" 
d="M309 568q0 -59 -42.5 -101.5t-102.5 -42.5t-101.5 41.5t-41.5 102.5t42 103t102 42t102 -42t42 -103zM74 569q0 -38 26.5 -64.5t64.5 -26.5t64 27t26 64q0 38 -26 64t-64 26q-37 0 -64 -26t-27 -64z" />
    <glyph glyph-name="cent" unicode="&#xa2;" horiz-adv-x="604" 
d="M355 510v-292q88 14 130 47v-102q-60 -35 -130 -35v-99h-51v101q-94 0 -153.5 66.5t-59.5 162.5q0 95 56.5 158.5t156.5 78.5v79h51v-77q58 0 130 -29v-100q-31 20 -61 29t-69 12zM187 366q0 -60 31 -99t86 -49v291q-52 -9 -84.5 -48.5t-32.5 -94.5z" />
    <glyph glyph-name="sterling" unicode="&#xa3;" horiz-adv-x="604" 
d="M164 115q23 46 23 87q0 40 -23 84h-122v69h92q-44 73 -44 146q0 97 66 159t177 62q103 0 162 -55t68 -161l-109 -15q0 66 -33.5 101.5t-92.5 35.5q-55 0 -89 -34t-34 -88q0 -33 10.5 -62.5t33.5 -88.5h175v-69h-153q3 -11 5.5 -26.5t2.5 -26.5q0 -31 -12 -62.5t-35 -55.5
q41 0 104 -22t88 -22q71 0 101 52l65 -58q-23 -42 -61 -64t-85 -22q-43 0 -130 23.5t-107 23.5q-54 0 -107 -51l-64 49q30 46 60.5 68.5t67.5 22.5z" />
    <glyph glyph-name="section" unicode="&#xa7;" horiz-adv-x="532" 
d="M174 -43q0 -89 91 -89q44 0 68.5 19.5t24.5 53.5q0 27 -17.5 43.5t-89 47t-101.5 46.5t-69.5 53.5t-39.5 131.5q0 130 128 180q-88 40 -88 132q0 72 50.5 114.5t142.5 42.5q85 0 130 -42t45 -122v-10h-91q0 89 -91 89q-39 0 -63 -20t-24 -50q0 -49 113.5 -94.5t156.5 -92
t43 -130.5q0 -137 -134 -176q46 -21 71 -58.5t25 -82.5q0 -75 -51 -119t-142 -44q-85 0 -136 46t-51 121v10h99zM392 262q0 52 -36 89t-87 37t-86.5 -36.5t-35.5 -89.5q0 -52 35.5 -88.5t86.5 -36.5q50 0 86.5 36.5t36.5 88.5z" />
    <glyph glyph-name="bullet" unicode="&#x2022;" horiz-adv-x="590" 
d="M295 516q60 0 102 -42t42 -102q0 -59 -42 -102t-103 -43q-60 0 -102 42t-42 103q0 60 42 102t103 42z" />
    <glyph glyph-name="paragraph" unicode="&#xb6;" 
d="M473 674h-57v-674h-63v674h-83v-674h-63v383q-83 0 -131.5 47.5t-48.5 121.5q0 76 52 123t139 47h255v-48z" />
    <glyph glyph-name="germandbls" unicode="&#xdf;" horiz-adv-x="602" 
d="M316 79q64 0 99 36t35 104q0 141 -166 141h-17v98l16 -1q53 0 81 27t28 76q0 113 -100 113q-66 0 -86 -39.5t-20 -134.5v-499h-106v363h-57v100h57v114q0 83 59.5 136.5t156.5 53.5q95 0 151 -52t56 -137q0 -123 -135 -163q91 0 142 -55t51 -150q0 -110 -58.5 -169.5
t-168.5 -59.5q-50 0 -84 19v94q30 -15 66 -15z" />
    <glyph glyph-name="registered" unicode="&#xae;" horiz-adv-x="833" 
d="M675 610q103 -105 103 -253q0 -153 -107.5 -257.5t-254.5 -104.5q-72 0 -138 28t-144.5 108t-78.5 226q0 73 28 139t106 144t227 78q153 0 259 -108zM202 577q-93 -95 -93 -220t90.5 -216.5t212.5 -91.5q130 0 221.5 88.5t91.5 214.5q0 131 -90 222t-218 91
q-127 0 -215 -88zM425 566q171 0 171 -110q0 -92 -90 -112l90 -183h-97l-80 169h-63v-169h-87v405h156zM356 384h57q94 0 94 62q0 65 -98 65h-53v-127z" />
    <glyph glyph-name="copyright" unicode="&#xa9;" horiz-adv-x="833" 
d="M673 612q105 -105 105 -255q0 -153 -107 -257.5t-255 -104.5q-147 0 -254 107t-107 255q0 71 28 137t105.5 145t227.5 79q151 0 257 -106zM200 576q-91 -93 -91 -219t91 -217t217 -91q125 0 216.5 89.5t91.5 218.5t-89.5 218.5t-218.5 89.5q-130 0 -217 -89zM508 441
q-11 75 -93 75q-47 0 -75 -41.5t-28 -117.5q0 -75 28 -115t80 -40q38 0 62.5 21.5t29.5 60.5h81q0 -65 -49.5 -105.5t-126.5 -40.5q-89 0 -141.5 57.5t-52.5 158.5t54 161.5t142 60.5q73 0 121.5 -37.5t48.5 -97.5h-81z" />
    <glyph glyph-name="trademark" unicode="&#x2122;" horiz-adv-x="833" 
d="M338 713v-46h-82v-219h-63v219h-83v46h228zM478 713l69 -176l65 176h83v-265h-56v209l-78 -209h-29l-81 209v-209h-56v265h83z" />
    <glyph glyph-name="acute" unicode="&#xb4;" 
d="M274 666h110l-143 -133h-60z" />
    <glyph glyph-name="dieresis" unicode="&#xa8;" 
d="M161 671q24 0 41 -17t17 -41q0 -26 -16 -43t-42 -17q-25 0 -42 17t-17 43q0 24 17 41t42 17zM339 671q24 0 41 -17t17 -41q0 -26 -16 -43t-42 -17q-25 0 -42 17t-17 43q0 24 17 41t42 17z" />
    <glyph glyph-name="notequal" unicode="&#x2260;" horiz-adv-x="549" 
d="M413 336h91v-64h-149l-73 -72h222v-64h-281l-118 -118l-43 44l74 74h-91v64h150l73 72h-223v64h281l118 118l44 -44z" />
    <glyph glyph-name="AE" unicode="&#xc6;" horiz-adv-x="911" 
d="M690 616h-262l63 -175h240l38 -102h-239l87 -235h263l39 -104h-377l-68 184h-284l-83 -184h-122l334 715h330zM439 281l-60 163q-11 30 -20 59t-15 60q-10 -52 -36 -109l-75 -173h206z" />
    <glyph glyph-name="Oslash" unicode="&#xd8;" horiz-adv-x="866" 
d="M433 625q-52 0 -100.5 -20t-85.5 -58t-56 -86.5t-19 -103.5q0 -90 51 -158l355 380q-65 46 -145 46zM426 90q115 0 191.5 78t76.5 189q0 94 -58 167l-357 -383q65 -51 147 -51zM53 17l90 96q-92 104 -92 244q0 157 111.5 266t270.5 109q112 0 222 -71l84 90l63 -51
l-86 -92q99 -109 99 -251q0 -156 -112 -265t-270 -109q-127 0 -231 76l-88 -95z" />
    <glyph glyph-name="infinity" unicode="&#x221e;" horiz-adv-x="713" 
d="M383 271q23 -45 58 -70q35 -23 77 -23q52 0 84.5 35t32.5 90q0 56 -30 89.5t-80 33.5q-37 0 -71 -36t-71 -119zM330 327q-26 46 -59 69.5t-76 23.5q-51 0 -84 -35t-33 -90q0 -54 29.5 -88.5t76.5 -34.5q40 0 71.5 31.5t74.5 123.5zM366 238q-33 -62 -71.5 -93t-85.5 -31
q-66 0 -111 52.5t-45 131.5q0 83 41 134.5t105 51.5q47 0 82.5 -29.5t65.5 -94.5q31 62 69.5 93t87.5 31q63 0 109 -53t46 -131q0 -83 -40.5 -134.5t-104.5 -51.5q-46 0 -84 30q-36 31 -64 94z" />
    <glyph glyph-name="plusminus" unicode="&#xb1;" horiz-adv-x="833" 
d="M458 589v-163h251v-81h-251v-163h-83v163h-251v81h251v163h83zM709 89v-82h-585v82h585z" />
    <glyph glyph-name="lessequal" unicode="&#x2264;" horiz-adv-x="549" 
d="M506 18h-463v68h463v-68zM162 280l344 -107v-70l-462 145v65l462 145v-70z" />
    <glyph glyph-name="greaterequal" unicode="&#x2265;" horiz-adv-x="549" 
d="M506 18h-463v68h463v-68zM506 248l-463 -145v70l344 107l-344 108v70l463 -145v-65z" />
    <glyph glyph-name="yen" unicode="&#xa5;" horiz-adv-x="604" 
d="M240 282h-235v71h217l-49 80h-168v71h125l-130 205h117l150 -241q5 -11 14.5 -28.5t15.5 -30.5q12 34 30 62l154 238h112l-130 -205h125v-71h-171l-50 -80h221v-71h-241v-282h-107v282z" />
    <glyph glyph-name="mu" unicode="&#xb5;" horiz-adv-x="590" 
d="M212 528l-61 -310q-6 -29 -6 -51q0 -96 89 -96q61 0 95.5 44t53.5 142l53 271h110l-71 -361q-9 -47 -9 -65q0 -32 33 -32l17 1l-16 -78q-14 -4 -33.5 -6t-39.5 -2q-73 0 -73 61v7q-42 -69 -124 -69q-76 0 -115 53l-48 -247h-112l145 738h112z" />
    <glyph glyph-name="partialdiff" unicode="&#x2202;" horiz-adv-x="494" 
d="M256 349q-52 0 -86 -60t-34 -161q0 -57 21.5 -88t62.5 -31q53 0 87 62t34 153q0 58 -21.5 91.5t-63.5 33.5zM358 287q4 14 6.5 28t2.5 31l3 89q0 85 -15.5 126t-47.5 41q-18 0 -50 -35t-56 -35q-16 0 -25.5 7.5t-11.5 24.5q0 29 30.5 50t71.5 21q77 0 111.5 -54
t46.5 -103t12 -111q0 -163 -64.5 -271.5t-157.5 -108.5q-68 0 -110 51t-42 137q0 82 53 143.5t125 61.5q44 0 72.5 -22t45.5 -71z" />
    <glyph glyph-name="summation" unicode="&#x3a3;" horiz-adv-x="713" 
d="M618 643l15 -129h-44q-32 105 -85 144t-169 39h-132l315 -431l-344 -394h187q122 0 172.5 31.5t82.5 116.5h45l-30 -130l-2 -7q-23 -99 -111 -99h-482l389 446l-375 514h460q65 0 82 -15q17 -13 26 -86z" />
    <glyph glyph-name="product" unicode="&#x220f;" horiz-adv-x="823" 
d="M118 -176v880h-88v40h767v-40h-88v-880h88v-40h-264v40h84v880h-407v-880h84v-40h-264v40h88z" />
    <glyph glyph-name="pi" unicode="&#x3c0;" horiz-adv-x="549" 
d="M404 373l-1 -24l-3 -150v-40q0 -84 8.5 -105t30.5 -21q28 0 41 29q17 31 17 89h25v-5q0 -80 -26 -118t-80 -38q-56 0 -79.5 40t-23.5 164l1 78l3 104l-50 1l-77 2q0 -234 -23 -311.5t-80 -77.5q-35 0 -52.5 29t-17.5 86v19h24q0 -27 9.5 -39.5t27.5 -12.5q42 0 54.5 47
t18 110.5t5.5 149.5h-22q-38 0 -59.5 -13.5t-27.5 -39.5h-23q0 34 10 57.5t36.5 44.5t112.5 21l102 -3l152 -3q34 0 49.5 7t16.5 21l23 1q0 -53 -23.5 -76.5t-74.5 -23.5h-14z" />
    <glyph glyph-name="integral" unicode="&#x222b;" horiz-adv-x="274" 
d="M283 757q36 0 58.5 -18.5t22.5 -48.5q0 -20 -13 -34t-36 -14q-29 0 -44 32t-29 32q-57 0 -57 -310l-3 -98q0 -63 -4.5 -120t-14 -128t-31 -120t-60 -80t-81.5 -31q-35 0 -58 18.5t-23 48.5q0 22 12.5 34.5t36.5 12.5q29 0 44 -31t30 -32q57 0 57 324l2 84q0 60 4 116
t13.5 127.5t31.5 122.5t59.5 82t82.5 31z" />
    <glyph glyph-name="ordfeminine" unicode="&#xaa;" horiz-adv-x="437" 
d="M209 660q-45 0 -70.5 -28.5t-25.5 -80.5q0 -51 24.5 -79.5t70.5 -28.5q43 0 70 30t27 81t-25.5 78.5t-70.5 27.5zM302 391v42q-42 -55 -114 -55q-74 0 -116.5 46.5t-42.5 128.5q0 78 43.5 125.5t112.5 47.5q89 0 117 -64v53h80v-324h-80z" />
    <glyph glyph-name="ordmasculine" unicode="&#xba;" horiz-adv-x="441" 
d="M86 676q55 50 134 50q80 0 136 -51t56 -122q0 -73 -56.5 -124t-135.5 -51q-78 0 -134.5 51t-56.5 124q0 72 57 123zM221 660q-45 0 -76.5 -31.5t-31.5 -76.5q0 -46 31 -77t77 -31q44 0 75.5 31.5t31.5 76.5q0 46 -31 77t-76 31z" />
    <glyph glyph-name="Omega" unicode="&#x3a9;" horiz-adv-x="768" 
d="M593 90q48 0 68 19t20 67h23v-176h-272v180q77 15 122.5 76.5t45.5 151.5q0 106 -59 168.5t-157 62.5t-157 -62.5t-59 -168.5q0 -90 44.5 -151t123.5 -77v-180h-272v176h23q0 -48 19 -67t69 -19h123v59q-118 21 -183 89t-65 170q0 121 92.5 194t241.5 73t241.5 -73.5
t92.5 -193.5q0 -100 -64 -168t-184 -91v-59h123z" />
    <glyph glyph-name="ae" unicode="&#xe6;" horiz-adv-x="862" 
d="M252 216q-50 0 -79 -19t-29 -52q0 -32 25.5 -50.5t72.5 -18.5q56 0 86.5 18.5t30.5 51.5q0 31 -28.5 50.5t-78.5 19.5zM451 216q0 -65 35.5 -102.5t95.5 -37.5q96 0 145 93l89 -50q-77 -138 -232 -138q-114 0 -173 76q-68 -76 -192 -76q-86 0 -135.5 44.5t-49.5 117.5
q0 69 49.5 111.5t131.5 42.5q42 0 75.5 -8t63.5 -26l1 18q0 108 -135 108q-71 0 -145 -47v99q68 39 149 39q68 0 112 -18.5t75 -63.5q60 82 173 82q112 0 174.5 -64.5t62.5 -181.5v-18h-370zM587 389q-104 0 -129 -102h253q-12 102 -124 102z" />
    <glyph glyph-name="oslash" unicode="&#xf8;" horiz-adv-x="588" 
d="M34 14l61 62q-55 71 -55 153q0 109 73 180t184 71q92 0 155 -55l61 62l41 -39l-62 -63q56 -72 56 -154q0 -107 -73.5 -178.5t-184.5 -71.5q-91 0 -153 54l-64 -61zM299 384q-65 0 -107.5 -43.5t-42.5 -108.5q0 -40 22 -83l209 204q-35 31 -81 31zM290 78q64 0 105.5 42.5
t41.5 106.5q0 42 -22 83l-208 -204q37 -28 83 -28z" />
    <glyph glyph-name="questiondown" unicode="&#xbf;" horiz-adv-x="544" 
d="M283 604q-27 0 -45.5 18.5t-18.5 45.5t18 45t46 18q27 0 45.5 -18.5t18.5 -44.5t-19 -45t-45 -19zM438 168l1 -18q0 -78 -46.5 -123.5t-123.5 -45.5q-80 0 -127.5 45.5t-47.5 122.5q0 61 32 96.5t100.5 69.5t90.5 50.5t22 47.5q0 25 -19 43t-46 18q-69 0 -69 -76h-87v10
q0 72 40.5 111.5t115.5 39.5q70 0 114.5 -40.5t44.5 -103.5q0 -64 -35 -101t-101 -68.5t-88 -50.5t-22 -50q0 -33 23 -54t59 -21q40 0 62.5 25.5t22.5 72.5h84z" />
    <glyph glyph-name="exclamdown" unicode="&#xa1;" horiz-adv-x="329" 
d="M164 731q27 0 45.5 -18.5t18.5 -44.5q0 -27 -18.5 -45.5t-45.5 -18.5q-26 0 -45 19t-19 45q0 27 18 45t46 18zM109 549h111v-568h-111v568z" />
    <glyph glyph-name="logicalnot" unicode="&#xac;" horiz-adv-x="833" 
d="M709 421v-245h-81v164h-504v81h585z" />
    <glyph glyph-name="radical" unicode="&#x221a;" horiz-adv-x="549" 
d="M594 764h-57l-290 -784h-32l-156 431l-61 -22l-12 39l138 48l125 -346l252 681h93v-47z" />
    <glyph glyph-name="florin" unicode="&#x192;" horiz-adv-x="604" 
d="M307 12q-16 -127 -49 -179t-114 -52q-35 0 -77 12l20 99q27 -11 41 -11q39 0 52 33t25 128l41 340h-102l7 81h103l10 75q13 95 49 140t103 45q41 0 89 -17l-9 -92q-33 13 -56 13q-35 0 -48.5 -24t-22.5 -87l-7 -53h113l-8 -81h-113z" />
    <glyph glyph-name="approxequal" unicode="&#x2248;" horiz-adv-x="549" 
d="M15 100v77q49 31 87 44.5t74 13.5q44 0 115 -24t99 -24t61.5 15t82.5 52v-78q-42 -28 -76.5 -41.5t-72.5 -13.5q-32 0 -104 23.5t-116 23.5q-28 0 -53.5 -11t-48 -24.5t-48.5 -32.5zM15 219v77q23 14 43.5 25t50.5 21.5t66 10.5q42 0 114.5 -23.5t100.5 -23.5
q27 0 60 14.5t84 51.5v-77q-18 -12 -41 -24t-49 -21.5t-59 -9.5t-104.5 23.5t-110.5 23.5q-35 0 -66 -13.5t-89 -54.5z" />
    <glyph glyph-name="Delta" unicode="&#x2206;" horiz-adv-x="612" 
d="M92 45h373l-186 459zM595 0h-574l276 672h22z" />
    <glyph glyph-name="guillemotleft" unicode="&#xab;" horiz-adv-x="454" 
d="M230 387l-100 -158l100 -158l-67 -41l-124 199l124 199zM416 387l-101 -158l101 -158l-68 -41l-124 199l124 199z" />
    <glyph glyph-name="guillemotright" unicode="&#xbb;" horiz-adv-x="454" 
d="M40 71l100 158l-100 158l67 41l124 -199l-124 -199zM224 71l101 158l-101 158l68 41l124 -199l-124 -199z" />
    <glyph glyph-name="ellipsis" unicode="&#x2026;" horiz-adv-x="1000" 
d="M167 119q26 0 45 -19t19 -46t-18 -45t-46 -18q-27 0 -45.5 18.5t-18.5 44.5q0 27 18 46t46 19zM500 119q26 0 45 -19t19 -46t-18 -45t-46 -18q-27 0 -45.5 18.5t-18.5 44.5q0 27 18 46t46 19zM834 119q26 0 45 -19t19 -46t-18 -45t-46 -18q-27 0 -45.5 18.5t-18.5 44.5
q0 27 18 46t46 19z" />
    <glyph glyph-name="nbspace" unicode="&#xa0;" horiz-adv-x="250" 
 />
    <glyph glyph-name="Agrave" unicode="&#xc0;" horiz-adv-x="662" 
d="M473 184h-283l-83 -184h-122l346 743l346 -743h-123zM432 281l-73 163q-6 14 -13.5 38l-13.5 43q-5 -19 -11.5 -41t-14.5 -40l-73 -163h199zM340 785l-143 133h110l93 -133h-60z" />
    <glyph glyph-name="Atilde" unicode="&#xc3;" horiz-adv-x="662" 
d="M473 184h-283l-83 -184h-122l346 743l346 -743h-123zM432 281l-73 163q-6 14 -13.5 38l-13.5 43q-5 -19 -11.5 -41t-14.5 -40l-73 -163h199zM379 805l-26 3l-61 16l-18 2q-32 0 -42 -33h-44q22 102 92 102q15 0 30 -4l57 -15q6 -1 11.5 -1.5t11.5 -0.5q31 0 40 33h44
q-9 -49 -34 -75.5t-61 -26.5z" />
    <glyph glyph-name="Otilde" unicode="&#xd5;" horiz-adv-x="866" 
d="M703 91q-113 -110 -270 -110q-78 0 -147 28t-124 81.5t-83 121t-28 144.5q0 157 111.5 266t270.5 109q158 0 270 -109.5t112 -265.5t-112 -265zM617 546q-75 78 -184 78t-166 -58t-76 -106.5t-19 -103.5q0 -111 76 -189t185 -78q108 0 184.5 78.5t76.5 188.5
q0 111 -77 190zM481 805l-26 3l-61 16l-18 2q-32 0 -42 -33h-44q22 102 92 102q15 0 30 -4l57 -15q6 -1 11.5 -1.5t11.5 -0.5q31 0 40 33h44q-9 -49 -34 -75.5t-61 -26.5z" />
    <glyph glyph-name="OE" unicode="&#x152;" horiz-adv-x="1125" 
d="M1072 715v-99h-278v-176h278v-102h-278v-234h278v-104h-385l-1 110q-94 -127 -258 -127q-76 0 -144 28t-149.5 109.5t-81.5 236.5q0 77 28 144t110 149t237 82q156 0 258 -123l1 106h385zM609 547q-75 78 -181 78t-181 -78t-75 -190q0 -111 75 -189t181 -78t181 78
t75 189q0 112 -75 190z" />
    <glyph glyph-name="oe" unicode="&#x153;" horiz-adv-x="949" 
d="M293 384q-60 0 -101.5 -44.5t-41.5 -109.5t41.5 -109.5t101.5 -44.5q59 0 101.5 44.5t42.5 109.5q0 66 -42 110t-102 44zM296 -19q-70 0 -130.5 35t-93.5 90t-33 125q0 49 19 94t74.5 99.5t166.5 54.5q62 0 109.5 -25t80.5 -73q31 49 75 73.5t108 24.5q112 0 174.5 -63.5
t62.5 -179.5v-20h-370q0 -65 35.5 -102.5t95.5 -37.5q96 0 145 93l89 -50q-77 -138 -232 -138q-121 0 -187 91q-82 -91 -189 -91zM675 389q-104 0 -129 -102h253q-12 102 -124 102z" />
    <glyph glyph-name="endash" unicode="&#x2013;" 
d="M500 266v-71h-500v71h500z" />
    <glyph glyph-name="emdash" unicode="&#x2014;" horiz-adv-x="1000" 
d="M0 266h1000v-71h-1000v71z" />
    <glyph glyph-name="quotedblleft" unicode="&#x201c;" horiz-adv-x="442" 
d="M308 443l-89 30l120 258l62 -22zM131 443l-90 30l120 258l62 -22z" />
    <glyph glyph-name="quotedblright" unicode="&#x201d;" horiz-adv-x="442" 
d="M312 731l89 -29l-120 -259l-62 23zM134 731l89 -29l-120 -259l-62 23z" />
    <glyph glyph-name="quoteleft" unicode="&#x2018;" horiz-adv-x="302" 
d="M149 443l-89 30l120 258l62 -22z" />
    <glyph glyph-name="quoteright" unicode="&#x2019;" horiz-adv-x="302" 
d="M153 731l89 -29l-120 -259l-62 23z" />
    <glyph glyph-name="divide" unicode="&#xf7;" horiz-adv-x="833" 
d="M484 483q0 -27 -19.5 -46.5t-47.5 -19.5q-29 0 -48 19t-19 47q0 27 19.5 47.5t47.5 20.5q27 0 47 -20t20 -48zM709 339v-81h-585v81h585zM484 112q0 -27 -19.5 -46.5t-47.5 -19.5q-29 0 -48 19t-19 47q0 27 20 47t47 20q28 0 47.5 -19.5t19.5 -47.5z" />
    <glyph glyph-name="lozenge" unicode="&#x25ca;" horiz-adv-x="494" 
d="M247 688l-188 -399l188 -403l188 403zM247 807l244 -518l-244 -522l-244 522z" />
    <glyph glyph-name="ydieresis" unicode="&#xff;" horiz-adv-x="471" 
d="M44 -218l127 258l-170 423h117l85 -240q6 -17 13 -45.5t9 -45.5q5 18 11 32.5l22 51.5l114 247h115l-334 -681h-109zM147 671q24 0 41 -17t17 -41q0 -26 -16 -43t-42 -17q-25 0 -42 17t-17 43q0 24 17 41t42 17zM325 671q24 0 41 -17t17 -41q0 -26 -16 -43t-42 -17
q-25 0 -42 17t-17 43q0 24 17 41t42 17z" />
    <glyph glyph-name="Ydieresis" unicode="&#x178;" horiz-adv-x="593" 
d="M236 327l-241 388h122l150 -243l30 -57q14 35 30 60l154 240h116l-246 -388v-327h-115v327zM208 923q24 0 41 -17t17 -41q0 -26 -16 -43t-42 -17q-25 0 -42 17t-17 43q0 24 17 41t42 17zM386 923q24 0 41 -17t17 -41q0 -26 -16 -43t-42 -17q-25 0 -42 17t-17 43
q0 24 17 41t42 17z" />
    <glyph glyph-name="fraction" unicode="&#x2215;" horiz-adv-x="167" 
d="M266 722h67l-433 -741h-67z" />
    <glyph glyph-name="currency" unicode="&#xa4;" horiz-adv-x="606" 
d="M181 599q53 40 122 40q70 0 123 -40l99 99l46 -45l-100 -100q39 -53 39 -121t-39 -121l100 -100l-46 -45l-99 100q-55 -40 -122 -40q-70 0 -123 40l-99 -100l-45 45l99 100q-39 53 -39 121t39 121l-99 100l45 45zM162 432q0 -59 41 -100t101 -41t101 41t41 100
q0 58 -41 100t-101 42q-58 0 -100 -42t-42 -100z" />
    <glyph glyph-name="guilsinglleft" unicode="&#x2039;" horiz-adv-x="306" 
d="M231 387l-101 -158l101 -158l-68 -41l-124 199l124 199z" />
    <glyph glyph-name="guilsinglright" unicode="&#x203a;" horiz-adv-x="266" 
d="M39 71l101 158l-101 158l68 41l124 -199l-124 -199z" />
    <glyph glyph-name="fi" unicode="&#xf001;" horiz-adv-x="562" 
d="M88 370h-81v93h81v124q0 180 157 180q35 0 72 -10v-96q-26 15 -52 15q-39 0 -55 -24t-16 -79v-110h111v-93h-111v-370h-106v370zM378 463h107v-463h-107v463zM432 729q28 0 47 -18t19 -48q0 -29 -19 -48t-47 -19q-27 0 -47 20t-20 47t19.5 46.5t47.5 19.5z" />
    <glyph glyph-name="fl" unicode="&#xf002;" horiz-adv-x="562" 
d="M88 370h-81v93h81v124q0 180 157 180q35 0 72 -10v-96q-26 15 -52 15q-39 0 -55 -24t-16 -79v-110h111v-93h-111v-370h-106v370zM378 757h107v-757h-107v757z" />
    <glyph glyph-name="daggerdbl" unicode="&#x2021;" horiz-adv-x="532" 
d="M216 22h-176v88h176v318h-176v88h176v199h100v-199h176v-88h-176v-318h176v-88h-176v-240h-100v240z" />
    <glyph glyph-name="periodcentered" unicode="&#x2219;" horiz-adv-x="302" 
d="M151 416q27 0 45.5 -18.5t18.5 -45.5t-18.5 -45.5t-45.5 -18.5q-26 0 -45 19t-19 45q0 27 18.5 45.5t45.5 18.5z" />
    <glyph glyph-name="quotesinglbase" unicode="&#x201a;" horiz-adv-x="302" 
d="M153 120l89 -29l-120 -259l-62 22z" />
    <glyph glyph-name="quotedblbase" unicode="&#x201e;" horiz-adv-x="442" 
d="M312 120l89 -29l-120 -259l-62 22zM134 120l89 -29l-120 -259l-62 22z" />
    <glyph glyph-name="perthousand" unicode="&#x2030;" horiz-adv-x="1169" 
d="M155 -19l417 741h67l-417 -741h-67zM188 722q76 0 117.5 -48.5t41.5 -139.5q0 -89 -41.5 -138.5t-117.5 -49.5q-75 0 -117.5 49.5t-42.5 138.5q0 90 42 139t118 49zM259 534q0 63 -18 97t-52 34q-73 0 -73 -132q0 -130 71 -130q72 0 72 131zM677 170q0 130 -71 130
q-73 0 -73 -131q0 -130 71 -130q73 0 73 131zM606 358q76 0 117.5 -48.5t41.5 -139.5q0 -89 -42 -139t-118 -50q-75 0 -117 50t-42 139q0 90 42 139t118 49zM982 358q76 0 117.5 -48.5t41.5 -139.5q0 -89 -42 -139t-118 -50q-75 0 -117 50t-42 139q0 90 42 139t118 49z
M1053 170q0 130 -71 130q-73 0 -73 -131q0 -130 71 -130q73 0 73 131z" />
    <glyph glyph-name="Acircumflex" unicode="&#xc2;" horiz-adv-x="662" 
d="M473 184h-283l-83 -184h-122l346 743l346 -743h-123zM432 281l-73 163q-6 14 -13.5 38l-13.5 43q-5 -19 -11.5 -41t-14.5 -40l-73 -163h199zM280 918h102l94 -133h-60l-85 77l-85 -77h-60z" />
    <glyph glyph-name="Ecircumflex" unicode="&#xca;" horiz-adv-x="532" 
d="M82 715h399v-99h-283v-179h283v-102h-283v-231h283v-104h-399v715zM232 918h102l94 -133h-60l-85 77l-85 -77h-60z" />
    <glyph glyph-name="Aacute" unicode="&#xc1;" horiz-adv-x="662" 
d="M473 184h-283l-83 -184h-122l346 743l346 -743h-123zM432 281l-73 163q-6 14 -13.5 38l-13.5 43q-5 -19 -11.5 -41t-14.5 -40l-73 -163h199zM355 918h110l-143 -133h-60z" />
    <glyph glyph-name="Edieresis" unicode="&#xcb;" horiz-adv-x="532" 
d="M82 715h399v-99h-283v-179h283v-102h-283v-231h283v-104h-399v715zM194 923q24 0 41 -17t17 -41q0 -26 -16 -43t-42 -17q-25 0 -42 17t-17 43q0 24 17 41t42 17zM372 923q24 0 41 -17t17 -41q0 -26 -16 -43t-42 -17q-25 0 -42 17t-17 43q0 24 17 41t42 17z" />
    <glyph glyph-name="Egrave" unicode="&#xc8;" horiz-adv-x="532" 
d="M82 715h399v-99h-283v-179h283v-102h-283v-231h283v-104h-399v715zM292 785l-143 133h110l93 -133h-60z" />
    <glyph glyph-name="Iacute" unicode="&#xcd;" horiz-adv-x="285" 
d="M84 715h116v-715h-116v715zM167 918h110l-143 -133h-60z" />
    <glyph glyph-name="Icircumflex" unicode="&#xce;" horiz-adv-x="285" 
d="M84 715h116v-715h-116v715zM92 918h102l94 -133h-60l-85 77l-85 -77h-60z" />
    <glyph glyph-name="Idieresis" unicode="&#xcf;" horiz-adv-x="285" 
d="M84 715h116v-715h-116v715zM54 923q24 0 41 -17t17 -41q0 -26 -16 -43t-42 -17q-25 0 -42 17t-17 43q0 24 17 41t42 17zM232 923q24 0 41 -17t17 -41q0 -26 -16 -43t-42 -17q-25 0 -42 17t-17 43q0 24 17 41t42 17z" />
    <glyph glyph-name="Igrave" unicode="&#xcc;" horiz-adv-x="285" 
d="M84 715h116v-715h-116v715zM152 785l-143 133h110l93 -133h-60z" />
    <glyph glyph-name="Oacute" unicode="&#xd3;" horiz-adv-x="866" 
d="M703 91q-113 -110 -270 -110q-78 0 -147 28t-124 81.5t-83 121t-28 144.5q0 157 111.5 266t270.5 109q158 0 270 -109.5t112 -265.5t-112 -265zM617 546q-75 78 -184 78t-166 -58t-76 -106.5t-19 -103.5q0 -111 76 -189t185 -78q108 0 184.5 78.5t76.5 188.5
q0 111 -77 190zM457 918h110l-143 -133h-60z" />
    <glyph glyph-name="Ocircumflex" unicode="&#xd4;" horiz-adv-x="866" 
d="M703 91q-113 -110 -270 -110q-78 0 -147 28t-124 81.5t-83 121t-28 144.5q0 157 111.5 266t270.5 109q158 0 270 -109.5t112 -265.5t-112 -265zM617 546q-75 78 -184 78t-166 -58t-76 -106.5t-19 -103.5q0 -111 76 -189t185 -78q108 0 184.5 78.5t76.5 188.5
q0 111 -77 190zM382 918h102l94 -133h-60l-85 77l-85 -77h-60z" />
    <glyph glyph-name="apple" unicode="&#xf000;" horiz-adv-x="790" 
d="M408 594l-1 7v11q0 61 46 112t116 64v-12l1 -18q0 -64 -50.5 -114.5t-99.5 -50.5h-4zM735 197q-56 -121 -101 -167.5t-99 -46.5q-25 0 -64 16t-60 16q-23 0 -64 -16t-62 -16q-30 0 -63 21q-13 10 -30.5 27.5t-48.5 60t-59.5 120.5t-28.5 148q0 107 61.5 174.5t157.5 67.5
q16 0 35.5 -4t51.5 -17t49 -13q18 0 61 17t73 17q55 0 97.5 -19.5t77.5 -60.5q-49 -31 -73.5 -70.5t-24.5 -89.5q0 -54 30 -98t84 -67z" />
    <glyph glyph-name="Ograve" unicode="&#xd2;" horiz-adv-x="866" 
d="M703 91q-113 -110 -270 -110q-78 0 -147 28t-124 81.5t-83 121t-28 144.5q0 157 111.5 266t270.5 109q158 0 270 -109.5t112 -265.5t-112 -265zM617 546q-75 78 -184 78t-166 -58t-76 -106.5t-19 -103.5q0 -111 76 -189t185 -78q108 0 184.5 78.5t76.5 188.5
q0 111 -77 190zM442 785l-143 133h110l93 -133h-60z" />
    <glyph glyph-name="Uacute" unicode="&#xda;" horiz-adv-x="744" 
d="M194 715v-434q0 -194 178 -194t178 194v434h116v-445q0 -289 -294 -289q-293 0 -293 289v445h115zM396 918h110l-143 -133h-60z" />
    <glyph glyph-name="Ucircumflex" unicode="&#xdb;" horiz-adv-x="744" 
d="M194 715v-434q0 -194 178 -194t178 194v434h116v-445q0 -289 -294 -289q-293 0 -293 289v445h115zM321 918h102l94 -133h-60l-85 77l-85 -77h-60z" />
    <glyph glyph-name="Ugrave" unicode="&#xd9;" horiz-adv-x="744" 
d="M194 715v-434q0 -194 178 -194t178 194v434h116v-445q0 -289 -294 -289q-293 0 -293 289v445h115zM381 785l-143 133h110l93 -133h-60z" />
    <glyph glyph-name="dotlessi" unicode="&#x131;" horiz-adv-x="262" 
d="M78 463h106v-463h-106v463z" />
    <glyph glyph-name="circumflex" unicode="&#x302;" 
d="M199 666h102l94 -133h-60l-85 77l-85 -77h-60z" />
    <glyph glyph-name="tilde" unicode="&#x303;" 
d="M298 553l-26 3l-61 16l-18 2q-32 0 -42 -33h-44q22 102 92 102q15 0 30 -4l57 -15q6 -1 11.5 -1.5t11.5 -0.5q31 0 40 33h44q-9 -49 -34 -75.5t-61 -26.5z" />
    <glyph glyph-name="macron" unicode="&#x2c9;" 
d="M121 632h257v-69h-257v69z" />
    <glyph glyph-name="breve" unicode="&#x2d8;" 
d="M163 664q4 -32 25.5 -46.5t61.5 -14.5q77 0 86 61h58q-8 -68 -41.5 -98.5t-102.5 -30.5q-132 0 -146 129h59z" />
    <glyph glyph-name="dotaccent" unicode="&#x2d9;" 
d="M250 675q26 0 44 -18t18 -44q0 -27 -17.5 -44.5t-44.5 -17.5q-26 0 -44 18t-18 44q0 25 18.5 43.5t43.5 18.5z" />
    <glyph glyph-name="ring" unicode="&#x2da;" 
d="M250 743q48 0 82 -34t34 -82t-33.5 -81.5t-82.5 -33.5q-48 0 -82 33t-34 82q0 48 34 82t82 34zM250 572q24 0 40 16t16 39q0 24 -16 40t-40 16q-23 0 -39 -16t-16 -40q0 -23 16 -39t39 -16z" />
    <glyph glyph-name="cedilla" unicode="&#xb8;" 
d="M134 -140q77 -18 118 -18q50 0 50 33q0 36 -65 36l-20 -1v90h42v-42h8q109 0 109 -85q0 -84 -116 -84q-26 0 -53 4t-73 15v52z" />
    <glyph glyph-name="hungarumlaut" unicode="&#x2ba;" 
d="M212 666h92l-112 -133h-43zM353 666h97l-126 -133h-47z" />
    <glyph glyph-name="ogonek" unicode="&#x2db;" 
d="M241 -104q0 -39 43 -39h46v-76h-47q-113 0 -113 88q0 62 92 131h43q-64 -55 -64 -104z" />
    <glyph glyph-name="caron" unicode="&#x2c7;" 
d="M165 666l85 -77l85 77h60l-94 -133h-102l-94 133h60z" />
    <glyph glyph-name="glyph226" horiz-adv-x="477" 
d="M89 267l-71 -49l-50 70l121 87v340h116v-274l114 80l50 -72l-164 -115v-230h260v-104h-376v267z" />
    <glyph glyph-name="glyph227" horiz-adv-x="275" 
d="M84 272l-54 -38l-47 69l101 72v382h107v-317l54 38l48 -69l-102 -72v-337h-107v272z" />
    <glyph glyph-name="glyph228" horiz-adv-x="549" 
d="M134 186q26 -98 138 -98q52 0 82.5 28.5t30.5 77.5q0 54 -31 72.5t-116 60t-131 87t-46 121.5q0 87 58.5 141.5t156.5 54.5q164 0 206 -118l-91 -47q-41 65 -106 65q-48 0 -75 -24t-27 -66q0 -46 30 -69t118 -63.5t130.5 -86t42.5 -120.5q0 -100 -63.5 -160.5
t-173.5 -60.5q-91 0 -149.5 42t-76.5 120zM190 918l85 -77l85 77h60l-94 -133h-102l-94 133h60z" />
    <glyph glyph-name="glyph229" horiz-adv-x="426" 
d="M108 132q20 -71 104 -71q76 0 76 61q0 36 -39 51.5l-90 36t-82.5 51.5t-31.5 80q0 61 48 100t129 39q112 0 148 -76l-75 -52q-18 48 -77 48q-67 0 -67 -53q0 -23 13 -32.5t92.5 -41.5t107.5 -63t28 -81q0 -69 -49.5 -108.5t-139.5 -39.5q-133 0 -183 103zM128 666l85 -77
l85 77h60l-94 -133h-102l-94 133h60z" />
    <glyph glyph-name="glyph230" horiz-adv-x="576" 
d="M373 616h-303v99h482l-361 -611h365v-104h-547zM203 918l85 -77l85 77h60l-94 -133h-102l-94 133h60z" />
    <glyph glyph-name="glyph231" horiz-adv-x="449" 
d="M-1 0l258 370h-232v93h404l-252 -370h252v-93h-430zM140 666l85 -77l85 77h60l-94 -133h-102l-94 133h60z" />
    <glyph glyph-name="glyph232" 
d="M294 699v-370h-87v370h87zM294 199v-370h-87v370h87z" />
    <glyph glyph-name="glyph233" horiz-adv-x="747" 
d="M89 353h-89v90h89v272h157q160 0 218 -15t145 -82t87 -261q0 -95 -32 -168.5t-90.5 -119t-125.5 -57.5t-171 -12h-31h-157v353zM247 105h56q71 0 113 8.5t100.5 58t58.5 186.5t-58.5 186.5t-104 58t-123.5 8.5h-42h-42v-168h189v-90h-189v-248h42z" />
    <glyph glyph-name="glyph234" horiz-adv-x="588" 
d="M301 559l-142 -66l-29 57l117 54q-21 17 -50 34.5l-65 37.5l53 78q58 -34 93 -57t67 -49l155 70l29 -56l-131 -60q75 -72 113 -158.5t38 -184.5q0 -129 -69.5 -203.5t-186.5 -74.5q-104 0 -179 69t-75 169q0 48 19 90t72 91.5t157 49.5q74 0 135 -53q-49 106 -121 162z
M294 356q-61 0 -102 -40t-41 -100q0 -58 41 -99t102 -41q59 0 101 41t42 99q0 59 -41.5 99.5t-101.5 40.5z" />
    <glyph glyph-name="glyph235" horiz-adv-x="593" 
d="M236 327l-241 388h122l150 -243l30 -57q14 35 30 60l154 240h116l-246 -388v-327h-115v327zM321 918h110l-143 -133h-60z" />
    <glyph glyph-name="glyph236" horiz-adv-x="471" 
d="M44 -218l127 258l-170 423h117l85 -240q6 -17 13 -45.5t9 -45.5q5 18 11 32.5l22 51.5l114 247h115l-334 -681h-109zM260 666h110l-143 -133h-60z" />
    <glyph glyph-name="glyph237" horiz-adv-x="532" 
d="M191 0h-109v715h109v-147h44h12q91 0 127 -8.5t85.5 -44.5t49.5 -144q0 -52 -19 -94t-52.5 -66t-72.5 -30.5t-107 -6.5h-23h-44v-174zM228 269q89 0 125 18t36 77q0 61 -37.5 82.5t-123.5 21.5h-37v-199h37z" />
    <glyph glyph-name="glyph238" horiz-adv-x="582" 
d="M179 -218h-106v975h106v-370q39 92 157 92q92 0 149.5 -68t57.5 -179q0 -118 -56.5 -184.5t-154.5 -66.5q-96 0 -153 79v-278zM306 75q60 0 93 40t33 114t-34 115t-95 41q-60 0 -93.5 -39.5t-33.5 -112.5t36.5 -115.5t93.5 -42.5z" />
    <glyph glyph-name="glyph239" horiz-adv-x="833" 
d="M709 340v-83h-585v83h585z" />
    <glyph glyph-name="glyph240" horiz-adv-x="833" 
d="M421 356l225 224l57 -57l-224 -225l224 -224l-57 -58l-225 225l-224 -225l-57 58l224 224l-224 225l57 57z" />
    <glyph glyph-name="glyph241" horiz-adv-x="399" 
d="M175 651h-98l30 55h137v-425h-69v370z" />
    <glyph glyph-name="glyph242" horiz-adv-x="399" 
d="M330 281h-316l176 192q63 69 63 113q0 32 -20 50t-57 18q-33 0 -55 -18t-22 -48h-74q0 57 42.5 91.5t114.5 34.5q69 0 108 -31t39 -88q0 -46 -27.5 -87t-90.5 -108l-61 -63h180v-56z" />
    <glyph glyph-name="glyph243" horiz-adv-x="399" 
d="M104 396v-4q0 -29 22 -47t60 -18q90 0 90 76q0 77 -96 77h-14v56l14 -1q84 0 84 63q0 28 -19 44t-52 16q-34 0 -54 -15t-20 -42h-69q0 54 38.5 83.5t106.5 29.5q66 0 103.5 -30.5t37.5 -83.5q0 -39 -21.5 -64.5t-59.5 -30.5q92 -16 92 -111q0 -57 -43.5 -90.5
t-120.5 -33.5q-69 0 -111 34t-42 92h74z" />
    <glyph glyph-name="glyph244" horiz-adv-x="928" 
d="M166 654h-93l28 51h132v-396h-67v345zM647 722h67l-433 -741h-67zM863 0h-302l168 179q61 66 61 105q0 30 -19.5 47t-54.5 17q-67 0 -74 -62h-70q0 54 40.5 86t109.5 32q66 0 103 -29t37 -82q0 -44 -25.5 -81.5t-87.5 -100.5l-57 -59h171v-52z" />
    <glyph glyph-name="glyph245" horiz-adv-x="928" 
d="M166 654h-93l28 51h132v-396h-67v345zM647 722h67l-433 -741h-67zM772 81h-216l262 323h21v-277h55v-46h-55v-81h-67v81zM660 127h112v104l2 39z" />
    <glyph glyph-name="glyph246" horiz-adv-x="928" 
d="M99 416q0 -30 21 -47t58 -17q41 0 63 18t22 53q0 72 -91 72l-14 -1v53l13 -1q81 0 81 59q0 26 -18 41t-49 15q-72 0 -72 -54h-66q0 50 37 78t102 28q63 0 99 -28t36 -78q0 -37 -20.5 -60.5t-57.5 -28.5q88 -14 88 -104q0 -52 -41.5 -84t-114.5 -32q-65 0 -105.5 32.5
t-40.5 85.5h70zM647 722h67l-433 -741h-67zM772 81h-216l262 323h21v-277h55v-46h-55v-81h-67v81zM660 127h112v104l2 39z" />
  </font>
</defs>
</svg>
