<?xml version="1.0" standalone="no"?>
<!DOCTYPE svg PUBLIC "-//W3C//DTD SVG 1.1//EN" "http://www.w3.org/Graphics/SVG/1.1/DTD/svg11.dtd" >
<svg xmlns="http://www.w3.org/2000/svg" width="100%" height="100%">
<metadata>
Created by FontForge 20090622 at Sun Apr 21 09:04:50 2013
 By fontface
Copyright (c) 1990-1997 ParaGraph. All Rights Reserved. ITC New Baskerville is a registered trade mark of International Typeface Corporation.
</metadata>
<defs>
<font id="NewBaskervilleExpOdC-Italic" horiz-adv-x="1085" >
  <font-face 
    font-family="NewBaskervilleExpOdC"
    font-weight="400"
    font-style="italic"
    font-stretch="normal"
    units-per-em="2048"
    panose-1="0 0 5 0 0 0 0 0 0 0"
    ascent="1468"
    descent="-580"
    x-height="897"
    cap-height="1368"
    bbox="-508 -580 2836 1878"
    underline-thickness="102"
    underline-position="-102"
    slope="-15"
    unicode-range="U+0020-U+F739"
  />
<missing-glyph horiz-adv-x="477" 
 />
    <glyph glyph-name=".notdef" horiz-adv-x="477" 
 />
    <glyph glyph-name=".null" horiz-adv-x="0" 
 />
    <glyph glyph-name="nonmarkingreturn" horiz-adv-x="682" 
 />
    <glyph glyph-name="space" unicode=" " horiz-adv-x="477" 
 />
    <glyph glyph-name="space" unicode="&#xa0;" horiz-adv-x="477" 
 />
    <glyph glyph-name="exclam" unicode="!" horiz-adv-x="616" 
d="M461 422l-49 14l129 742q1 8 5 33t6 35t6 32t8.5 32t11 27t14 25.5t18 18t23.5 13t29 3.5q15 0 29.5 -3t32.5 -11.5t29 -28.5t11 -49q0 -13 -1 -25.5t-5 -29.5l-7.5 -31t-11.5 -39.5t-14.5 -44l-19.5 -55l-23 -62.5l-28.5 -77.5l-32.5 -88.5zM233 92q0 46 34.5 80.5
t80.5 34.5t80.5 -34.5t34.5 -80.5t-34.5 -80.5t-80.5 -34.5t-80.5 34.5t-34.5 80.5z" />
    <glyph glyph-name="quotedbl" unicode="&#x22;" horiz-adv-x="917" 
d="M535 819h-70l104 549h156zM840 819h-70l104 549h156z" />
    <glyph glyph-name="numbersign" unicode="#" horiz-adv-x="1064" 
d="M870 0h-114l67 444h-268l-70 -444h-114l69 444h-213v113h230l43 281h-224v112h242l64 420h114l-63 -420h268l64 420h114l-63 -420h192v-112h-211l-43 -281h205v-113h-221zM840 557l43 281h-269l-43 -281h269z" />
    <glyph glyph-name="dollar" unicode="$" 
d="M707 1378l38 164h72l-39 -160h31q71 0 129 -12l41 172h63l-41 -184q90 -27 153 -82.5t63 -114.5q0 -37 -23 -53t-51 -16q-24 0 -41 10.5t-25 30t-10.5 30.5t-5.5 29q-7 54 -17 70q-15 25 -55 36l-123 -522q152 -88 213.5 -186.5t61.5 -212.5q0 -111 -56 -202t-162 -146
t-243 -56l-66 -282h-61l65 282q-95 7 -159 25l-74 -307h-63l73 323q-91 32 -165 91t-74 122q0 40 22.5 63t52.5 23q34 0 59 -23t29 -67q0 -4 2 -28.5t3.5 -32t7.5 -26.5t14.5 -28t24 -19.5t37.5 -16.5l157 680q-88 45 -145.5 124.5t-57.5 180.5q0 124 94.5 217.5
t250.5 103.5zM625 717l-156 -666q57 -20 158 -26l145 608zM604 932l92 391q-85 -13 -144.5 -67.5t-59.5 -137.5q0 -65 33.5 -112t78.5 -74zM825 598l-133 -569q136 6 217.5 98t81.5 201q0 80 -46.5 151t-119.5 119zM664 893l145 -82l117 506q-50 16 -123 16q-15 0 -39 -4z
" />
    <glyph glyph-name="percent" unicode="%" horiz-adv-x="2172" 
d="M1790 1481l-948 -1598h-86l835 1413q-142 -73 -221 -73q-108 0 -188 30q26 -61 26 -145q0 -132 -52 -247t-139 -182t-186 -67q-44 0 -88 12t-85.5 38.5t-73 63.5t-51 91t-19.5 117q0 85 32.5 172t87.5 157t136.5 114t171.5 44q52 0 90.5 -15.5t100.5 -53.5q44 -26 67 -38
t63 -24t80 -12q100 0 202.5 59.5t176.5 143.5h68zM1141 1139q0 109 -48 168t-114 59q-82 0 -155 -78t-113.5 -190t-40.5 -219q0 -101 48 -154t113 -53q83 0 156 71.5t113.5 179t40.5 216.5zM2036 463q0 -69 -14.5 -140t-45.5 -140t-74.5 -122.5t-107.5 -86.5t-139 -33
q-128 0 -221 87.5t-93 245.5q0 110 54 219t153.5 183t216.5 74q112 0 191.5 -74.5t79.5 -212.5zM1968 465q0 109 -49 169t-117 60q-80 0 -152 -77.5t-112.5 -190t-40.5 -219.5q0 -98 45 -152.5t107 -54.5q55 0 111 34t102.5 92.5t76 148t29.5 190.5z" />
    <glyph glyph-name="ampersand" unicode="&#x26;" horiz-adv-x="2027" 
d="M1698 795l-64 4q24 -40 33 -66q27 -68 27 -131q0 -69 -25 -149t-84.5 -166t-144.5 -155t-218.5 -114t-293.5 -45q-185 0 -331 60.5t-228 172t-82 255.5q0 157 93.5 298t244.5 222q-21 48 -21 100q0 103 59 194t150.5 143t187.5 52q97 0 141 -31t44 -67q0 -39 -24.5 -61.5
t-55.5 -22.5q-24 0 -55 23q-8 6 -26 22.5t-29 24.5t-33 16t-48 8q-93 0 -165 -71.5t-72 -173.5q0 -67 41 -119q49 14 80 14q60 0 92.5 -26t32.5 -62q0 -41 -36.5 -73.5t-90.5 -32.5q-39 0 -74.5 20t-52 38.5t-27.5 37.5q-100 -45 -161.5 -132t-61.5 -200q0 -87 37.5 -167
t110 -145.5t193.5 -105t273 -39.5q135 0 250.5 41t190 108t116 149t41.5 167q0 100 -62 166t-184 66q-127 0 -192.5 -45.5t-65.5 -98.5q0 -28 12 -41.5t31 -13.5q8 0 50 10q5 1 14 5t18 6t19 2q35 0 58.5 -20.5t23.5 -51.5q0 -46 -41.5 -82.5t-98.5 -36.5q-60 0 -102.5 42.5
t-42.5 117.5q0 61 26.5 120.5t73.5 107t117 77t150 29.5q61 0 270 -19q64 -6 129 -6q137 0 216 72t79 158q0 55 -26.5 93t-67.5 38q-30 0 -45 -13q-8 -7 -31 -36.5t-47.5 -44.5t-61.5 -15q-30 0 -49.5 17t-19.5 44q0 51 54.5 97.5t141.5 46.5q82 0 144.5 -57t62.5 -158
q0 -115 -68.5 -208.5t-180.5 -142t-238 -40.5z" />
    <glyph glyph-name="quotesingle" unicode="'" horiz-adv-x="567" 
d="M512 817h-74l105 549h159z" />
    <glyph glyph-name="parenleft" unicode="(" horiz-adv-x="714" 
d="M831 1419l35 -35q-483 -455 -483 -1191q0 -171 31 -319.5t108 -291.5l-41 -26q-119 199 -176 413.5t-57 401.5q0 113 25.5 225.5t64.5 203t95.5 179.5t107.5 152.5t112.5 126t99.5 96z" />
    <glyph glyph-name="parenright" unicode=")" horiz-adv-x="714" 
d="M170 -444l-35 34q42 39 80 80.5t88.5 107.5t92.5 136t84.5 166.5t71.5 199t47.5 233t18.5 269.5q0 354 -139 611l41 26q119 -199 176.5 -414t57.5 -401q0 -139 -38.5 -276.5t-97.5 -246t-140.5 -213t-154.5 -176t-153 -136.5z" />
    <glyph glyph-name="asterisk" unicode="*" horiz-adv-x="1013" 
d="M725 879l12 45q4 16 4 24q0 16 -34 6l-45 -12q-50 -13 -117 -72q-40 -35 -74 -45q-46 -12 -76 6t-39 50q-6 20 0 39q8 28 37.5 47t69.5 18q24 -1 61.5 -7.5t57.5 -7.5t69 7l47 12q25 6 25 15q0 12 -14 26l-33 33q-17 17 -23 22.5t-20 13t-39 17.5l-34 12.5t-27.5 9.5
t-16.5 7q-37 19 -55.5 51t-11.5 64q7 34 37 49t67 4q24 -7 41 -26t23.5 -33t17.5 -44q3 -9 10 -27l9.5 -24.5t8 -18.5t10 -18.5t11.5 -15t16 -16.5l35 -33q17 -17 27 -17q5 0 14 27l12 45q10 41 8.5 63t-12.5 76q-15 75 10 116.5t58 41.5q90 0 90 -68q0 -51 -22 -88
q-15 -24 -36 -45.5t-35.5 -43.5t-25.5 -62l-12 -45q0 -2 -1.5 -7t-2 -8.5t-1 -7.5t0.5 -6t4 -2q23 0 31 2l45 10q48 10 119 72q53 49 120 49q52 0 66 -57q6 -22 0 -41q-9 -32 -43 -50.5t-74 -15.5q-23 1 -59 8.5t-53.5 8t-65.5 -7.5l-47 -13q-27 -5 -27 -14q0 -8 17 -25
l32 -34q20 -21 48 -36t66.5 -28.5t47.5 -17.5q51 -22 64 -66q11 -34 -3.5 -64.5t-47.5 -39.5q-39 -11 -75.5 15.5t-58.5 88.5q-1 4 -7 21t-9.5 26t-11 24.5t-16.5 28t-21 23.5l-35 33q-14 14 -25 14q-4 0 -7 -2.5t-4 -5t-2.5 -9t-2.5 -8.5l-12 -47q-12 -44 -4 -96
q14 -72 14 -82q0 -35 -17 -71.5t-51 -45.5q-18 -6 -40 0q-26 7 -41 26.5t-15 39.5q0 62 47 121q41 48 52 66t20 53z" />
    <glyph glyph-name="plus" unicode="+" horiz-adv-x="1087" 
d="M209 741h420v396h88v-396h422v-86h-422v-395h-88v395h-420v86z" />
    <glyph glyph-name="comma" unicode="," horiz-adv-x="495" 
d="M115 -319l-21 45q31 18 63 41t71.5 57.5t60.5 74t14 74.5l-2 11q-30 -19 -55 -19q-49 0 -76 34.5t-27 74.5q0 44 35 74t80 30q56 0 96.5 -46.5t40.5 -119.5q0 -90 -70.5 -176t-209.5 -155z" />
    <glyph glyph-name="hyphen" unicode="-" horiz-adv-x="380" 
d="M150 504h348l-29 -111h-348z" />
    <glyph glyph-name="hyphen" unicode="&#xad;" horiz-adv-x="380" 
d="M150 504h348l-29 -111h-348z" />
    <glyph glyph-name="period" unicode="." horiz-adv-x="579" 
d="M205 92q0 46 34 80.5t80 34.5t80.5 -34.5t34.5 -80.5t-34.5 -80.5t-80.5 -34.5t-80 34.5t-34 80.5z" />
    <glyph glyph-name="slash" unicode="/" horiz-adv-x="1130" 
d="M1241 1386h96l-1159 -1796h-92z" />
    <glyph glyph-name="colon" unicode=":" horiz-adv-x="589" 
d="M205 92q0 46 34 80.5t80 34.5t80.5 -34.5t34.5 -80.5t-34.5 -80.5t-80.5 -34.5t-80 34.5t-34 80.5zM389 782q0 46 34.5 80.5t80.5 34.5t80 -34.5t34 -80.5t-34 -80t-80 -34t-80.5 34t-34.5 80z" />
    <glyph glyph-name="semicolon" unicode=";" horiz-adv-x="585" 
d="M88 -336l-14 45q76 33 129 70.5t79.5 76t38.5 71t15 69.5l-4 -2q-24 -14 -51 -14q-42 0 -72.5 31.5t-30.5 70.5q0 51 34.5 85t84.5 34q57 0 97 -45t40 -117q0 -107 -90 -212.5t-256 -162.5zM385 784q0 46 34.5 80.5t80.5 34.5t80 -34.5t34 -80.5t-34 -80t-80 -34
t-80.5 34t-34.5 80z" />
    <glyph glyph-name="less" unicode="&#x3c;" horiz-adv-x="1064" 
d="M416 455l612 -283v-111l-737 342v103l737 342v-111z" />
    <glyph glyph-name="equal" unicode="=" horiz-adv-x="1087" 
d="M209 885h930v-84h-930v84zM209 596h930v-84h-930v84z" />
    <glyph glyph-name="greater" unicode="&#x3e;" horiz-adv-x="1064" 
d="M903 455l-612 282v111l737 -342v-103l-737 -342v111z" />
    <glyph glyph-name="question" unicode="?" horiz-adv-x="907" 
d="M805 500l33 -35q-86 -90 -185 -90q-75 0 -116 50.5t-41 111.5q0 106 102 208q29 29 79.5 69.5l86.5 71.5t73 71t56.5 87.5t19.5 100.5q0 84 -54.5 141t-137.5 57q-80 0 -144.5 -42.5t-64.5 -116.5q0 -63 37 -103.5t80 -40.5q18 0 28.5 7.5t10.5 15.5q0 7 -5 15t-13 18
l-9 10q-12 15 -12 43t20 49t49 21q34 0 59 -26t25 -67q0 -52 -45.5 -94.5t-111.5 -42.5t-120 48t-54 130q0 98 79 166t205 68q72 0 133 -29t99 -74.5t59 -98.5t21 -105q0 -57 -20 -110t-60.5 -103t-83.5 -90.5t-107 -90.5q-4 -4 -21.5 -17.5l-24 -18.5l-22.5 -18t-23 -20
l-20 -19.5t-19 -21l-15 -20.5t-13 -21.5t-7 -21t-3 -22.5q0 -26 18.5 -47t49.5 -21q32 0 60.5 16.5t68.5 51.5zM453 92q0 46 34 80.5t80 34.5t80.5 -34.5t34.5 -80.5t-34.5 -80.5t-80.5 -34.5t-80 34.5t-34 80.5z" />
    <glyph glyph-name="at" unicode="@" horiz-adv-x="1914" 
d="M1661 1090l-141 -488q-50 -175 -50 -225q0 -45 21 -72.5t46.5 -36t55.5 -8.5q79 0 154.5 55.5t129 141.5t86 192t32.5 205q0 137 -55 255.5t-152.5 203.5t-237.5 133.5t-305 48.5q-175 0 -331.5 -72.5t-266.5 -193t-174.5 -282t-64.5 -335.5q0 -120 29 -229.5
t92.5 -207.5t155 -169.5t225 -113.5t294.5 -42q370 0 664 220l26 -33q-300 -232 -686 -232q-180 0 -332.5 47.5t-259.5 129.5t-182 192t-111 234t-36 256q0 151 51.5 289t143 245t211.5 186.5t262.5 121.5t289.5 42q236 0 418 -90t278.5 -244.5t96.5 -347.5
q0 -169 -61.5 -321.5t-170 -247t-233.5 -94.5q-101 0 -167 58.5t-69 158.5q-52 -99 -134 -161t-175 -62q-117 0 -198.5 98.5t-81.5 249.5q0 112 48 218t122 179t163 117.5t170 44.5q40 0 73.5 -14t54.5 -34t37 -48t23.5 -50.5t12.5 -46.5l51 179h158zM1415 854q0 99 -49 153
t-113 54q-72 0 -140.5 -72.5t-113 -173.5t-71.5 -200t-27 -160q0 -87 43.5 -140t110.5 -53q102 0 187 97t129 231.5t44 263.5z" />
    <glyph glyph-name="A" unicode="A" horiz-adv-x="1331" 
d="M995 1389l176 -1184q11 -82 41.5 -120t104.5 -42l35 -2l-13 -45q-117 6 -262 6q-14 0 -284 -6l12 45l35 2q27 2 46 5.5t42.5 12.5t36 27.5t12.5 46.5q0 72 -8 129l-45 299h-404q-40 -64 -122.5 -228.5t-82.5 -209.5q0 -79 113 -82l51 -2l-10 -45l-223 6l-228 -6l13 45
q53 9 94 32t82 73t74.5 105.5t87.5 156.5l303.5 548t261.5 433h61zM557 631h356l-73 502l-106.5 -183.5l-95 -164.5z" />
    <glyph glyph-name="B" unicode="B" horiz-adv-x="1245" 
d="M66 -4l12 45l76 4q31 2 55 13.5t39.5 27.5t29 47t21.5 56.5t20 70.5l220 815q32 119 32 166q0 25 -7.5 41.5t-22 23.5t-26 9.5t-28.5 3.5l-94 4l13 45l307 -6l180 2q106 1 187.5 -16.5t130 -46t79.5 -67.5t42 -76.5t11 -78.5q0 -49 -14 -95t-46.5 -89.5t-80 -77
t-119 -56.5t-159.5 -30q50 -6 96.5 -19.5t95 -40.5t84 -63t58 -91t22.5 -122q0 -47 -11 -91t-37 -92t-75.5 -86.5t-119.5 -69.5t-177.5 -47t-241.5 -13l-270 6q-68 2 -282 -6zM651 760h84q80 0 144.5 13t107 34t74 52t48 60t26 66.5t12 64t2.5 58.5q0 37 -11 70.5t-37 67
t-79.5 53.5t-128.5 20q-63 0 -82.5 -18.5t-40.5 -92.5zM639 713l-111 -406q-28 -115 -28 -164q0 -44 38.5 -72t116.5 -28q75 0 137.5 17t104.5 44t74.5 65t51 76.5t30 82t15 77t3.5 66.5q0 242 -336 242h-96z" />
    <glyph glyph-name="C" unicode="C" horiz-adv-x="1290" 
d="M1481 1360l-78 -387h-43q-3 180 -71 276.5t-216 96.5q-102 0 -208.5 -67t-194.5 -183t-144.5 -291t-56.5 -371q0 -199 91 -306.5t259 -107.5q152 0 260.5 84.5t200.5 262.5l35 67h43l-109 -436h-22l-27 106q-189 -131 -381 -131q-174 0 -260 39q-131 56 -216 184.5
t-85 305.5q0 124 38.5 252t110.5 241t166.5 202.5t217 141.5t251.5 52q173 0 347 -107l73 76h19z" />
    <glyph glyph-name="D" unicode="D" horiz-adv-x="1417" 
d="M391 1323l15 45l307 -6l190 6q150 4 272 -39.5t200 -123.5t119.5 -187t41.5 -232q0 -171 -86 -348q-226 -452 -774 -442l-328 6q-60 2 -282 -6l12 45l76 4q31 2 55 13.5t39.5 27.5t29 47t21.5 56.5t20 70.5l220 815q32 119 32 166q0 25 -7.5 41.5t-22 23.5t-26 9.5
t-28.5 3.5zM784 1262l-239 -902l-16.5 -57t-14 -50.5t-7 -32.5t-3.5 -34q0 -40 14.5 -69t32.5 -42.5t45 -21.5t41 -9t31 -1q247 0 383 117q128 110 204 333t76 410q0 403 -434 414h-29q-37 -2 -53 -8t-20.5 -14t-10.5 -33z" />
    <glyph glyph-name="E" unicode="E" horiz-adv-x="1275" 
d="M393 1323l13 45q138 -6 284 -6q86 0 308.5 2.5t390.5 3.5l30 -313h-41q-9 42 -22.5 76.5t-27.5 60t-35.5 45.5t-39.5 33t-47 21.5t-49.5 13.5t-56.5 7t-58 2.5t-63 0.5h-123l-57 -2l-148 -549h70q61 0 96.5 2.5t79 14.5t70.5 34.5t53.5 64.5t44.5 103h41l-109 -532h-45
l6 98q3 47 -11 79.5t-35 49.5t-59.5 26t-68.5 11t-79 2h-66l-123 -455q-18 -65 -18 -96q0 -56 47 -84.5t178 -32.5h63q37 0 57.5 1t56 4t57.5 8.5t54.5 16t54.5 25.5t50.5 38t50 52.5t45 69t43.5 88.5h48l-97 -356l-375 4q-316 4 -462 4q-127 0 -303 -8l12 45l45 4
q38 4 68 20t50.5 38.5t39 60t30 72t25.5 86.5l211 784q7 26 11.5 48t6.5 42t2.5 28.5t0 27.5t-0.5 20q0 14 -6 23t-19 13t-23 5.5t-28.5 2t-25.5 1.5z" />
    <glyph glyph-name="F" unicode="F" horiz-adv-x="1196" 
d="M653 768h70q34 0 50 0.5t44.5 2t43.5 5.5t38.5 11t38 18t33.5 27.5t32.5 38t28.5 50t29 64.5h41l-101 -532h-40l2 69q1 37 -0.5 61t-9.5 49t-24 39.5t-42.5 27t-67.5 17.5t-98 5h-80l-117 -432q-35 -129 -35 -166q0 -73 86 -78l93 -4l-13 -45l-307 6q-64 2 -282 -6l12 45
l76 4q31 2 55 13.5t39.5 27.5t29 47t21.5 56.5t20 70.5l220 815q32 119 32 166q0 25 -7.5 41.5t-22 23.5t-26 9.5t-28.5 3.5l-94 4l13 45l307 -6l653 6l35 -328h-41q-19 88 -51 143t-85 84t-114.5 38.5t-157.5 9.5q-77 0 -155 -10z" />
    <glyph glyph-name="G" unicode="G" horiz-adv-x="1419" 
d="M1511 1343l-81 -385h-39l-2 21q-4 37 -7.5 63t-14 67t-23.5 70t-37 62t-54.5 53.5t-75.5 34.5t-100 14q-61 0 -123.5 -22.5t-128 -72t-123 -121t-108.5 -176.5t-84 -232q-41 -148 -41 -277q0 -113 28.5 -197t79 -132t112 -70.5t134.5 -22.5q119 0 214 57.5t126 166.5
l25 86q14 44 14 94q0 19 -7.5 33t-15 21t-23 11.5t-21 5t-19.5 1.5l-94 4l12 45l307 -6q38 -1 252 6l-12 -45l-57 -4q-53 -4 -76 -39.5t-45 -118.5l-27 -100q-11 -42 -30 -158l-46 2q-78 3 -233 -53l-31.5 -11.5t-33 -11.5l-31 -10t-35.5 -10t-35 -6.5t-42 -5t-44 -1.5
q-81 0 -157.5 17.5t-150 58t-128 100t-88 151t-33.5 204.5q0 159 62 318t167 285t256.5 205t317.5 79q202 0 364 -129l62 81h24z" />
    <glyph glyph-name="H" unicode="H" horiz-adv-x="1615" 
d="M1561 41l-13 -45l-303 6q-118 3 -287 -6l13 45l76 4q63 3 98 49t67 166l109 406h-696l-101 -377q-1 -3 -7 -28l-12 -48.5t-11 -51.5t-5 -44q0 -12 1.5 -19.5t8 -21t26 -22t50.5 -9.5l93 -4l-13 -45l-303 6q-117 3 -286 -6l12 45l76 4q63 3 98 49t67 166l218 815
q32 118 32 172q0 11 -1.5 19t-8.5 21.5t-26 22t-48 9.5l-94 4l12 45l304 -6q117 -3 286 6l-12 -45l-74 -4q-58 -3 -96.5 -46.5t-71.5 -168.5l-98 -373h696l93 344q32 114 32 172q0 11 -1.5 19t-8.5 21.5t-26 22t-48 9.5l-94 4l12 45l303 -6q118 -3 287 6l-12 -45l-74 -4
q-58 -3 -96.5 -46.5t-71.5 -168.5l-215 -815q-1 -3 -7 -28l-12 -48.5t-11 -51.5t-5 -44q0 -12 1.5 -19.5t8 -21t26 -22t50.5 -9.5z" />
    <glyph glyph-name="I" unicode="I" horiz-adv-x="692" 
d="M381 1323l12 45l307 -6q65 -2 283 6l-12 -45l-74 -4q-31 -2 -55 -13.5t-40 -28t-30 -46.5t-22.5 -56.5t-20.5 -70.5l-217 -815q-35 -132 -35 -166q0 -73 86 -78l92 -4l-12 -45l-307 6q-65 2 -283 -6l13 45l75 4q38 2 65 17t46 47.5t29.5 63.5t25.5 87l219 815
q33 120 33 166q0 25 -7.5 41.5t-22 23.5t-26 9.5t-28.5 3.5z" />
    <glyph glyph-name="J" unicode="J" horiz-adv-x="610" 
d="M381 1323l12 45l307 -6q65 -2 283 6l-12 -45l-74 -4q-39 -2 -66 -17t-46 -46.5t-30.5 -64t-25.5 -87.5l-256 -959q-19 -73 -34 -125t-36.5 -117.5t-41 -111.5t-46.5 -98.5t-55.5 -88t-65.5 -70.5t-78 -55.5t-92 -33t-108 -12.5q-120 0 -181 44.5t-61 102.5q0 34 24.5 60
t59.5 26q34 0 57 -24t21 -50l-2 -43q-1 -29 23 -49t61 -20q114 0 192 149q58 109 136 396l30 114l250 936q33 125 33 166q0 25 -7.5 41.5t-22 23.5t-26 9.5t-28.5 3.5z" />
    <glyph glyph-name="K" unicode="K" horiz-adv-x="1376" 
d="M393 1323l13 45l307 -6q64 -2 282 6l-12 -45l-74 -4q-39 -2 -66 -17t-46 -46.5t-30.5 -64t-25.5 -87.5l-96 -363q74 42 210 128.5t288 204t168 171.5q7 20 0 37q-14 34 -105 39l-45 2l13 45l221 -6q105 -3 237 6l-10 -45q-67 -10 -130.5 -44t-129.5 -89l-134.5 -115.5
t-174.5 -142.5t-219 -152l331 -495l38.5 -59l39 -59.5t39 -48t49 -42.5t57 -24t74.5 -11h11l-13 -45q-170 9 -303 6l-283 -6l13 45l57 2q35 2 62.5 17.5t27.5 37.5q0 47 -67 148l-287 440l-59 -37l-97 -360q-35 -127 -35 -166q0 -73 86 -78l93 -4l-13 -45l-307 6
q-64 2 -282 -6l12 45l76 4q31 2 55 13.5t39.5 27.5t29 47t21.5 56.5t20 70.5l220 815q32 119 32 166q0 25 -7.5 41.5t-22 23.5t-26 9.5t-28.5 3.5z" />
    <glyph glyph-name="L" unicode="L" horiz-adv-x="1245" 
d="M1321 344l-94 -348l-879 6q-156 0 -282 -6l12 45l76 4q31 2 55 13.5t39.5 27.5t29 47t21.5 56.5t20 70.5l220 815q32 119 32 166q0 25 -7.5 41.5t-22 23.5t-26 9.5t-28.5 3.5l-94 4l13 45l307 -6q64 -2 282 6l-12 -45l-74 -4q-39 -2 -66 -17t-46 -46.5t-30.5 -64
t-25.5 -87.5l-217 -815q-26 -98 -26 -127q0 -115 174 -115q106 0 180.5 6.5t145.5 25t120 51.5t89 86t67 128h47z" />
    <glyph glyph-name="M" unicode="M" horiz-adv-x="1832" 
d="M1034 295l643 1073l156 -6q106 -4 223 6l-12 -45l-43 -4q-75 -7 -95 -18q-35 -18 -54 -88q-13 -44 -29 -140l-131 -772q-19 -116 -19 -151q0 -58 32 -80.5t73 -24.5l75 -4l-12 -45q-168 9 -293 6l-284 -6l12 45l61 4q23 2 41.5 6.5t33 14t25 18t19 25.5l13.5 27t10 32.5
l7.5 33.5t6.5 37.5t6 36.5l168 965l-743 -1241h-29l-225 1251l-224 -827q-55 -209 -55 -277q0 -37 20 -62t47.5 -33t57.5 -12t51 1l-10 -45l-258 6l-227 -6l12 45q122 1 181 79q40 53 83 200l13 48l22 74l203 686q26 86 26 119q0 42 -30 57t-90 17l-52 2l13 45
q141 -9 231 -6l154 6z" />
    <glyph glyph-name="N" unicode="N" horiz-adv-x="1460" 
d="M1260 256l188 705q45 177 45 235q0 66 -33.5 92t-97.5 31l-47 4l12 45q140 -8 221 -8q92 0 236 8l-12 -45l-56 -6q-42 -5 -71.5 -25.5t-49.5 -59.5t-32.5 -78t-29.5 -101l-9 -35l-279 -1047h-47l-577 1151l-168 -626q-72 -265 -72 -336q0 -34 11 -56.5t33 -34t43.5 -16.5
t53.5 -8l45 -4l-12 -45q-135 6 -170 6h-90h-80q-26 0 -149 -6l12 45l45 6q108 15 161 111q32 57 74 215l9 35l211 784q-35 78 -82 106t-138 25l13 45q103 -10 194 -6l142 6z" />
    <glyph glyph-name="O" unicode="O" horiz-adv-x="1437" 
d="M1556 872q0 -127 -38.5 -257t-111.5 -244t-169 -204t-221 -142t-258 -52q-100 0 -188 32t-159 95t-112 167t-41 237q0 129 35 249.5t95 216.5t139.5 176t169.5 133t185 82.5t185 29.5q145 0 257.5 -70.5t172 -188t59.5 -260.5zM1362 967q0 94 -24.5 168.5t-66 118.5
t-91 66.5t-103.5 22.5q-120 0 -235 -90.5t-196 -229t-131 -305.5t-50 -317q0 -91 20 -161t50 -110.5t70.5 -66.5t76 -34.5t72.5 -8.5q98 0 192.5 58t168 156t130 219.5t87 255.5t30.5 258z" />
    <glyph glyph-name="P" unicode="P" horiz-adv-x="1210" 
d="M391 1323l12 45l517 -4q180 -3 279 -35q216 -70 216 -280q0 -56 -17 -110t-60.5 -110t-110.5 -97.5t-176.5 -68t-247.5 -26.5q-106 0 -182 10l-97 -358q-2 -10 -11.5 -45t-12.5 -48.5t-7 -36t-4 -36.5q0 -73 86 -78l103 -4l-12 -45l-318 6q-60 2 -282 -6l12 45l76 4
q31 2 55 13.5t39.5 27.5t29 47t21.5 56.5t20 70.5l218 815q32 121 32 166q0 25 -7.5 41.5t-22 23.5t-26 9.5t-28.5 3.5zM778 1241l-145 -543q56 -10 135 -10q108 0 194.5 31.5t140.5 84t82.5 118t28.5 137.5q0 50 -14 93t-45 80.5t-89.5 59t-139.5 21.5q-15 0 -38 0.5
t-31.5 0.5t-23 -1.5t-19.5 -6t-13.5 -13t-13 -21t-9.5 -31.5z" />
    <glyph glyph-name="Q" unicode="Q" horiz-adv-x="1460" 
d="M565 -139l64 2q166 5 456 -133q267 -125 418 -125q47 0 97.5 19t78.5 57q17 22 23 22q4 0 8 -8v-12q-17 -118 -100.5 -188t-206.5 -70q-49 0 -95 11t-79.5 24t-79.5 44t-71.5 51l-80.5 64l-76 60t-70.5 50t-81 46.5t-79.5 26t-94 12.5q-81 0 -195 -52q-15 -7 -34 -17.5
t-30.5 -15.5t-21.5 -5q-16 0 -29.5 13t-13.5 34q0 19 14.5 31.5t46 23.5l69 23t96 36.5t114.5 57.5l54 30q-81 15 -147 48t-107.5 72.5t-72.5 90t-46 92.5t-23.5 88.5t-10 69.5t-1.5 43q0 106 27.5 216t77 211t123 190.5t161 155t196.5 103.5t224 38t209 -41.5t154 -113
t92 -163.5t32 -196q0 -85 -19.5 -177.5t-58.5 -191t-105 -188.5t-151.5 -163.5t-205.5 -122.5t-260 -61zM1360 967q0 73 -13 132t-33.5 97.5t-49 67t-54.5 43t-56 23.5t-48 11t-35 2q-122 0 -236.5 -89t-194 -226.5t-127.5 -304t-48 -320.5q0 -90 19.5 -160t49 -111
t70 -67.5t78 -35.5t76.5 -9q84 0 165 41.5t146 112t120 165t92.5 199t58 215.5t20.5 214z" />
    <glyph glyph-name="R" unicode="R" horiz-adv-x="1335" 
d="M393 1323l13 45q113 -6 208.5 -6t186 3t135.5 3q88 0 157 -6t138 -24.5t114.5 -49.5t74 -83t28.5 -122q0 -60 -18 -111t-45.5 -87t-69.5 -65.5t-81 -48t-90 -34t-86.5 -23t-78.5 -14.5l-51 -8q47 -11 84.5 -26t65 -35t47.5 -40t33.5 -49.5t22 -52.5t13.5 -60t7.5 -62.5
t4.5 -67.5q2 -34 3 -48.5t4.5 -45t8 -45.5t13 -36.5t20 -31.5t29 -18t39.5 -8q34 0 72.5 21.5t64.5 55.5l39 -24q-50 -68 -124.5 -107t-147.5 -39q-69 0 -116.5 33t-74.5 76q-35 57 -32 141l10 234q2 55 -7.5 92.5t-40.5 69.5t-96 45t-165 8l-78 -4l-103 -379
q-35 -128 -35 -166q0 -73 86 -78l93 -4l-13 -45l-307 6q-64 2 -282 -6l12 45l76 4q31 2 55 13.5t39.5 27.5t29 47t21.5 56.5t20 70.5l220 815q32 119 32 166q0 25 -7.5 41.5t-22 23.5t-26 9.5t-28.5 3.5zM780 1241l-141 -524q606 -8 606 370q0 220 -301 228h-59
q-38 -1 -61.5 -13t-31 -25.5t-12.5 -35.5z" />
    <glyph glyph-name="S" unicode="S" horiz-adv-x="999" 
d="M1155 1348l-76 -355h-35q3 58 -9 115.5t-41 112t-87.5 88.5t-138.5 34q-93 0 -160 -57t-67 -149q0 -47 15.5 -90t51 -87.5t67.5 -76.5t89 -84q6 -5 18 -16l70.5 -64t63 -67t58.5 -80.5t36 -89t16 -107.5q0 -82 -29 -154.5t-82 -128t-134.5 -87.5t-180.5 -32
q-206 0 -373 154l-65 -86h-27l68 389h39l2 -18q15 -135 46 -207q80 -185 296 -185q109 0 181.5 76t72.5 187q0 24 -4.5 48.5t-9.5 44t-18 43.5t-20 38.5t-26.5 38l-27.5 33.5t-32 34l-30 30t-32.5 30.5t-29.5 27.5q-59 54 -92.5 89t-74 88t-59.5 109.5t-19 119.5
q0 147 108 240.5t266 93.5q168 0 326 -117l63 74h27z" />
    <glyph glyph-name="T" unicode="T" horiz-adv-x="1331" 
d="M1102 1317l-275 -1028q-32 -120 -32 -166q0 -73 84 -78l92 -4l-15 -45l-305 6q-60 2 -284 -6l14 45l76 4q38 2 65 17t46 47.5t29.5 63.5t25.5 87l282 1057h-86q-71 0 -127.5 -6.5t-115 -26t-103 -51.5t-83 -85.5t-64.5 -125.5h-41l92 346h1204l-4 -346h-39
q-3 78 -26.5 133.5t-56 86.5t-83.5 48.5t-96.5 22t-108.5 4.5h-65z" />
    <glyph glyph-name="U" unicode="U" horiz-adv-x="1404" 
d="M1274 1323l12 45q117 -6 144 -6h79h82q29 0 152 6l-12 -45l-58 -8q-22 -3 -40.5 -10t-34 -20t-27 -25t-22.5 -34t-18 -37.5t-15.5 -45.5l-13.5 -46.5t-13.5 -52.5t-13.5 -53q-7 -30 -95 -344l-16 -55q-59 -202 -96 -285q-97 -217 -265 -291q-98 -43 -227 -43
q-98 0 -178 21.5t-133 57t-89 83t-51.5 97.5t-15.5 102q0 59 8 102t23 87t20 65l119 467l8 26q37 137 37 166q0 67 -90 72l-92 4l10 45q147 -6 185 -6h98h108q40 0 199 6l-10 -45h-23q-36 0 -65 -5.5t-48.5 -14t-35 -24.5t-24.5 -30t-17.5 -37.5t-12.5 -40.5l-10.5 -45.5
t-11.5 -46.5l-147 -544q-37 -152 -37 -203q0 -129 88.5 -209t240.5 -80q68 0 125 17.5t100 48.5t78.5 75.5t61.5 97t49 115t42 126.5t38 135q6 25 10 38q111 408 111 492q0 56 -23.5 89t-87.5 40z" />
    <glyph glyph-name="V" unicode="V" horiz-adv-x="1208" 
d="M618 -37l-155 1170q-11 93 -27 124q-29 55 -112 62l-50 4l13 45q147 -6 182 -6h98h97q31 0 178 6l-13 -45l-36 -4q-7 -1 -32.5 -3.5t-35 -4t-28.5 -7t-26.5 -13t-14.5 -21t-7 -31.5q0 -45 10 -123l111 -897l4 8q25 50 87.5 154.5l121.5 210.5q213 385 269.5 497.5
t56.5 147.5q0 14 -3.5 25.5t-6.5 19.5t-13 14t-13.5 9t-19 6t-18.5 3.5t-22 2.5t-21 2l-37 4l12 45q117 -6 144 -6h80h73q23 0 140 6l-13 -45q-29 -3 -53 -9.5t-42 -13.5t-36.5 -24l-30 -27.5t-29 -37t-26.5 -41.5l-30 -51.5t-33 -55.5q-49 -76 -207 -365
q-171 -310 -217 -387l-209 -348h-60z" />
    <glyph glyph-name="W" unicode="W" horiz-adv-x="1748" 
d="M1171 1077l-530 -1114h-70l-120 1100l-5 55q-3 40 -6.5 65t-11 51.5t-19.5 41.5t-31.5 27.5t-47.5 16.5t-66 3l12 45q123 -6 144 -6h80h112q42 0 207 6l-12 -45h-23q-81 0 -118 -16.5t-37 -71.5q0 -35 8 -135l86 -836l383 813q61 132 61 174q0 72 -141 72h-20l12 45
q137 -8 223 -6l289 6l-12 -45l-39 -4q-71 -7 -95 -33t-28 -72q-3 -34 0 -67q4 -82 10 -127l82 -772l307 637q1 1 11 23.5l20.5 46.5l25.5 58t27.5 65.5l24 62.5t18 55.5t6.5 38.5q0 13 -3 24t-6.5 18t-12 13l-13.5 9.5t-16 6.5t-15 4t-16 3t-14 2l-55 8l10 45l223 -6
q79 -3 180 6l-8 -45q-106 -37 -166 -120q-36 -49 -102 -194l-8 -18l-37 -82l-459 -946h-65z" />
    <glyph glyph-name="X" unicode="X" horiz-adv-x="1333" 
d="M956 752l222 -488q44 -96 60 -123q65 -100 184 -100h8l-11 -45l-270 6q-125 3 -285 -6l13 45l45 4q61 5 78 15q24 14 24 46q0 46 -68 195l-139 305l-186 -205q-195 -215 -195 -286q0 -15 5 -26.5t15.5 -18.5t20.5 -12t27 -7.5l26.5 -4t27 -2.5t22.5 -1l22 -2l-12 -45
l-252 6l-227 -6l12 45q42 6 78.5 19.5t61.5 28t59 48t53.5 55t64 75l72.5 85.5l276 320l-198 442q-49 107 -93 153.5t-100 51.5l-53 4l12 45q187 -8 281 -6l276 6l-12 -45h-22h-29.5t-27 -1.5t-28 -5t-20.5 -9t-17 -15.5t-5 -24q0 -59 22 -109l156 -350l194 215
q49 54 102.5 129t53.5 113q0 19 -8.5 31t-26 17.5t-34 7t-42.5 1.5h-36l14 45q117 -6 143 -6h80h84q25 0 154 6l-13 -45q-58 -9 -102 -25.5t-78.5 -44t-54.5 -48t-53 -62t-52 -62.5z" />
    <glyph glyph-name="Y" unicode="Y" horiz-adv-x="1208" 
d="M840 590l-76 -281q-37 -136 -37 -180q0 -84 84 -84l92 -4l-12 -45l-307 6q-65 2 -283 -6l12 45l76 4q38 2 65 17t46 47.5t29.5 63.5t25.5 87l96 361l-170 563q-13 42 -29.5 70t-35.5 41t-32.5 17.5t-31.5 6.5l-45 4l12 45l224 -6l288 6l-12 -45h-24q-30 0 -46 -1.5
t-37.5 -7t-31.5 -20.5t-10 -39q0 -43 35 -168l124 -415l29 33q256 293 333 396.5t77 143.5q0 10 -3 20.5t-12 24t-29.5 22t-49.5 9.5l-58 2l12 45l222 -6q84 -3 186 6l-12 -45q-44 -4 -80.5 -25t-55 -41.5t-47.5 -60.5q-82 -109 -292 -360z" />
    <glyph glyph-name="Z" unicode="Z" horiz-adv-x="1165" 
d="M1403 1364l-975 -1317h270q85 0 149 7.5t124.5 27t108 53t90.5 85t81 124.5h39l-133 -348l-999 4l968 1317h-211q-334 0 -491 -262h-41l125 313z" />
    <glyph glyph-name="bracketleft" unicode="[" horiz-adv-x="880" 
d="M702 1386h377l-18 -65h-234l-448 -1665h235l-16 -66h-377z" />
    <glyph glyph-name="backslash" unicode="\" horiz-adv-x="378" 
d="M340 1386l192 -1796h-90l-198 1796h96z" />
    <glyph glyph-name="bracketright" unicode="]" horiz-adv-x="880" 
d="M453 -410h-375l16 66h234l448 1665h-233l16 65h377z" />
    <glyph glyph-name="asciicircum" unicode="^" horiz-adv-x="1060" 
d="M702 1214l-266 -630h-112l327 759h103l327 -759h-112z" />
    <glyph glyph-name="underscore" unicode="_" horiz-adv-x="1028" 
d="M0 -180h1028v-86h-1028v86z" />
    <glyph glyph-name="grave" unicode="`" horiz-adv-x="667" 
d="M850 1038h-51l-181 127l-22 15q-4 2 -19.5 12l-21 13.5t-16.5 13t-15.5 16.5t-9 17.5t-4.5 21.5q0 32 20 52t45 20q48 0 97 -74l16 -25z" />
    <glyph glyph-name="a" unicode="a" horiz-adv-x="1046" 
d="M942 870h141l-49 -141q-90 -258 -133 -410t-43 -233q0 -47 35 -47q76 0 201 283l45 -19q-77 -175 -141.5 -252.5t-157.5 -77.5q-64 0 -91.5 38t-27.5 87q0 40 14 92l6 23l-6 2q-14 -25 -27.5 -46.5t-45 -60.5t-64.5 -66t-82.5 -48t-101.5 -21q-95 0 -161.5 66t-66.5 194
q0 77 27 160t71 155.5t99.5 137t114 111t112.5 69.5q70 31 142 31q62 0 103.5 -29.5t51.5 -81.5h6zM764 848q-67 0 -146.5 -77t-140.5 -184t-102 -221.5t-41 -187.5q0 -149 110 -149q154 0 295 288q46 96 86.5 221.5t40.5 194.5q0 63 -31 89t-71 26z" />
    <glyph glyph-name="b" unicode="b" horiz-adv-x="870" 
d="M342 1319l12 47q269 15 326 20q-65 -173 -121 -356l-104 -336q123 203 278 203q89 0 154 -68t65 -202q0 -125 -56 -247.5t-140.5 -210t-186.5 -142t-192 -54.5q-55 0 -97 23t-65 60t-34 78t-11 83q0 27 6.5 60.5t14 58l19.5 62l17 53.5l228 737q16 53 16 67q0 58 -90 62z
M805 709q0 73 -31.5 104t-66.5 31q-69 0 -144.5 -85t-130.5 -201.5t-91 -235.5t-36 -189q0 -49 23 -83t69 -34q80 0 158 78.5t131 190t86 228t33 196.5z" />
    <glyph glyph-name="c" unicode="c" horiz-adv-x="747" 
d="M756 285l41 -25l-19 -37q-18 -35 -45 -72.5t-67.5 -80t-95 -70t-111.5 -27.5q-162 0 -232 119q-41 65 -41 144q0 128 56 262q46 110 108 191.5t126.5 124.5t123 63t111.5 20q74 0 115.5 -34.5t41.5 -80.5q0 -37 -19.5 -63.5t-51.5 -26.5q-33 0 -55.5 21t-22.5 49
q0 10 2.5 18t8.5 17.5t7 11.5q6 9 6 18q0 10 -12 18.5t-35 8.5q-72 0 -140.5 -79.5t-113 -192.5t-71.5 -229t-27 -197q0 -18 4 -36.5t15.5 -41.5t38 -37t65.5 -14q45 0 89 22t74 51.5t59 70t42 65t25 49.5z" />
    <glyph glyph-name="d" unicode="d" horiz-adv-x="1036" 
d="M864 1319l15 47q177 9 335 20q-18 -57 -39 -117.5t-28 -82.5l-186 -615q-3 -11 -18 -59l-24 -77t-23 -80t-22 -88t-14 -79.5t-6 -74.5q0 -74 31 -74q33 0 87.5 65.5t114.5 196.5l11 23l43 -17l-27 -55q-58 -120 -101 -175q-82 -104 -171 -104q-43 0 -81 27t-38 88
q0 72 22 162h-2q-19 -40 -44.5 -79t-67.5 -88t-99.5 -79.5t-119.5 -30.5q-98 0 -158.5 77.5t-60.5 203.5q0 111 55.5 230t137.5 208t179 147t178 58q82 0 136 -88l118 387q17 60 17 72q0 15 -11.5 27t-46.5 20t-92 4zM793 526q1 4 10.5 34t12 40l8.5 33t8 41t2 35
q0 73 -25.5 106t-54.5 33q-70 0 -148 -83.5t-135 -196.5t-95 -224.5t-38 -171.5q0 -79 30 -114t70 -35t78 21t68 51t59.5 78.5t49.5 89t42 97.5t32.5 88.5z" />
    <glyph glyph-name="e" unicode="e" horiz-adv-x="702" 
d="M715 270l39 -28q-19 -31 -40.5 -61t-58.5 -69.5t-76 -68.5t-91 -49.5t-105 -20.5q-99 0 -168.5 60.5t-69.5 177.5q0 93 43.5 215.5t112.5 220.5q76 110 179.5 180t201.5 70q75 0 118.5 -40.5t43.5 -102.5q0 -210 -461 -404l-49 -20q-35 -111 -35 -191q0 -58 29 -87
t75 -29q136 0 297 227zM350 387q158 62 266.5 169t108.5 214q0 78 -59 78q-76 0 -161 -108.5t-155 -352.5z" />
    <glyph glyph-name="f" unicode="f" horiz-adv-x="591" 
d="M598 823l-111 -458q-83 -342 -110 -432q-88 -300 -203 -411q-85 -83 -199 -83q-85 0 -137.5 32t-52.5 80q0 29 15.5 47.5t39.5 18.5q21 0 36 -12t21 -24t13 -32q13 -36 27 -50.5t40 -14.5q19 0 37 8.5t46 42t55.5 91t64 166.5t72.5 257l188 774h-170l15 47h168l10 37
q11 40 19.5 67.5t25 74t33.5 80.5t41 76t52.5 71t63 55.5t77.5 39.5t91 13q90 0 133 -38t43 -82q0 -27 -13 -44.5t-38 -17.5q-17 0 -29 5.5t-20 19t-11.5 22t-10.5 27.5t-10.5 26.5t-10.5 18t-16.5 14.5t-22.5 4q-30 0 -57.5 -18t-50.5 -53t-41 -71.5t-35.5 -89.5t-28.5 -91
t-24 -90l-15 -56h180l-14 -47h-176z" />
    <glyph glyph-name="g" unicode="g" horiz-adv-x="907" 
d="M885 750q22 -55 22 -111q0 -72 -25 -144t-72 -135.5t-125.5 -106t-176.5 -48.5q-5 0 -32.5 -1.5t-42 -2.5t-41 -4.5t-42.5 -9t-33.5 -14.5t-25.5 -22.5t-8 -31.5q0 -19 6.5 -33.5t22 -25t29.5 -17.5t40 -13t41.5 -8.5t46.5 -7t43 -6.5q153 -25 200 -39q143 -42 176 -147
q11 -35 11 -78q0 -142 -116 -233t-296 -91q-117 0 -206 25t-138.5 66.5t-73.5 88.5t-24 97q0 73 47 117.5t105 44.5q35 0 84 -27q-103 -41 -103 -141q0 -41 15.5 -77.5t49.5 -70t98 -53.5t151 -20q78 0 137.5 20t91.5 52t47.5 66t15.5 68q0 19 -3.5 35.5t-12.5 30.5
t-16.5 24.5t-25.5 20t-28.5 16t-36 13.5l-38 10.5t-44.5 8.5t-45 7.5t-49 7.5q-158 24 -212 46q-108 42 -113 142v11q0 49 25.5 88t65.5 60.5t72 32.5t62 16q-131 81 -131 235q0 102 54.5 198.5t147 157t195.5 60.5q124 0 207 -98q31 31 77 56.5t93 25.5q44 0 79.5 -30.5
t35.5 -74.5q0 -35 -19 -60.5t-51 -25.5q-27 0 -46.5 16t-25.5 48q-1 3 -2 15t-2.5 17.5t-8 11t-17.5 5.5q-33 0 -86 -53zM395 408q0 -76 39.5 -115t89.5 -39q63 0 118 65.5t86.5 168t31.5 212.5q0 71 -34.5 109.5t-80.5 38.5q-63 0 -121.5 -64t-93.5 -166t-35 -210z" />
    <glyph glyph-name="h" unicode="h" horiz-adv-x="1042" 
d="M322 0h-160q21 58 82 246l282 915q3 10 10.5 31t11 36t3.5 29q0 19 -9 31.5t-26.5 18t-33 7.5t-40.5 3l-41 2l15 47q177 4 346 20q-97 -264 -148 -434l-102 -348l18 25q1 1 27.5 38.5t38 51l40.5 48t51 51.5t53 38.5t63.5 31t66.5 9.5q65 0 109.5 -47.5t44.5 -130.5
q0 -115 -106 -354q-56 -124 -76.5 -182t-20.5 -97q0 -47 33 -47q40 0 104.5 74.5t98.5 140.5l24 47l43 -20l-22 -48q-65 -136 -139.5 -198t-145.5 -62q-51 0 -87 35t-36 105q0 65 31 163t68.5 182t68.5 171t31 133q0 42 -18 58t-39 16q-61 0 -132.5 -68t-134 -173t-115 -221
t-85.5 -222z" />
    <glyph glyph-name="i" unicode="i" horiz-adv-x="579" 
d="M618 285l41 -21q-59 -134 -136 -212.5t-158 -78.5q-55 0 -95.5 40.5t-40.5 107.5q0 91 68 244l45.5 103l37.5 84.5l28 64t22 53t13.5 38.5t9 33t2.5 25q0 1 0.5 10.5t0 15.5t-3 14.5t-8.5 15t-16 9.5q-8 4 -29 0q-10 -3 -20.5 -8.5t-21 -15.5l-19 -18.5t-19 -23.5
l-17 -24.5t-17.5 -28l-15.5 -26t-15 -26.5t-12.5 -23l-17 -29l-41 23q61 134 135.5 200t143.5 66q50 0 86.5 -37.5t36.5 -103.5q0 -62 -25 -139t-82 -216l-18 -43q-60 -153 -78 -207t-18 -77q0 -35 36 -35q25 0 56 24t61 64.5t53.5 78t46.5 79.5zM494 1266q0 40 27 67t67 27
t67 -27t27 -67t-27 -67.5t-67 -27.5t-67 27.5t-27 67.5z" />
    <glyph glyph-name="j" unicode="j" horiz-adv-x="548" 
d="M211 563l-41 25q25 50 59.5 101.5t77.5 99.5t93 78t96 30q50 0 75 -35.5t25 -93.5t-41 -217l-127 -488q-18 -70 -33 -121t-39.5 -122t-49 -121.5t-60.5 -105t-74.5 -88.5t-90 -56t-108.5 -22q-74 0 -123 36t-49 82q0 25 16.5 42.5t41.5 17.5t37 -14t26 -50q1 -3 5.5 -13
t5.5 -13t5 -10.5t6.5 -10t7 -7.5t9.5 -6.5t11 -3t14 -1.5q40 0 81.5 48t77 130t63 165.5t52.5 178.5l129 498q62 242 62 282q0 37 -27 37q-32 0 -93 -68t-95 -135zM514 1266q0 40 27 67t67 27t67 -27t27 -67t-27 -67.5t-67 -27.5t-67 27.5t-27 67.5z" />
    <glyph glyph-name="k" unicode="k" horiz-adv-x="913" 
d="M287 0h-156l285 1063q45 167 45 211q0 45 -72 45h-86l14 47q192 8 340 20q-11 -42 -32 -108q-2 -4 -4.5 -14l-10.5 -40.5l-18 -68.5l-127 -485q63 96 150.5 161.5t177.5 65.5q61 0 107 -27.5t46 -89.5q0 -40 -20 -80t-49 -70t-71.5 -60.5t-77 -50t-77.5 -40.5l-37 -18
q77 -15 117.5 -68t42.5 -139q0 -32 -4 -67.5t-4 -86.5q0 -16 1 -25.5t9 -19.5t23 -10q33 0 77 64t68 118l14 31l39 -16l-18 -43q-21 -48 -40 -82.5t-46 -70t-61 -54.5t-74 -19q-54 0 -97 34.5t-47 111.5v41q3 27 11 78q5 30 7 49t0.5 47t-8.5 45t-24.5 32.5t-44.5 20.5
l-174 -76zM397 414q172 59 291 161t119 195q0 25 -14 40t-26.5 18t-25.5 3q-93 0 -186 -114t-158 -303z" />
    <glyph glyph-name="l" unicode="l" horiz-adv-x="530" 
d="M719 1386l-268 -876q-61 -199 -82 -282.5t-21 -125.5q0 -53 45 -63q24 -5 53.5 18t57 63t46.5 72.5t34 63.5l20 41l49 -23l-22 -43l-33 -61.5t-31.5 -53t-34 -49.5t-35.5 -38t-42 -31.5t-47.5 -17t-57.5 -7.5q-46 0 -77 18.5t-44 47.5t-17.5 50.5t-4.5 41.5q0 102 63 305
l205 656q37 119 37 153q0 36 -25 55t-104 19h-18l14 47q140 3 340 20z" />
    <glyph glyph-name="m" unicode="m" horiz-adv-x="1497" 
d="M225 563l-41 17q45 147 123.5 232t163.5 85q60 0 89.5 -44t29.5 -108q0 -41 -15 -127l-10 -55h2l27 51q55 106 115.5 172t107.5 88.5t94 22.5q60 0 99 -37t39 -104q0 -71 -33 -156h6l16 31q20 38 50.5 79.5t71 85.5t90.5 72.5t96 28.5q55 0 100 -44t45 -126
q0 -20 -2.5 -40.5t-5.5 -35t-11.5 -42l-12 -39t-17.5 -50.5l-19 -53l-90 -254q-5 -16 -13.5 -38.5t-12 -33t-6.5 -24t-3 -23.5q0 -55 31 -55q38 0 77.5 49t127.5 191l16 26l41 -22q-26 -59 -48.5 -101t-60 -96t-83.5 -83.5t-96 -29.5q-53 0 -93.5 37t-40.5 113q0 14 1.5 29
t3 28t6.5 31.5l8 30t10.5 34l11 33t14 37t14 36.5t16 41.5l16.5 41.5q34 86 48.5 126.5t28 91.5t13.5 87q0 58 -47 61t-110 -61t-114.5 -147.5t-93.5 -173.5q-16 -35 -32 -74t-32.5 -86l-27 -78l-29.5 -88.5l-26 -79.5l-14 -43h-150l35 100q199 575 199 668q0 59 -52 63
q-46 5 -111 -74.5t-124 -194t-105.5 -223t-66.5 -175.5l-49 -164h-150l21 63q172 530 172 711q0 29 -6.5 43t-26.5 14q-25 0 -54.5 -29t-57 -74.5t-47.5 -86t-36 -78.5z" />
    <glyph glyph-name="n" unicode="n" horiz-adv-x="1165" 
d="M219 559l-43 14l17 37q23 51 41.5 88t45 77t53.5 65t62.5 41t75.5 16q49 0 88 -35t39 -104q0 -71 -12 -137l-13 -62h5l4 10q18 45 52.5 98t82 106t109.5 88.5t122 35.5q66 0 115 -45t49 -123q0 -125 -94 -352q-86 -205 -86 -266q0 -72 43 -72q91 0 213 260l45 -23
q-68 -160 -145 -231.5t-154 -71.5q-54 0 -95.5 36.5t-41.5 109.5q0 113 90 323q92 214 92 328q0 11 -2.5 22t-17.5 25t-41 14q-242 0 -482 -772l-18 -59h-158l29 80q170 478 170 698q0 53 -29 53q-43 0 -93.5 -59t-94.5 -162z" />
    <glyph glyph-name="o" unicode="o" horiz-adv-x="870" 
d="M952 559q0 -105 -39 -211t-103.5 -188.5t-155 -134.5t-187.5 -52q-115 0 -198 83t-83 235q0 80 26 167t74 164t109 139.5t137 99t152 36.5q117 0 192.5 -93t75.5 -245zM809 690q0 74 -34.5 116t-92.5 42q-69 0 -135.5 -68.5t-116.5 -197.5q-30 -78 -60 -202.5t-30 -197.5
q0 -75 36 -117t91 -42q28 0 60 12t68.5 39.5t72.5 82t63 128.5q25 69 51.5 198.5t26.5 206.5z" />
    <glyph glyph-name="p" unicode="p" horiz-adv-x="985" 
d="M686 1192l-135 -502q19 33 42.5 64t59.5 65.5t83.5 56t97.5 21.5q95 0 164 -70.5t69 -193.5q0 -120 -46 -241.5t-118.5 -212.5t-166 -148.5t-183.5 -57.5q-108 0 -162 111l-88 -336q-41 -152 -41 -199q0 -50 49 -61q14 -3 60 -6l28 -2l-14 -45l-223 4l-203 -4l10 45l33 2
q52 3 77 30t52 128l209 772l24 88.5t10.5 42.5l16 73l31.5 138q-107 -70 -163.5 -129.5t-88.5 -147.5l-45 17q46 132 151 217q22 18 57 44t48 37.5t35 39t35 61.5t31 90.5t38 140.5l21 86zM918 705q0 78 -34.5 110.5t-76.5 32.5q-82 0 -170.5 -113t-144.5 -271.5t-56 -289.5
q0 -68 26.5 -107.5t78.5 -39.5q58 0 116.5 51t104 130.5t81.5 171.5t55.5 178.5t19.5 146.5z" />
    <glyph glyph-name="q" unicode="q" horiz-adv-x="915" 
d="M905 887h137q-52 -167 -122 -422l-215 -774q-35 -123 -35 -158q0 -53 127 -53h28l-14 -45l-231 4l-228 -4l15 45h22q29 0 50.5 5t37.5 12t28.5 24.5t20.5 33.5t17.5 47.5t16 58l19 75l23.5 88.5l105 377q-20 -36 -43 -69t-60 -72.5t-86.5 -63t-103.5 -23.5
q-95 0 -161.5 64t-66.5 196q0 76 26 165.5t75.5 177t113 160t147 117t169.5 44.5q126 0 157 -127zM827 719q0 70 -30 101.5t-68 31.5q-69 0 -142.5 -78.5t-126.5 -187.5t-87.5 -223t-34.5 -187q0 -149 96 -149q72 0 147 82t127 195.5t85.5 228.5t33.5 186z" />
    <glyph glyph-name="r" unicode="r" horiz-adv-x="704" 
d="M180 573l-43 19q33 76 72 141t91.5 114.5t100.5 49.5q55 0 94.5 -50.5t39.5 -144.5q0 -40 -9 -92l-8 -47h4q61 168 143 251t162 83q45 0 75 -26t30 -62q0 -35 -21.5 -59.5t-54.5 -24.5q-34 0 -53 21.5t-19 46.5q0 3 1 8t1 8q0 22 -16 22q-119 0 -360 -749l-27 -82h-154
l23 66q73 213 110 372.5t37 292.5q0 21 -0.5 31.5t-3 30t-10.5 29t-20 9.5q-63 0 -162 -210z" />
    <glyph glyph-name="s" unicode="s" horiz-adv-x="716" 
d="M756 713q-31 0 -45.5 14t-18 33.5t-7.5 39.5t-24.5 34t-60.5 14q-60 0 -96.5 -37t-36.5 -86q0 -34 20 -76.5t36 -64l50 -64.5q69 -86 101.5 -149t32.5 -133q0 -55 -20 -100.5t-52.5 -75.5t-75.5 -50.5t-88 -29.5t-92 -9q-127 0 -188.5 51.5t-61.5 114.5q0 35 18.5 57.5
t45.5 22.5q25 0 44 -17t19 -44q0 -9 -3 -28t-3 -28q0 -30 27.5 -57t99.5 -27q83 0 132.5 45t49.5 113q0 35 -17 74.5t-34.5 64l-56.5 76.5q-41 53 -64 86.5t-43 83.5t-20 98q0 99 77.5 168.5t202.5 69.5q96 0 149.5 -39.5t53.5 -83.5q0 -23 -12 -42t-39 -19z" />
    <glyph glyph-name="t" unicode="t" horiz-adv-x="581" 
d="M510 1159h143l-90 -289h164l-14 -49h-164l-60 -196l-49 -160l-40 -131t-25.5 -90t-18 -79.5t-4.5 -55.5q0 -66 45 -66q35 0 80.5 46t112.5 181l18 37l41 -20l-14 -31q-24 -51 -42.5 -86t-46.5 -75.5t-55 -64.5t-63.5 -40.5t-77.5 -16.5q-66 0 -102.5 42.5t-36.5 117.5
q0 80 55 264l129 424h-164l17 49h162z" />
    <glyph glyph-name="u" unicode="u" horiz-adv-x="1122" 
d="M956 870h154l-29 -79q-74 -209 -116.5 -396t-42.5 -284q0 -72 45 -72q39 0 91.5 75t80.5 146l20 51l43 -16l-24 -55q-25 -55 -47 -95t-55 -83t-73.5 -66t-87.5 -23q-56 0 -94.5 38t-38.5 102q0 56 13 131l10 67h-4l-8 -18q-14 -33 -36.5 -71t-58.5 -83.5t-75 -81.5
t-89 -60t-100 -24q-69 0 -119.5 53.5t-50.5 151.5q0 29 5.5 59.5t18.5 68.5t21 59.5t28 69l25 59.5q80 192 80 266q0 71 -43 71q-90 0 -211 -260l-45 23l37 74q18 36 34 63t41 60.5t50.5 54.5t61 36t73.5 15q55 0 97.5 -35.5t42.5 -109.5q0 -99 -56 -242l-39.5 -101.5
l-33 -85t-22 -59.5t-17.5 -56.5t-7.5 -42t-3.5 -46.5q0 -42 19 -61t45 -19q99 0 224.5 182t225.5 514z" />
    <glyph glyph-name="v" unicode="v" horiz-adv-x="999" 
d="M487 668l25 39q-78 -25 -117 -25q-13 0 -43 6l-21 7t-35.5 10t-31.5 4q-43 0 -43 -66v-8q0 -17 -12 -17t-23 16.5t-14 43.5v22q4 63 41.5 98.5t89.5 35.5q49 0 94 -43l5 -5l6.5 -6.5t6.5 -5.5t7.5 -5.5t8 -4.5t10.5 -4.5t11 -2.5t13 -1q80 0 113 88q1 1 3.5 9t4 12
t5.5 11t8 11t10.5 7t13.5 3q16 0 27.5 -10t11.5 -29q0 -20 -12.5 -45t-41 -76.5t-51.5 -105.5q-92 -211 -92 -365q0 -51 4.5 -86.5t17 -68.5t38 -49.5t63.5 -16.5q84 0 165 85.5t131 220.5t50 272q0 26 -5 78.5t-5 80.5q0 37 7.5 61.5t20 35t22.5 14.5t21 4q33 0 59.5 -28
t26.5 -91q0 -62 -16 -143t-45.5 -172t-77.5 -177.5t-106.5 -156.5t-137.5 -113t-166 -43q-106 0 -176.5 59t-70.5 167q0 69 33.5 157t69 150t99.5 162z" />
    <glyph glyph-name="w" unicode="w" horiz-adv-x="1316" 
d="M854 707q20 100 86 100q37 0 54.5 -25.5t17.5 -54.5q0 -11 -7.5 -35.5l-29.5 -99t-47 -170.5q-47 -181 -47 -262q0 -48 28.5 -79.5t77.5 -31.5q115 0 215 184q84 156 84 351q0 20 -2.5 42t-4.5 36.5t-7.5 41t-7.5 39.5q-9 45 -9 64q0 40 16 65t48 25q88 0 88 -162
q0 -85 -34 -226t-97 -255q-36 -64 -67 -108.5t-73.5 -87t-94.5 -64t-113 -21.5q-50 0 -86.5 18.5t-55 49t-27 60.5t-9.5 61q-65 -93 -134.5 -141t-156.5 -48q-31 0 -62.5 10t-63 32t-51.5 64t-20 99q0 22 3 44.5t12 50l16.5 49t25 56l28.5 56t36 64.5l38.5 66l45 75.5
l47.5 79.5q-71 -49 -137 -49q-24 0 -51 10q-3 1 -13 5.5l-16 7t-18 4.5t-19 -1q-35 -7 -35 -51q0 -4 1 -13.5t1 -13.5q0 -8 -6 -8q-16 0 -30.5 22t-14.5 62q0 67 38.5 101t84.5 34q45 0 78 -26q11 -8 27 -24t27 -22.5t28 -6.5q27 0 56.5 18t37.5 45q2 6 5 24t6.5 29t13 21
t24.5 10q39 0 39 -41q0 -19 -12.5 -42t-39.5 -67t-48 -90q-45 -97 -85 -231.5t-32 -239.5q4 -68 37.5 -101.5t85.5 -27.5q31 3 59 19.5t49 38t41 58.5t33.5 69t28.5 82.5t24 85l23 90.5z" />
    <glyph glyph-name="x" unicode="x" horiz-adv-x="946" 
d="M963 268l49 -16l-13 -35q-15 -43 -26.5 -70.5t-30 -64t-37.5 -57.5t-45.5 -36.5t-56.5 -15.5q-27 0 -49.5 9t-41 30t-32 40.5t-27.5 55t-21.5 58l-21 65t-20.5 62.5l-21 61l-39 -61q-6 -9 -25.5 -40.5l-29 -47l-29.5 -46t-33.5 -48l-33.5 -42.5t-36 -39.5t-35 -29
t-37 -21t-35 -6.5q-33 0 -58.5 24.5t-25.5 70.5q0 20 4 39t7 31t14.5 32.5l14.5 26t20.5 30.5t20.5 29l19 27l47 -31l-16 -23q-50 -67 -50 -110q0 -23 10 -35t25 -12q31 0 68 45.5t141 201.5l66 99l-86 252q-2 5 -7.5 21.5t-7.5 22t-7.5 18.5t-9.5 18l-10 12t-13 9.5
t-15 2.5q-14 0 -27.5 -10t-29.5 -44t-25 -89l-6 -35l-47 14l4 27q20 130 73.5 195t110.5 65q24 0 46 -10t37.5 -22.5t31.5 -39t25 -45.5t22 -57.5l19 -57.5t18 -63l12 -43l41 57l42.5 60.5l46 65.5t44.5 57t48.5 52t47 32t50.5 14q36 0 63 -24t27 -70q0 -51 -37 -108.5
t-78 -98.5l-35 29l13 16q1 1 8 10.5t8.5 12t7.5 11.5t8 12.5l7.5 12.5t7.5 13.5l5.5 12.5t5 13.5t2.5 12t1 12.5q0 23 -13.5 34t-29.5 11q-24 0 -70.5 -49t-152.5 -199l-43 -61q28 -94 63 -193l15 -44.5l16 -47t16.5 -41t20 -36.5t23 -22.5t28.5 -9.5q48 0 96 140z" />
    <glyph glyph-name="y" unicode="y" horiz-adv-x="800" 
d="M211 510h-51l-2 51q-3 82 7.5 145t29 98t43 57t44 29t37.5 7q84 0 146 -127q70 -152 104 -343.5t39 -367.5q61 111 109.5 255t48.5 253q0 83 -37 142q-9 15 -27.5 40.5t-27 43t-8.5 36.5q0 31 19 49.5t48 18.5q33 0 55 -17t32.5 -49.5t14 -66t3.5 -78.5
q0 -165 -77 -386.5t-189 -413t-250.5 -325.5t-251.5 -134q-47 0 -71 19.5t-24 49.5q0 10 3 19.5t11.5 22t28 21t48.5 9.5h32q4 0 11.5 -1t11.5 -1h26q81 4 134 41.5t98 97.5q47 64 72.5 131t25.5 164q0 46 -17.5 171.5t-31.5 203.5q-22 114 -71 255.5t-89 141.5
q-7 0 -14.5 -5t-17 -19.5t-16 -37.5t-10 -64t-1.5 -93z" />
    <glyph glyph-name="z" unicode="z" horiz-adv-x="747" 
d="M623 625l-347 -461q76 14 152 14q43 0 98 -10q10 -2 31 -7t31 -7q35 -7 59 -7t43 8t29.5 17t20 27t12.5 27.5t8 28.5q1 5 2 7q1 3 2 8.5t2 8.5t2.5 7t4 5.5t5.5 1.5q15 0 27 -35.5t12 -79.5q0 -22 -5 -46.5t-19 -53.5t-35 -52t-57.5 -38t-82.5 -15q-64 0 -133 37
q-18 10 -62 38.5t-76.5 43t-63.5 14.5q-26 0 -45.5 -9t-31.5 -25t-17.5 -28t-10.5 -28q-18 -55 -47 -55q-12 0 -22.5 8.5t-10.5 26.5q0 30 27.5 77t101.5 134l45 53l355 461l-23 -6q-78 -19 -123 -19q-33 0 -82 11q-50 12 -73 12q-83 0 -80 -113v-6q0 -8 -8 -8
q-18 0 -30.5 25.5t-14.5 58.5v18q3 75 54.5 129t135.5 54q18 0 32.5 -2.5t30 -10.5t22.5 -12t26 -17.5t24 -17.5q69 -49 107 -49q8 0 14.5 1t12 2.5t10.5 5.5t8.5 6.5t8 8.5l7 9.5t7 12t6.5 12t7 14l7 14.5q1 1 3.5 7t3 7.5t3 6.5t4 6.5t4 5t4.5 4.5t5.5 3t7.5 2.5t8 0.5
q12 0 22 -9t10 -26q0 -29 -45.5 -92.5t-78.5 -99.5z" />
    <glyph glyph-name="braceleft" unicode="{" horiz-adv-x="1046" 
d="M332 639l8 31q49 -1 86.5 5t64.5 23t45 36.5t33 54t24 65t21 80.5l11 43q46 198 63 247q47 142 133 199q34 22 76 35q41 13 81.5 17.5t92.5 4t57 -0.5l37 2l-12 -45q-204 18 -293 -124q-43 -70 -79 -230l-6 -25q-5 -21 -7 -31q-40 -175 -92 -255t-162 -114l-2 -6
q53 -10 81 -46t28 -87q0 -44 -12 -92t-42 -143l-8 -25q-67 -212 -67 -297q0 -51 22 -85.5t56 -47t74 -17t75 2.5l-12 -43h-64h-11h-44t-42.5 1.5t-43 4t-38.5 8t-36 13.5t-28.5 20t-24 27.5t-14 37t-5.5 47.5q0 81 35 199q9 30 42.5 126t50 161.5t16.5 118.5q0 15 -6 30.5
t-21.5 35t-52 30.5t-88.5 8z" />
    <glyph glyph-name="bar" unicode="|" horiz-adv-x="778" 
d="M526 1364h109v-1706h-109v1706z" />
    <glyph glyph-name="braceright" unicode="}" horiz-adv-x="1091" 
d="M1001 670l-6 -31q-34 6 -63 6t-51 -5t-40.5 -15t-32.5 -23.5t-25 -31.5t-19 -37.5t-15 -42.5t-12.5 -45.5t-10.5 -47.5l-9 -41l-31 -131q-35 -147 -42 -168q-51 -167 -161 -233q-83 -49 -207 -51l-122 -2l12 43q88 -5 150 14t104.5 67t69 112.5t49.5 164.5l18 80
q46 201 99.5 283.5t164.5 115.5l2 6q-50 11 -80 44.5t-30 82.5q0 71 51 226q20 59 41.5 154.5t21.5 140.5q0 61 -53.5 99.5t-173.5 31.5l12 45l136 -2q40 -1 66 -3.5t56 -12t47.5 -26t29 -46.5t11.5 -72q0 -105 -65 -289l-31 -92q-28 -89 -28 -164q0 -15 5.5 -30.5t21 -35
t52 -30.5t88.5 -8z" />
    <glyph glyph-name="asciitilde" unicode="~" horiz-adv-x="956" 
d="M1022 1501l29 -18q-46 -81 -120 -138t-157 -57q-22 0 -45 3t-50 11l-45.5 13.5t-53.5 18l-52 18.5q-64 22 -122 22q-106 0 -189 -119l-29 19q19 31 42.5 60t58.5 62.5t81.5 53.5t96.5 20q62 0 176 -40q121 -41 174 -41q61 0 114 31t91 81z" />
    <glyph glyph-name="currency" unicode="&#xa4;" horiz-adv-x="1306" 
d="M299 209l182 184q-112 135 -112 309q0 172 108 306l-184 184l59 59l183 -184q138 115 313 115t311 -113l184 182l60 -59l-186 -184q110 -128 110 -306q0 -173 -110 -309l184 -184l-60 -59l-184 184q-134 -111 -309 -111q-173 0 -307 111l-185 -184zM487 702
q0 -148 106.5 -254t254.5 -106t254 106t106 254t-106 254.5t-254 106.5t-254.5 -106.5t-106.5 -254.5z" />
    <glyph glyph-name="brokenbar" unicode="&#xa6;" horiz-adv-x="778" 
d="M526 0v547h109v-547h-109zM526 1364h109v-547h-109v547z" />
    <glyph glyph-name="section" unicode="&#xa7;" 
d="M756 256q135 -135 135 -272q0 -83 -47 -147t-120.5 -96t-156.5 -32q-112 0 -190 63.5t-78 151.5q0 49 32 85t81 36q40 0 68 -24t28 -64q0 -46 -35 -74q-2 -2 -18 -12t-24.5 -20t-8.5 -23q0 -26 38 -49t103 -23q81 0 145 48t64 126q0 38 -15 76.5t-48 82.5t-53 67l-62 69
q-54 59 -83.5 94.5t-66 88.5t-53 104.5t-16.5 105.5q0 104 66.5 180t154.5 76q51 0 106 -22q-54 56 -94.5 130t-40.5 151q0 116 90 187t209 71q110 0 187 -59t77 -142q0 -49 -29 -82t-77 -33q-39 0 -67.5 24.5t-28.5 61.5q0 9 1 17.5t2.5 14.5t5 13t5.5 10.5t7.5 10t7.5 8.5
l9 9l9 9q36 36 -5 62t-102 26q-82 0 -132 -47t-50 -112q0 -37 14 -74.5t44 -78t51.5 -65t60.5 -65.5q64 -70 105.5 -123t77.5 -132t36 -152q0 -104 -64.5 -177t-146.5 -73q-54 0 -108 14zM715 338q62 -43 106 -43q56 0 95.5 42.5t39.5 100.5q0 60 -51.5 149.5t-130 158.5
t-145.5 69q-57 0 -94 -36.5t-37 -94.5q0 -77 75.5 -187t141.5 -159z" />
    <glyph glyph-name="copyright" unicode="&#xa9;" horiz-adv-x="1540" 
d="M971 -27q-191 0 -355 96t-260 260t-96 355t96 354.5t260 259t355 95.5q143 0 274 -56.5t226 -151.5t151.5 -226.5t56.5 -274.5t-56.5 -274.5t-151.5 -227t-226 -152.5t-274 -57zM971 43q129 0 247 51.5t204 137.5t137 204.5t51 247.5t-51 247t-137 204t-204 137t-247 51
t-247.5 -51t-204.5 -137t-137.5 -204t-51.5 -247t51.5 -247.5t137.5 -204.5t204.5 -137.5t247.5 -51.5zM1272 1069v-235h-35q-24 79 -82.5 131.5t-144.5 52.5q-104 0 -177 -83.5t-73 -248.5q0 -93 22.5 -161t60 -103.5t79 -51.5t88.5 -16q131 0 239 129l35 -32
q-118 -152 -297 -152q-167 0 -278 104t-111 267q0 165 111 282t276 117q21 0 42.5 -4t31 -6.5t31.5 -11t24 -9.5q59 -20 80 -20q6 0 11 1.5t8 3.5t6 7t4 7t4 9t4 9l6 14h35z" />
    <glyph glyph-name="guillemotleft" unicode="&#xab;" horiz-adv-x="993" 
d="M444 436l127 -239q15 -27 15 -35q0 -4 -4 -8t-9 -4q-11 0 -36 30l-220 260l349 281q23 20 30 20q13 0 13 -12q0 -8 -21 -33zM786 436l127 -239q15 -27 15 -35q0 -4 -4 -8t-9 -4q-11 0 -36 30l-220 260l349 281q23 20 30 20q13 0 13 -12q0 -8 -21 -33z" />
    <glyph glyph-name="logicalnot" unicode="&#xac;" horiz-adv-x="1036" 
d="M897 0v463h-688v84h878v-547h-190z" />
    <glyph glyph-name="registered" unicode="&#xae;" horiz-adv-x="1540" 
d="M971 -27q-191 0 -355 96t-260 260t-96 355t96 354.5t260 259t355 95.5q143 0 274 -56.5t226 -151.5t151.5 -226.5t56.5 -274.5t-56.5 -274.5t-151.5 -227t-226 -152.5t-274 -57zM971 43q129 0 247 51.5t204 137.5t137 204.5t51 247.5t-51 247t-137 204t-204 137t-247 51
t-247.5 -51t-204.5 -137t-137.5 -204t-51.5 -247t51.5 -247.5t137.5 -204.5t204.5 -137.5t247.5 -51.5zM631 311v37q57 -3 76.5 14.5t19.5 63.5v516q0 45 -16 61.5t-52 16.5h-34v37h350q85 0 146 -17t93.5 -47t47 -64.5t14.5 -76.5q0 -62 -37 -112.5t-104 -71.5l157 -269
q28 -51 92 -51v-37h-200l-205 355h-111v-240q0 -45 16 -61.5t52 -16.5h35v-37h-340zM868 700h103q164 0 164 152q0 72 -41 114t-123 42h-103v-308z" />
    <glyph glyph-name="degree" unicode="&#xb0;" horiz-adv-x="821" 
d="M399 1114q0 106 76 182t182 76t182 -76t76 -182t-76 -182t-182 -76t-182 76t-76 182zM467 1114q0 -78 55 -133t133 -55t133.5 55t55.5 133t-55.5 133.5t-133.5 55.5t-133 -55.5t-55 -133.5z" />
    <glyph glyph-name="plusminus" unicode="&#xb1;" horiz-adv-x="1087" 
d="M209 766h420v395h90v-395h420v-86h-420v-389h-90v389h-420v86zM209 201h930v-86h-930v86z" />
    <glyph glyph-name="mu" unicode="&#xb5;" horiz-adv-x="1028" 
d="M764 870h141q-37 -119 -111.5 -416t-74.5 -368q0 -19 9 -33t28 -14q43 0 92 71t74 142l16 47l45 -18l-14 -33l-24.5 -56t-26 -53t-31 -53t-34 -44t-41 -37.5t-47.5 -22t-56 -9.5q-62 0 -99 51t-35 115q-70 -68 -152 -117t-144 -49q-58 0 -99 31.5t-41 104.5q0 29 2 43h-6
q-34 -127 -49 -258q-1 -6 -5.5 -41t-7.5 -52.5t-10 -52t-16 -53.5t-22 -41.5t-31.5 -32.5t-40.5 -10q-55 0 -55 59q0 39 32 117l10 23q4 12 7 18l40.5 99.5l43.5 107l39 103t44.5 126.5l42 136t48.5 171l80 299h141l-139 -520q-27 -100 -27 -166q0 -60 25 -87t61 -27
q48 0 126 52.5t120 104.5z" />
    <glyph glyph-name="mu" unicode="&#x3bc;" horiz-adv-x="1028" 
d="M764 870h141q-37 -119 -111.5 -416t-74.5 -368q0 -19 9 -33t28 -14q43 0 92 71t74 142l16 47l45 -18l-14 -33l-24.5 -56t-26 -53t-31 -53t-34 -44t-41 -37.5t-47.5 -22t-56 -9.5q-62 0 -99 51t-35 115q-70 -68 -152 -117t-144 -49q-58 0 -99 31.5t-41 104.5q0 29 2 43h-6
q-34 -127 -49 -258q-1 -6 -5.5 -41t-7.5 -52.5t-10 -52t-16 -53.5t-22 -41.5t-31.5 -32.5t-40.5 -10q-55 0 -55 59q0 39 32 117l10 23q4 12 7 18l40.5 99.5l43.5 107l39 103t44.5 126.5l42 136t48.5 171l80 299h141l-139 -520q-27 -100 -27 -166q0 -60 25 -87t61 -27
q48 0 126 52.5t120 104.5z" />
    <glyph glyph-name="paragraph" unicode="&#xb6;" horiz-adv-x="1042" 
d="M668 641h-35h-22t-32.5 2.5t-42 6.5t-44.5 12.5t-46 21t-41 32.5t-35.5 45t-22.5 60.5t-9 77.5q0 89 38.5 173t108 149.5t177 104.5t235.5 38l182 -2l340 6l-12 -45l-45 -4q-37 -3 -55 -5.5t-42 -12t-36.5 -24.5t-29 -44t-30 -69.5t-30.5 -102.5l-334 -1243
q-27 -86 -4 -128.5t119 -54.5l34 -4l-12 -45l-309 6l457 1708h-134l-456 -1708l-334 -6l12 45l47 4q54 5 89.5 16.5t59 29.5t40.5 52.5t29 73.5t29 104q2 9 3 13z" />
    <glyph glyph-name="periodcentered" unicode="&#xb7;" horiz-adv-x="512" 
d="M141 446q0 46 34.5 80.5t80.5 34.5t80.5 -34.5t34.5 -80.5t-34.5 -80t-80.5 -34t-80.5 34t-34.5 80z" />
    <glyph glyph-name="periodcentered" unicode="&#x2219;" horiz-adv-x="512" 
d="M141 446q0 46 34.5 80.5t80.5 34.5t80.5 -34.5t34.5 -80.5t-34.5 -80t-80.5 -34t-80.5 34t-34.5 80z" />
    <glyph glyph-name="guillemotright" unicode="&#xbb;" horiz-adv-x="995" 
d="M827 453l-129 239q-14 22 -14 35q0 14 14 14q4 0 8 -2t8 -5.5t6.5 -7t7.5 -9t7 -8.5l219 -260l-348 -281q-26 -21 -35 -21q-10 0 -10 9v8q1 4 3.5 8.5t5.5 7.5t7.5 7t6.5 6zM487 453l-129 239q-14 22 -14 35q0 14 14 14q4 0 8 -2t8 -5.5t6.5 -7t7.5 -9t7 -8.5l219 -260
l-348 -281q-26 -21 -35 -21q-10 0 -10 9v8q1 4 3.5 8.5t5.5 7.5t7.5 7t6.5 6z" />
    <glyph glyph-name="afii10023" unicode="&#x401;" horiz-adv-x="1275" 
d="M393 1323l13 45q138 -6 284 -6q86 0 308.5 2.5t390.5 3.5l30 -313h-41q-9 42 -22.5 76.5t-27.5 60t-35.5 45.5t-39.5 33t-47 21.5t-49.5 13.5t-56.5 7t-58 2.5t-63 0.5h-123l-57 -2l-148 -549h70q61 0 96.5 2.5t79 14.5t70.5 34.5t53.5 64.5t44.5 103h41l-109 -532h-45
l6 98q3 47 -11 79.5t-35 49.5t-59.5 26t-68.5 11t-79 2h-66l-123 -455q-18 -65 -18 -96q0 -56 47 -84.5t178 -32.5h63q37 0 57.5 1t56 4t57.5 8.5t54.5 16t54.5 25.5t50.5 38t50 52.5t45 69t43.5 88.5h48l-97 -356l-375 4q-316 4 -462 4q-127 0 -303 -8l12 45l45 4
q38 4 68 20t50.5 38.5t39 60t30 72t25.5 86.5l211 784q7 26 11.5 48t6.5 42t2.5 28.5t0 27.5t-0.5 20q0 14 -6 23t-19 13t-23 5.5t-28.5 2t-25.5 1.5zM659 1559q0 46 34.5 80t80.5 34t80.5 -34t34.5 -80t-34.5 -80.5t-80.5 -34.5t-80.5 34.5t-34.5 80.5zM1079 1559
q0 46 34.5 80t80.5 34t80.5 -34t34.5 -80t-34.5 -80.5t-80.5 -34.5t-80.5 34.5t-34.5 80.5z" />
    <glyph glyph-name="afii10051" unicode="&#x402;" horiz-adv-x="1675" 
d="M881 1317h-62q-71 0 -127.5 -6.5t-115 -26t-103 -51.5t-83 -85.5t-64.5 -125.5h-41l92 346h1204l-4 -346h-39q-3 78 -26.5 133.5t-56 86.5t-83.5 48.5t-96.5 22t-108.5 4.5h-90l-147 -553q160 57 334 57q167 0 258.5 -75.5t91.5 -215.5q0 -97 -38.5 -196.5t-104 -179.5
t-162 -130.5t-203.5 -50.5q-125 0 -184.5 45t-59.5 103q0 41 24.5 63.5t59.5 22.5q32 0 53.5 -20t24.5 -54v-43q3 -70 84 -70q89 0 147.5 71t102.5 202q45 126 45 211q0 65 -15 113t-37 73.5t-55.5 40.5t-61.5 19t-63 4q-137 0 -260 -52l-186 -702l-98 2q-39 1 -106 -0.5
t-122 -3.5t-57 -2l14 45l76 4q38 2 65 17t46 47.5t29.5 63.5t25.5 87z" />
    <glyph glyph-name="afii10052" unicode="&#x403;" horiz-adv-x="1142" 
d="M393 1323l13 45q457 -9 964 0l19 -334h-56q-8 46 -20 83.5t-25 65.5t-34 49t-37.5 35t-45.5 23.5t-47.5 14t-54.5 7t-56 3t-61 0.5h-71l-82 -2l-275 -1024q-32 -119 -32 -166q0 -73 83 -78l93 -4l-13 -45l-307 6q-64 2 -282 -6l12 45l76 4q31 2 55 13.5t39.5 27.5t29 47
t21.5 56.5t20 70.5l220 815q32 119 32 166q0 25 -7.5 41.5t-22 23.5t-26 9.5t-28.5 3.5zM774 1526l361 315q3 2 8.5 7.5t9.5 9t11 7.5t16 7q18 6 41 6q27 0 44 -22.5t17 -51.5q0 -18 -6 -32.5t-21.5 -27t-24.5 -18t-35 -18.5l-32 -16l-315 -166h-74z" />
    <glyph glyph-name="afii10053" unicode="&#x404;" horiz-adv-x="1288" 
d="M1479 1360l-78 -387h-43q-3 180 -71 276.5t-216 96.5q-54 0 -109 -16t-119 -58.5t-121 -108t-112.5 -172.5t-95.5 -243q122 69 246 69q74 0 145 -24l54 -19.5l54.5 -19.5t48 -13t50.5 -6q49 0 111 47l32 -39q-68 -61 -147 -97t-150 -36q-72 0 -200 47q-109 41 -185 41
q-30 0 -77 -14q-29 -106 -29 -250q0 -75 15.5 -136.5t39.5 -101.5t58 -70.5t65.5 -46.5t67.5 -25.5t59 -12t45 -2.5q77 0 147.5 26.5t118 62.5t89.5 86t63.5 84.5t38.5 70.5l47 -23q-169 -373 -537 -373q-125 0 -226.5 43.5t-166 117.5t-99 168.5t-34.5 199.5
q0 155 60.5 313.5t163 286t250 208.5t308.5 81q172 0 346 -107l74 76h19z" />
    <glyph glyph-name="afii10054" unicode="&#x405;" horiz-adv-x="999" 
d="M1155 1348l-76 -355h-35q3 58 -9 115.5t-41 112t-87.5 88.5t-138.5 34q-93 0 -160 -57t-67 -149q0 -47 15.5 -90t51 -87.5t67.5 -76.5t89 -84q6 -5 18 -16l70.5 -64t63 -67t58.5 -80.5t36 -89t16 -107.5q0 -82 -29 -154.5t-82 -128t-134.5 -87.5t-180.5 -32
q-206 0 -373 154l-65 -86h-27l68 389h39l2 -18q15 -135 46 -207q80 -185 296 -185q109 0 181.5 76t72.5 187q0 24 -4.5 48.5t-9.5 44t-18 43.5t-20 38.5t-26.5 38l-27.5 33.5t-32 34l-30 30t-32.5 30.5t-29.5 27.5q-59 54 -92.5 89t-74 88t-59.5 109.5t-19 119.5
q0 147 108 240.5t266 93.5q168 0 326 -117l63 74h27z" />
    <glyph glyph-name="afii10055" unicode="&#x406;" horiz-adv-x="692" 
d="M381 1323l12 45l307 -6q65 -2 283 6l-12 -45l-74 -4q-31 -2 -55 -13.5t-40 -28t-30 -46.5t-22.5 -56.5t-20.5 -70.5l-217 -815q-35 -132 -35 -166q0 -73 86 -78l92 -4l-12 -45l-307 6q-65 2 -283 -6l13 45l75 4q38 2 65 17t46 47.5t29.5 63.5t25.5 87l219 815
q33 120 33 166q0 25 -7.5 41.5t-22 23.5t-26 9.5t-28.5 3.5z" />
    <glyph glyph-name="afii10056" unicode="&#x407;" horiz-adv-x="690" 
d="M655 41l-12 -45l-303 6q-118 3 -287 -6l13 45l75 4q63 3 98.5 49t67.5 166l217 815q33 122 33 172q0 11 -1.5 19t-8.5 21.5t-26 22t-48 9.5l-94 4l12 45l303 -6q118 -3 287 6l-12 -45l-74 -4q-58 -3 -96.5 -46.5t-71.5 -168.5l-215 -815q-1 -3 -7 -28l-12 -48.5
t-11 -51.5t-5 -44q0 -12 1.5 -19.5t8 -21t26 -22t50.5 -9.5zM418 1546q0 50 35 84.5t84 34.5t83.5 -34.5t34.5 -84.5t-34.5 -84.5t-83.5 -34.5t-84 34.5t-35 84.5zM784 1546q0 50 35 84.5t84 34.5t84 -34.5t35 -84.5t-35 -84.5t-84 -34.5t-84 34.5t-35 84.5z" />
    <glyph glyph-name="afii10057" unicode="&#x408;" horiz-adv-x="610" 
d="M381 1323l12 45l307 -6q65 -2 283 6l-12 -45l-74 -4q-39 -2 -66 -17t-46 -46.5t-30.5 -64t-25.5 -87.5l-256 -959q-19 -73 -34 -125t-36.5 -117.5t-41 -111.5t-46.5 -98.5t-55.5 -88t-65.5 -70.5t-78 -55.5t-92 -33t-108 -12.5q-120 0 -181 44.5t-61 102.5q0 34 24.5 60
t59.5 26q34 0 57 -24t21 -50l-2 -43q-1 -29 23 -49t61 -20q114 0 192 149q58 109 136 396l30 114l250 936q33 125 33 166q0 25 -7.5 41.5t-22 23.5t-26 9.5t-28.5 3.5z" />
    <glyph glyph-name="afii10058" unicode="&#x409;" horiz-adv-x="1812" 
d="M1741 1368l-12 -45l-74 -4q-39 -2 -66 -17t-46 -46.5t-30.5 -64t-25.5 -87.5l-88 -334q71 6 141 6q121 0 216 -17.5t155.5 -47.5t100 -72.5t55.5 -88.5t16 -99q0 -31 -5.5 -65t-24 -79.5t-47 -87t-80 -83t-118.5 -71t-167 -48t-220 -17.5l-327 2q-154 0 -283 -6l12 45
l76 4q31 2 55 13.5t40 28t30 46.5t22.5 56.5t20.5 70.5l252 950q6 30 6 47q0 35 -55 35h-160q-56 0 -76 -24t-61 -133q-161 -436 -273.5 -668.5t-244.5 -355.5q-66 -61 -142 -99.5t-147 -38.5q-67 0 -101 31.5t-34 77.5q0 59 45.5 97t103.5 38q42 0 74 -37l7.5 -11.5
t8.5 -12t8.5 -8.5t13 -7t17.5 -2q50 0 120.5 66.5t150.5 202.5q118 202 272 620q43 116 43 182q0 97 -160 109l-30 2l12 47q31 -1 120 -3t121 -3q411 -7 783 6zM1384 721l-112 -416q-27 -121 -27 -141q0 -28 5 -46t20.5 -35.5t49.5 -25.5t87 -8q94 0 172 29.5t127.5 75.5
t83.5 104.5t48.5 114.5t14.5 108q0 244 -337 244q-89 0 -132 -4z" />
    <glyph glyph-name="afii10059" unicode="&#x40a;" horiz-adv-x="2185" 
d="M1632 1104l-90 -334q76 8 172 8q512 0 512 -327q0 -31 -5.5 -65t-23.5 -79.5t-47 -87t-80 -83t-118 -71t-167 -48t-220 -17.5l-320 2q-154 0 -287 -6l13 45l76 4q63 3 98 49t67 166l109 406h-696l-101 -377q-1 -3 -7 -28l-12 -48.5t-11 -51.5t-5 -44q0 -12 1.5 -19.5
t8 -21t26 -22t50.5 -9.5l93 -4l-13 -45l-303 6q-117 3 -286 -6l12 45l76 4q63 3 98 49t67 166l218 815q32 118 32 172q0 11 -1.5 19t-8.5 21.5t-26 22t-48 9.5l-94 4l12 45l304 -6q117 -3 286 6l-12 -45l-74 -4q-61 -3 -98.5 -49.5t-69.5 -165.5l-98 -373h696l93 344
q32 115 32 172q0 11 -1.5 19t-8.5 21.5t-26 22t-48 9.5l-94 4l12 45l303 -6q118 -3 287 6l-12 -45l-74 -4q-61 -3 -98.5 -50t-69.5 -165zM1528 721l-111 -416q-28 -104 -28 -141q0 -29 5 -46.5t20.5 -35t49 -25.5t86.5 -8q94 0 172 29.5t127.5 75.5t84 104.5t49 114.5
t14.5 108q0 244 -338 244q-88 0 -131 -4z" />
    <glyph glyph-name="afii10060" unicode="&#x40b;" horiz-adv-x="1751" 
d="M1077 1317l-147 -553q191 57 352 57q34 0 65.5 -3t82 -17t86.5 -38.5t63 -73t27 -114.5q0 -58 -19 -129l-43 -157q-33 -118 -33 -166q0 -25 8 -41.5t22.5 -23.5t26 -9.5t27.5 -3.5l95 -4l-13 -45l-307 6q-65 2 -283 -6l13 45l74 4q38 2 65.5 17t46 47.5t29.5 63.5t26 87
l50 184q20 78 20 119q0 22 -0.5 33t-4.5 34.5t-11.5 37.5t-24 32.5t-39 28.5t-59 17.5t-82.5 7.5q-119 0 -277 -52l-110 -413q-33 -124 -33 -166q0 -74 84 -78l92 -4l-14 -45l-305 6q-61 2 -285 -6l14 45l76 4q38 2 65 17t46 47.5t29.5 63.5t25.5 87l283 1057h-62
q-71 0 -127.5 -6.5t-115 -26t-103 -51.5t-83 -85.5t-64.5 -125.5h-41l92 346h1204l-4 -346h-39q-3 78 -26.5 133.5t-56 86.5t-83.5 48.5t-96.5 22t-108.5 4.5h-90z" />
    <glyph glyph-name="afii10061" unicode="&#x40c;" horiz-adv-x="1478" 
d="M393 1323l13 45l307 -6q64 -2 282 6l-12 -45l-74 -4q-26 -1 -47.5 -8.5t-37 -23t-26.5 -29t-20.5 -38.5t-13.5 -38t-11.5 -41.5l-9.5 -36.5l-100 -369h135q34 0 67.5 10.5t60.5 25.5t56.5 42t51 51t50 62t46.5 64.5l46.5 70l45.5 67.5q180 263 365 263q58 0 87 -30.5
t29 -74.5q0 -48 -39.5 -85.5t-103.5 -37.5q-40 0 -77 22.5t-54 22.5q-30 0 -57 -20q-32 -22 -58.5 -61l-77 -119t-114.5 -162q-41 -51 -78.5 -82.5t-95.5 -52.5v-6q50 -18 88.5 -46t62.5 -55t45.5 -72t32 -76t27.5 -89q6 -20 16.5 -60l17 -63t18.5 -54t24 -48t30.5 -29.5
t40.5 -12.5q60 0 119 80l41 -24q-120 -183 -281 -183q-39 0 -71.5 9.5t-54 22t-40 37t-28 40.5t-19.5 49t-12.5 45.5t-9.5 44.5l-57 275q0 1 -3.5 18t-5 22t-6 22t-8 23.5l-11 21.5t-15 21.5l-19 16.5t-24 15t-30 8.5t-36.5 3.5h-135l-101 -379q-35 -132 -35 -166
q0 -73 86 -78l93 -4l-13 -45l-307 6q-64 2 -282 -6l12 45l76 4q31 2 55 13.5t39.5 27.5t29 47t21.5 56.5t20 70.5l220 815q32 120 32 166q0 25 -8 41.5t-22.5 23.5t-26 9.5t-27.5 3.5zM965 1526l360 315q3 2 8.5 7.5t9.5 9t11 7.5t16 7q18 6 41 6q27 0 44.5 -22.5
t17.5 -51.5q0 -18 -6 -32.5t-21.5 -27t-24.5 -18t-35 -18.5l-32 -16l-316 -166h-73z" />
    <glyph glyph-name="afii10062" unicode="&#x40e;" horiz-adv-x="1259" 
d="M874 1323l-36 -4q-4 0 -20 -1.5t-22 -2.5t-20 -3t-21 -4.5l-18 -6.5t-16.5 -9.5t-11.5 -13t-8.5 -17.5t-2.5 -22q0 -43 17 -86l209 -621l340 529q71 111 71 186q0 18 -6 31t-13.5 20t-22 11.5t-23 5.5t-25.5 2.5t-20 1.5l-37 4l12 45q144 -8 236 -8q77 0 213 8l-13 -45
q-50 -5 -88 -21.5t-71 -50t-53.5 -62t-55.5 -83.5l-516 -805q-106 -167 -200 -247.5t-212 -80.5q-79 0 -122.5 34.5t-43.5 86.5q0 55 38.5 91t99.5 36q66 0 108 -55q2 -3 10.5 -14t12 -15t11 -11.5t15 -10t15.5 -2.5q27 0 71 45t78 94l39 59l-270 824q-31 95 -67 137.5
t-113 50.5l12 45q108 -8 278 -8q153 0 275 8zM1059 1470q-78 0 -146 20t-116.5 67t-48.5 114q0 64 39.5 98.5t86.5 34.5q28 0 53 -15.5t25 -49.5q0 -28 -8 -47q-4 -8 -24 -39q-23 -35 -23 -54q0 -36 52 -57.5t116 -21.5q100 0 160.5 35.5t60.5 80.5q0 18 -4 32t-4 32
q0 46 33 75t84 29q41 0 63.5 -20.5t22.5 -54.5q0 -59 -55 -118.5t-154.5 -100t-212.5 -40.5z" />
    <glyph glyph-name="afii10145" unicode="&#x40f;" horiz-adv-x="1646" 
d="M1317 289q-33 -122 -33 -166q0 -33 17 -54t67 -24l94 -4l-12 -45l-311 6q-38 1 -71.5 -1t-79 -9t-83 -19t-79 -35.5t-73.5 -55t-59 -79.5t-41 -108l-12 -51h-49l14 53q13 49 16 90t-4 70.5t-21 53.5t-35 38.5t-46 26t-53.5 16t-58 8t-59.5 2.5t-58 0q-112 0 -287 -6
l12 45l74 4q73 4 104 48t64 167l217 815l12.5 47l12 46t7 35t3.5 38q0 73 -86 78l-92 4l12 45l307 -6q65 -2 283 6l-12 -45l-76 -4q-66 -3 -100 -49.5t-66 -165.5l-256 -957q-12 -46 -2 -62.5t51 -16.5h522q27 0 40.5 3.5t28 23t25.5 59.5l246 921l12.5 47l12 46t7 35
t3.5 38q0 73 -86 78l-92 4l12 45l307 -6q65 -2 283 6l-12 -45l-76 -4q-66 -3 -100 -49.5t-66 -165.5z" />
    <glyph glyph-name="afii10017" unicode="&#x410;" horiz-adv-x="1331" 
d="M995 1389l176 -1184q11 -82 41.5 -120t104.5 -42l35 -2l-13 -45q-117 6 -262 6q-14 0 -284 -6l12 45l35 2q27 2 46 5.5t42.5 12.5t36 27.5t12.5 46.5q0 72 -8 129l-45 299h-404q-40 -64 -122.5 -228.5t-82.5 -209.5q0 -79 113 -82l51 -2l-10 -45l-223 6l-228 -6l13 45
q53 9 94 32t82 73t74.5 105.5t87.5 156.5l303.5 548t261.5 433h61zM557 631h356l-73 502l-106.5 -183.5l-95 -164.5z" />
    <glyph glyph-name="afii10018" unicode="&#x411;" horiz-adv-x="1306" 
d="M393 1323l13 45q495 -9 964 0l19 -313h-41q-10 47 -24.5 84.5t-35.5 64t-41.5 46t-51 31.5t-53.5 19t-59.5 10.5t-59.5 4t-62 0.5h-80l-82 -2l-146 -543q67 6 135 6q39 0 62.5 -0.5t69.5 -3.5t77 -8.5t75 -16.5t74 -26.5t63 -40.5t52.5 -56.5t32.5 -75t13 -95.5
q0 -58 -19.5 -117.5t-67.5 -121.5t-119 -109t-183.5 -76.5t-251.5 -28.5l-318 2q-153 0 -282 -6l12 45l76 4q31 2 55 13.5t39.5 27.5t29 47t21.5 56.5t20 70.5l220 815q32 119 32 166q0 25 -7.5 41.5t-22 23.5t-26 9.5t-28.5 3.5zM639 721l-92 -348q-41 -153 -41 -193
q0 -42 13.5 -70t38 -40.5t46 -16.5t49.5 -4q84 0 155 25.5t120 69t84 100t51 118.5t16 125q0 46 -11 83t-28.5 61.5t-44.5 42.5t-52.5 27.5t-60 15t-60 7t-58.5 1.5q-84 0 -125 -4z" />
    <glyph glyph-name="afii10019" unicode="&#x412;" horiz-adv-x="1245" 
d="M66 -4l12 45l76 4q31 2 55 13.5t39.5 27.5t29 47t21.5 56.5t20 70.5l220 815q32 119 32 166q0 25 -7.5 41.5t-22 23.5t-26 9.5t-28.5 3.5l-94 4l13 45l307 -6l180 2q106 1 187.5 -16.5t130 -46t79.5 -67.5t42 -76.5t11 -78.5q0 -49 -14 -95t-46.5 -89.5t-80 -77
t-119 -56.5t-159.5 -30q50 -6 96.5 -19.5t95 -40.5t84 -63t58 -91t22.5 -122q0 -47 -11 -91t-37 -92t-75.5 -86.5t-119.5 -69.5t-177.5 -47t-241.5 -13l-270 6q-68 2 -282 -6zM651 760h84q80 0 144.5 13t107 34t74 52t48 60t26 66.5t12 64t2.5 58.5q0 37 -11 70.5t-37 67
t-79.5 53.5t-128.5 20q-63 0 -82.5 -18.5t-40.5 -92.5zM639 713l-111 -406q-28 -115 -28 -164q0 -44 38.5 -72t116.5 -28q75 0 137.5 17t104.5 44t74.5 65t51 76.5t30 82t15 77t3.5 66.5q0 242 -336 242h-96z" />
    <glyph glyph-name="afii10020" unicode="&#x413;" horiz-adv-x="1142" 
d="M393 1323l13 45q457 -9 964 0l19 -334h-56q-8 46 -20 83.5t-25 65.5t-34 49t-37.5 35t-45.5 23.5t-47.5 14t-54.5 7t-56 3t-61 0.5h-71l-82 -2l-275 -1024q-32 -119 -32 -166q0 -73 83 -78l93 -4l-13 -45l-307 6q-64 2 -282 -6l12 45l76 4q31 2 55 13.5t39.5 27.5t29 47
t21.5 56.5t20 70.5l220 815q32 119 32 166q0 25 -7.5 41.5t-22 23.5t-26 9.5t-28.5 3.5z" />
    <glyph glyph-name="afii10021" unicode="&#x414;" horiz-adv-x="1456" 
d="M1241 -371h-45q6 52 6.5 96t-5.5 78t-14.5 61.5t-23.5 47t-29.5 34.5t-35.5 24.5t-38.5 15.5t-41 9t-41.5 4t-41 1h-471q-50 0 -84 -3.5t-79 -14.5t-80.5 -35.5t-76 -64.5t-79.5 -103.5t-78 -149.5h-45l116 439h78q90 0 277 237q254 323 407 723q43 111 43 182
q0 97 -162 109l-30 2l12 47l134 -3.5l76.5 -2t31.5 -0.5h565q96 0 239 6l-12 -47l-43 -4q-35 -3 -62.5 -11.5t-47 -18t-36.5 -30.5t-27 -36t-22 -49t-18.5 -55.5t-19.5 -69.5l-242 -897q-8 -36 -8 -50q0 -19 11.5 -25.5t45.5 -6.5h113zM1008 170l276 1040q4 12 4 47
q0 17 -11.5 25.5t-19 9t-22.5 0.5h-166q-57 0 -77.5 -23t-56.5 -117l-11 -28l-87 -210l-72 -163.5t-69 -135.5l-59.5 -105t-62.5 -94l-59.5 -80l-68.5 -86l-73 -92q-13 -17 -28.5 -33t-20.5 -23t-5 -14q0 -20 41 -20h547q38 0 61.5 21.5t39.5 80.5z" />
    <glyph glyph-name="afii10022" unicode="&#x415;" horiz-adv-x="1275" 
d="M393 1323l13 45q138 -6 284 -6q86 0 308.5 2.5t390.5 3.5l30 -313h-41q-9 42 -22.5 76.5t-27.5 60t-35.5 45.5t-39.5 33t-47 21.5t-49.5 13.5t-56.5 7t-58 2.5t-63 0.5h-123l-57 -2l-148 -549h70q61 0 96.5 2.5t79 14.5t70.5 34.5t53.5 64.5t44.5 103h41l-109 -532h-45
l6 98q3 47 -11 79.5t-35 49.5t-59.5 26t-68.5 11t-79 2h-66l-123 -455q-18 -65 -18 -96q0 -56 47 -84.5t178 -32.5h63q37 0 57.5 1t56 4t57.5 8.5t54.5 16t54.5 25.5t50.5 38t50 52.5t45 69t43.5 88.5h48l-97 -356l-375 4q-316 4 -462 4q-127 0 -303 -8l12 45l45 4
q38 4 68 20t50.5 38.5t39 60t30 72t25.5 86.5l211 784q7 26 11.5 48t6.5 42t2.5 28.5t0 27.5t-0.5 20q0 14 -6 23t-19 13t-23 5.5t-28.5 2t-25.5 1.5z" />
    <glyph glyph-name="afii10024" unicode="&#x416;" horiz-adv-x="2134" 
d="M1100 1323l12 45l307 -6q65 -2 283 6l-12 -45l-74 -4q-31 -2 -55 -13.5t-40 -28t-30 -46.5t-22.5 -56.5t-20.5 -70.5l-98 -369h135q49 0 95 19t79 44t72 72t61 80l60.5 92l56.5 86q42 61 77 103.5t79 81.5t93 58.5t103 19.5q64 0 96.5 -31t32.5 -76q0 -46 -34.5 -86.5
t-98.5 -40.5q-40 0 -68 17q-7 4 -23.5 17t-28.5 18t-28 5q-22 0 -46 -16t-49.5 -48.5t-43.5 -58.5t-45 -70.5t-37 -59.5q-73 -112 -122.5 -164.5t-123.5 -85.5v-9q45 -13 80 -37t57 -49.5t42 -68t30.5 -75.5t26.5 -89q52 -188 73.5 -235.5t65.5 -47.5q64 0 113 80l53 -24
q-66 -93 -134.5 -138t-156.5 -45q-53 0 -92.5 18t-61.5 42.5t-37.5 63t-21.5 66t-12 65.5q-1 10 -2 14l-41 254q-10 57 -27.5 94t-41.5 52.5t-43.5 20.5t-45.5 5h-135l-100 -379q-35 -132 -35 -166q0 -73 86 -78l92 -4l-12 -45l-307 6q-65 2 -283 -6l12 45l76 4q38 2 65 17
t46 47.5t29.5 63.5t25.5 87l109 408h-136q-74 0 -134.5 -44t-116.5 -128l-181 -275l-49.5 -73t-54.5 -64.5t-69.5 -59t-84 -36t-108.5 -15.5q-21 0 -40.5 2.5t-49.5 13.5t-52.5 29.5t-42 55.5t-26.5 86l57 20q11 -45 33 -62.5t45 -17.5q24 0 48.5 13t54.5 43.5t51.5 55.5
t62.5 76.5l64 78.5q67 80 112 127.5t101.5 95.5t114.5 74.5t126 37.5v9q-57 33 -80.5 87t-42.5 169q-3 17 -7 58.5t-8.5 68t-14 57.5t-27.5 47t-45 16q-15 0 -39 -12q-5 -3 -26 -18t-37.5 -21t-38.5 -6q-38 0 -67.5 27.5t-29.5 77.5t42 89.5t122 39.5q42 0 76.5 -12.5
t58 -31t42 -49t28.5 -58.5t18.5 -67t12 -66t7.5 -65q1 -7 1 -10q7 -62 13.5 -98.5t21 -79.5t36 -65.5t57 -38t85.5 -15.5h135l92 340q33 122 33 166q0 25 -7.5 41.5t-22 23.5t-26 9.5t-28.5 3.5z" />
    <glyph glyph-name="afii10025" unicode="&#x417;" horiz-adv-x="1173" 
d="M420 942h-49l118 416h41l11 -82q176 115 381 115q90 0 160 -26t110 -67.5t60 -88.5t20 -95q0 -58 -25.5 -119t-72 -115t-119.5 -95t-160 -56v-8q120 -5 198 -84t78 -199q0 -88 -49 -172t-133 -149t-206 -104.5t-259 -39.5q-187 0 -296 76t-109 180q0 59 35 96t77 37
q44 0 75.5 -27t31.5 -79q0 -13 -4 -37q-3 -13 -12.5 -34t-10.5 -31q-1 -18 9 -38t33.5 -41.5t71 -35.5t112.5 -14q101 0 186.5 40t138.5 103t82 135t29 141q0 238 -291 238h-117l17 61h125q76 0 141.5 25t109.5 65t75.5 90.5t46 101.5t14.5 97q0 55 -19 102t-68.5 81
t-123.5 34q-68 0 -128.5 -22.5t-107 -58t-90 -89.5t-74.5 -107t-63 -120z" />
    <glyph glyph-name="afii10026" unicode="&#x418;" horiz-adv-x="1638" 
d="M393 1323l13 45l307 -6q64 -2 282 6l-12 -45l-74 -4q-39 -2 -66 -17t-46 -46.5t-30.5 -64t-25.5 -87.5l-198 -748l923 779q19 78 19 106q0 25 -7.5 41.5t-22 23.5t-26 9.5t-28.5 3.5l-94 4l12 45l307 -6q65 -2 283 6l-13 -45l-73 -4q-24 -1 -44.5 -8.5t-35 -16.5
t-27.5 -28t-20.5 -32t-17 -41t-13 -42t-12.5 -47l-217 -815q-33 -125 -33 -166q0 -73 86 -78l92 -4l-12 -45l-307 6q-65 2 -283 -6l12 45l76 4q38 2 65 17t46 47.5t29.5 63.5t25.5 87l209 782l-924 -778q-29 -85 -29 -141q0 -73 86 -78l93 -4l-13 -45l-307 6q-64 2 -282 -6
l12 45l76 4q31 2 55 13.5t39.5 27.5t29 47t21.5 56.5t20 70.5l220 815q32 119 32 166q0 25 -7.5 41.5t-22 23.5t-26 9.5t-28.5 3.5z" />
    <glyph glyph-name="afii10027" unicode="&#x419;" horiz-adv-x="1638" 
d="M393 1323l13 45l307 -6q64 -2 282 6l-12 -45l-74 -4q-39 -2 -66 -17t-46 -46.5t-30.5 -64t-25.5 -87.5l-198 -748l923 779q19 78 19 106q0 25 -7.5 41.5t-22 23.5t-26 9.5t-28.5 3.5l-94 4l12 45l307 -6q65 -2 283 6l-13 -45l-73 -4q-39 -2 -66 -17t-46 -46.5t-30.5 -64
t-25.5 -87.5l-217 -815q-3 -14 -12.5 -49t-12.5 -48.5t-6.5 -34t-3.5 -34.5q0 -73 86 -78l92 -4l-12 -45l-307 6q-65 2 -283 -6l12 45l76 4q38 2 65 17t46 47.5t29.5 63.5t25.5 87l209 782l-924 -778q-29 -85 -29 -141q0 -73 86 -78l93 -4l-13 -45l-307 6q-64 2 -282 -6
l12 45l76 4q31 2 55 14t38.5 27t29 47.5t22 55.5t20.5 71l222 815q6 19 18 78.5t12 87.5q0 25 -7.5 41.5t-22 23.5t-26 9.5t-28.5 3.5zM1182 1470q-78 0 -146.5 20t-117 67t-48.5 114q0 64 40 98.5t87 34.5q28 0 53 -15.5t25 -49.5q0 -19 -5 -35.5t-10.5 -25t-17.5 -25.5
q-22 -33 -22 -54q0 -36 52 -57.5t116 -21.5q100 0 160.5 35.5t60.5 80.5q0 18 -4 32t-4 32q0 46 33 75t84 29q41 0 63.5 -20.5t22.5 -54.5q0 -59 -55 -118.5t-154.5 -100t-212.5 -40.5z" />
    <glyph glyph-name="afii10028" unicode="&#x41a;" horiz-adv-x="1478" 
d="M393 1323l13 45l307 -6q64 -2 282 6l-12 -45l-74 -4q-26 -1 -47.5 -8.5t-37 -23t-26.5 -29t-20.5 -38.5t-13.5 -38t-11.5 -41.5l-9.5 -36.5l-100 -369h135q34 0 67.5 10.5t60.5 25.5t56.5 42t51 51t50 62t46.5 64.5l46.5 70l45.5 67.5q180 263 365 263q58 0 87 -30.5
t29 -74.5q0 -48 -39.5 -85.5t-103.5 -37.5q-40 0 -77 22.5t-54 22.5q-30 0 -57 -20q-32 -22 -58.5 -61l-77 -119t-114.5 -162q-41 -51 -78.5 -82.5t-95.5 -52.5v-6q50 -18 88.5 -46t62.5 -55t45.5 -72t32 -76t27.5 -89q6 -20 16.5 -60l17 -63t18.5 -54t24 -48t30.5 -29.5
t40.5 -12.5q60 0 119 80l41 -24q-120 -183 -281 -183q-39 0 -71.5 9.5t-54 22t-40 37t-28 40.5t-19.5 49t-12.5 45.5t-9.5 44.5l-57 275q0 1 -3.5 18t-5 22t-6 22t-8 23.5l-11 21.5t-15 21.5l-19 16.5t-24 15t-30 8.5t-36.5 3.5h-135l-101 -379q-35 -132 -35 -166
q0 -73 86 -78l93 -4l-13 -45l-307 6q-64 2 -282 -6l12 45l76 4q31 2 55 13.5t39.5 27.5t29 47t21.5 56.5t20 70.5l220 815q32 120 32 166q0 25 -8 41.5t-22.5 23.5t-26 9.5t-27.5 3.5z" />
    <glyph glyph-name="afii10029" unicode="&#x41b;" horiz-adv-x="1490" 
d="M705 1321l12 47q186 -6 241 -6h564q100 0 239 6l-12 -47l-41 -4q-40 -4 -69 -12t-51.5 -24t-37.5 -34t-29.5 -51t-24 -64.5t-23.5 -84.5l-195 -730q-10 -38 -17 -69t-9.5 -54t-3 -34.5t0 -28.5t0.5 -18q0 -34 31 -47t88 -19l41 -4l-14 -47q-135 6 -236 6h-131
q-97 0 -240 -6l15 47l41 4q113 11 160 71q32 41 64 157q2 7 11 42l240 893q6 30 6 47q0 35 -55 35h-160q-55 0 -76.5 -24.5t-60.5 -128.5q-82 -223 -138.5 -364t-120.5 -276t-126 -225.5t-133 -158.5q-148 -142 -289 -142q-67 0 -101 31.5t-34 77.5q0 59 45.5 97t103.5 38
q42 0 74 -37l7.5 -11.5t8.5 -12t8.5 -8.5t13 -7t17.5 -2q28 0 62.5 19.5t91 84t117.5 169.5q120 209 272 616q43 116 43 182q0 97 -160 109z" />
    <glyph glyph-name="afii10030" unicode="&#x41c;" horiz-adv-x="1832" 
d="M1034 295l643 1073l156 -6q106 -4 223 6l-12 -45l-43 -4q-75 -7 -95 -18q-35 -18 -54 -88q-13 -44 -29 -140l-131 -772q-19 -116 -19 -151q0 -58 32 -80.5t73 -24.5l75 -4l-12 -45q-168 9 -293 6l-284 -6l12 45l61 4q23 2 41.5 6.5t33 14t25 18t19 25.5l13.5 27t10 32.5
l7.5 33.5t6.5 37.5t6 36.5l168 965l-743 -1241h-29l-225 1251l-224 -827q-55 -209 -55 -277q0 -37 20 -62t47.5 -33t57.5 -12t51 1l-10 -45l-258 6l-227 -6l12 45q122 1 181 79q40 53 83 200l13 48l22 74l203 686q26 86 26 119q0 42 -30 57t-90 17l-52 2l13 45
q141 -9 231 -6l154 6z" />
    <glyph glyph-name="afii10031" unicode="&#x41d;" horiz-adv-x="1615" 
d="M1561 41l-13 -45l-303 6q-118 3 -287 -6l13 45l76 4q63 3 98 49t67 166l109 406h-696l-101 -377q-1 -3 -7 -28l-12 -48.5t-11 -51.5t-5 -44q0 -12 1.5 -19.5t8 -21t26 -22t50.5 -9.5l93 -4l-13 -45l-303 6q-117 3 -286 -6l12 45l76 4q63 3 98 49t67 166l218 815
q32 118 32 172q0 11 -1.5 19t-8.5 21.5t-26 22t-48 9.5l-94 4l12 45l304 -6q117 -3 286 6l-12 -45l-74 -4q-58 -3 -96.5 -46.5t-71.5 -168.5l-98 -373h696l93 344q32 114 32 172q0 11 -1.5 19t-8.5 21.5t-26 22t-48 9.5l-94 4l12 45l303 -6q118 -3 287 6l-12 -45l-74 -4
q-58 -3 -96.5 -46.5t-71.5 -168.5l-215 -815q-1 -3 -7 -28l-12 -48.5t-11 -51.5t-5 -44q0 -12 1.5 -19.5t8 -21t26 -22t50.5 -9.5z" />
    <glyph glyph-name="afii10032" unicode="&#x41e;" horiz-adv-x="1437" 
d="M1556 872q0 -127 -38.5 -257t-111.5 -244t-169 -204t-221 -142t-258 -52q-100 0 -188 32t-159 95t-112 167t-41 237q0 129 35 249.5t95 216.5t139.5 176t169.5 133t185 82.5t185 29.5q145 0 257.5 -70.5t172 -188t59.5 -260.5zM1362 967q0 94 -24.5 168.5t-66 118.5
t-91 66.5t-103.5 22.5q-120 0 -235 -90.5t-196 -229t-131 -305.5t-50 -317q0 -91 20 -161t50 -110.5t70.5 -66.5t76 -34.5t72.5 -8.5q98 0 192.5 58t168 156t130 219.5t87 255.5t30.5 258z" />
    <glyph glyph-name="afii10033" unicode="&#x41f;" horiz-adv-x="1585" 
d="M393 1323l13 45l307 -6h860q147 0 282 6l-12 -45l-74 -4q-40 -2 -66.5 -15.5t-43.5 -42.5t-27.5 -60.5t-24.5 -83.5q-2 -9 -3 -13l-220 -815l-10 -38.5l-10 -38.5t-7 -30t-5.5 -32.5t-1.5 -26.5q0 -73 86 -78l92 -4l-12 -45l-308 6q-64 2 -282 -6l12 45l76 4
q66 3 100 49.5t66 165.5l256 957q6 23 6 39t-3.5 23.5t-13 11.5t-15.5 4.5t-19 0.5h-5h-522q-27 0 -40.5 -3.5t-28 -23t-25.5 -59.5l-246 -921l-12.5 -47l-12 -46t-7 -35t-3.5 -38q0 -73 86 -78l93 -4l-13 -45l-307 6q-64 2 -282 -6l12 45l76 4q66 3 99 49.5t66 165.5
l220 815q32 119 32 166q0 33 -17 54t-67 24z" />
    <glyph glyph-name="afii10034" unicode="&#x420;" horiz-adv-x="1210" 
d="M391 1323l12 45l517 -4q180 -3 279 -35q216 -70 216 -280q0 -56 -17 -110t-60.5 -110t-110.5 -97.5t-176.5 -68t-247.5 -26.5q-106 0 -182 10l-97 -358q-2 -10 -11.5 -45t-12.5 -48.5t-7 -36t-4 -36.5q0 -73 86 -78l103 -4l-12 -45l-318 6q-60 2 -282 -6l12 45l76 4
q31 2 55 13.5t39.5 27.5t29 47t21.5 56.5t20 70.5l218 815q32 121 32 166q0 25 -7.5 41.5t-22 23.5t-26 9.5t-28.5 3.5zM778 1241l-145 -543q56 -10 135 -10q108 0 194.5 31.5t140.5 84t82.5 118t28.5 137.5q0 50 -14 93t-45 80.5t-89.5 59t-139.5 21.5q-15 0 -38 0.5
t-31.5 0.5t-23 -1.5t-19.5 -6t-13.5 -13t-13 -21t-9.5 -31.5z" />
    <glyph glyph-name="afii10035" unicode="&#x421;" horiz-adv-x="1290" 
d="M1481 1360l-78 -387h-43q-3 180 -71 276.5t-216 96.5q-102 0 -208.5 -67t-194.5 -183t-144.5 -291t-56.5 -371q0 -199 91 -306.5t259 -107.5q152 0 260.5 84.5t200.5 262.5l35 67h43l-109 -436h-22l-27 106q-189 -131 -381 -131q-174 0 -260 39q-131 56 -216 184.5
t-85 305.5q0 124 38.5 252t110.5 241t166.5 202.5t217 141.5t251.5 52q173 0 347 -107l73 76h19z" />
    <glyph glyph-name="afii10036" unicode="&#x422;" horiz-adv-x="1331" 
d="M1102 1317l-275 -1028q-32 -120 -32 -166q0 -73 84 -78l92 -4l-15 -45l-305 6q-60 2 -284 -6l14 45l76 4q38 2 65 17t46 47.5t29.5 63.5t25.5 87l282 1057h-86q-71 0 -127.5 -6.5t-115 -26t-103 -51.5t-83 -85.5t-64.5 -125.5h-41l92 346h1204l-4 -346h-39
q-3 78 -26.5 133.5t-56 86.5t-83.5 48.5t-96.5 22t-108.5 4.5h-65z" />
    <glyph glyph-name="afii10037" unicode="&#x423;" horiz-adv-x="1259" 
d="M874 1323l-36 -4q-4 0 -20 -1.5t-22 -2.5t-20 -3t-21 -4.5l-18 -6.5t-16.5 -9.5t-11.5 -13t-8.5 -17.5t-2.5 -22q0 -43 17 -86l209 -621l340 529q71 111 71 186q0 18 -6 31t-13.5 20t-22 11.5t-23 5.5t-25.5 2.5t-20 1.5l-37 4l12 45q123 -6 152 -6h84h73q23 0 140 6
l-13 -45q-50 -5 -88 -21.5t-71 -50t-53.5 -62t-55.5 -83.5l-516 -805q-50 -77 -92 -130.5t-93 -101.5t-108 -72t-119 -24q-76 0 -121 35.5t-45 85.5q0 54 39.5 88.5t98.5 34.5q64 0 108 -57q2 -3 12.5 -17.5t15.5 -19.5t15 -11t21 -6q54 0 149 146l39 59l-270 824
q-31 95 -67 137.5t-113 50.5l12 45q88 -6 170 -6h108q171 0 275 6z" />
    <glyph glyph-name="afii10038" unicode="&#x424;" horiz-adv-x="1634" 
d="M532 -4l13 45l76 4q54 3 90.5 40t62.5 132l8 31h-37q-74 0 -143 12t-132 39.5t-109.5 67.5t-74.5 101t-28 136q0 102 51 202t142.5 181.5t232.5 131.5t307 50h39l8 21q17 45 17 94q0 73 -86 78l-92 4l12 45l307 -6q65 -2 283 6l-13 -45l-75 -4q-26 -1 -47.5 -10.5
t-34 -18.5t-26 -31t-18 -33l-16 -41l-14.5 -38l-8 -21h39q221 0 354 -97t133 -267q0 -79 -30.5 -158t-92.5 -150.5t-148 -127t-205.5 -88.5t-256.5 -33h-41l-8 -31q-15 -59 -15 -94q0 -73 86 -78l93 -4l-13 -45l-307 6q-65 2 -283 -6zM1212 1118l-219 -819h21q91 0 175.5 34
t147 89.5t110 125t71.5 143t24 140.5q0 123 -84 205t-227 82h-19zM797 299l219 819h-19q-131 0 -253 -71.5t-198.5 -195.5t-76.5 -265q0 -135 88.5 -211t222.5 -76h17z" />
    <glyph glyph-name="afii10039" unicode="&#x425;" horiz-adv-x="1333" 
d="M956 752l222 -488q44 -96 60 -123q65 -100 184 -100h8l-11 -45l-270 6q-125 3 -285 -6l13 45l45 4q61 5 78 15q24 14 24 46q0 46 -68 195l-139 305l-186 -205q-195 -215 -195 -286q0 -15 5 -26.5t15.5 -18.5t20.5 -12t27 -7.5l26.5 -4t27 -2.5t22.5 -1l22 -2l-12 -45
l-252 6l-227 -6l12 45q42 6 78.5 19.5t61.5 28t59 48t53.5 55t64 75l72.5 85.5l276 320l-198 442q-49 107 -93 153.5t-100 51.5l-53 4l12 45q187 -8 281 -6l276 6l-12 -45h-22h-29.5t-27 -1.5t-28 -5t-20.5 -9t-17 -15.5t-5 -24q0 -59 22 -109l156 -350l194 215
q49 54 102.5 129t53.5 113q0 19 -8.5 31t-26 17.5t-34 7t-42.5 1.5h-36l14 45q117 -6 143 -6h80h84q25 0 154 6l-13 -45q-58 -9 -102 -25.5t-78.5 -44t-54.5 -48t-53 -62t-52 -62.5z" />
    <glyph glyph-name="afii10040" unicode="&#x426;" horiz-adv-x="1585" 
d="M1253 1323l13 45l307 -6q64 -2 282 6l-12 -45l-76 -4q-66 -3 -99 -49.5t-66 -165.5l-256 -954q-7 -35 -7 -50q0 -21 16 -26.5t48 -5.5h121l-117 -439h-47q33 318 -174 364q-42 9 -123 9h-715q-147 0 -282 -6l12 45l74 4q72 4 103 48t64 167l218 815q3 13 10 38.5t10 37.5
t7 30t5.5 32t1.5 28q0 73 -86 78l-92 4l13 45l307 -6q64 -2 282 6l-12 -45l-76 -4q-66 -3 -100 -49.5t-66 -165.5l-256 -957q-6 -23 -6 -39t3.5 -23.5t13 -11.5t15.5 -4.5t19 -0.5h5h522q27 0 40.5 3.5t28 23t25.5 59.5l246 921l12.5 47l12 46t7 35t3.5 38q0 73 -86 78z" />
    <glyph glyph-name="afii10041" unicode="&#x427;" horiz-adv-x="1390" 
d="M1059 1323l12 45l307 -6q65 -2 283 6l-12 -45l-72 -4q-41 -2 -69 -17.5t-46 -47t-28.5 -60.5t-23.5 -78l-3 -12l-217 -815q-37 -132 -37 -166q0 -71 86 -78l92 -4l-12 -45l-307 6q-65 2 -283 -6l12 45l76 4q31 2 55 14t39 27t29.5 47t22 56t20.5 71l92 340
q-171 -57 -330 -57q-204 0 -292 55q-97 61 -97 209q0 26 23 111l43 157q1 2 7 26.5t11 47t10 49.5t5 43q0 25 -7.5 41.5t-22 23.5t-26 9.5t-28.5 3.5l-95 4l13 45l307 -6q65 -2 283 6l-13 -45l-73 -4q-39 -2 -66 -17t-46 -46.5t-30.5 -64t-25.5 -87.5l-50 -184
q-24 -98 -24 -142q0 -26 2.5 -45t15.5 -44t36 -40.5t67 -27t106 -11.5q141 0 314 52l110 413q33 121 33 166q0 34 -15.5 54.5t-64.5 23.5z" />
    <glyph glyph-name="afii10042" unicode="&#x428;" horiz-adv-x="2187" 
d="M1853 1323l13 45l307 -6q61 -2 285 6l-13 -45l-73 -4q-87 -4 -129 -88q-19 -38 -50 -156l-217 -815q-28 -112 -28 -137q0 -73 86 -78l92 -4l-12 -45l-308 6h-1464q-144 0 -279 -6l13 45l78 4q17 1 32 5t26.5 8.5t23 15.5t18.5 17t15 23t12 23.5t11 28.5t9 29l9 33t9 32
l220 815q28 115 28 166q0 74 -80 78l-96 4l15 45l303 -6q40 -1 108 0.5t123 3.5t57 2l-14 -45l-72 -4q-18 -1 -34 -5.5t-28 -9t-24 -16.5l-19 -18.5t-16 -25.5t-13.5 -27t-12 -32.5l-10 -33l-11 -38t-10.5 -38.5l-250 -921q-12 -49 -2 -66q12 -20 51 -20h398q20 0 34.5 4
t23 8t15 15.5t8.5 16.5t6 21.5l5 20.5l248 921q28 100 28 160q0 80 -79 84l-97 4l13 45l305 -6q62 -2 286 6l-12 -45l-72 -4q-24 -1 -43.5 -8.5t-34.5 -17.5t-28 -29.5t-21.5 -35.5t-18.5 -45.5t-16 -50l-16 -57.5l-247 -921q-11 -33 -11 -50q0 -16 9.5 -24.5t19.5 -10
t29 -1.5h395q47 0 63.5 15.5t30.5 70.5l248 921q31 120 31 166q0 71 -82 78z" />
    <glyph glyph-name="afii10043" unicode="&#x429;" horiz-adv-x="2172" 
d="M1841 1323l12 45l308 -6q60 -2 284 6l-12 -45l-74 -4q-24 -1 -44.5 -9t-34.5 -17t-27.5 -29.5t-20.5 -32.5t-17 -42.5t-13.5 -42.5t-12.5 -48l-6 -23l-246 -921q-10 -37 -10 -54q0 -21 16 -26.5t48 -5.5h120l-116 -439h-47q33 318 -174 364q-42 9 -123 9h-1309
q-144 0 -279 -6l13 45l78 4q17 1 32 5t26.5 8.5t23 15.5t18.5 17t15 23t12 23.5t11 28.5t9 29l9 33t9 32l220 815q28 115 28 166q0 74 -80 78l-96 4l15 45l303 -6q40 -1 108 0.5t123 3.5t57 2l-14 -45l-72 -4q-87 -4 -128 -87q-18 -37 -50 -157l-244 -921q-1 -3 -5 -17
t-5 -20t-0.5 -17.5t5.5 -17t17 -10t31 -4.5h392q20 0 34.5 4t23 8t15 15.5t8.5 16.5t6 21.5l5 20.5l248 921q28 100 28 160q0 80 -80 84l-96 4l12 45l306 -6q62 -2 286 6l-12 -45l-72 -4q-24 -1 -43.5 -8.5t-34.5 -17.5t-28 -29.5t-21.5 -35.5t-18.5 -45.5t-16 -50
l-16 -57.5l-246 -921q-12 -46 -12 -50q0 -16 10 -24.5t20 -10t27 -1.5h390q47 0 63.5 15.5t30.5 70.5l248 921q30 116 30 166q0 71 -82 78z" />
    <glyph glyph-name="afii10044" unicode="&#x42a;" horiz-adv-x="1482" 
d="M225 1059l82 309l555 -4q231 0 320 4l-13 -45l-73 -4q-31 -2 -55 -14t-39 -27t-29.5 -47t-22 -56t-20.5 -71l-90 -334q70 6 141 6q121 0 216 -17.5t155.5 -47.5t100 -72.5t55.5 -88.5t16 -99q0 -50 -14 -100t-44 -103.5t-82.5 -98.5t-123 -81t-173 -55t-225.5 -17l-325 6
q-60 2 -283 -6l12 45l76 4q38 2 65 17t46 47.5t29.5 63.5t25.5 87l272 1016q5 22 -11 28.5t-50 6.5h-94q-139 0 -223 -60t-134 -192h-43zM825 721l-110 -416q-29 -107 -29 -141q0 -27 5 -45t20.5 -35.5t49.5 -26t87 -8.5q95 0 173 29t127 74t83.5 102.5t48.5 112t14 104.5
q0 254 -338 254q-88 0 -131 -4z" />
    <glyph glyph-name="afii10045" unicode="&#x42b;" horiz-adv-x="1974" 
d="M393 1323l13 45l307 -6q64 -2 282 6l-12 -45l-74 -4q-39 -2 -66 -17t-46 -46.5t-30.5 -64t-25.5 -87.5l-88 -334q70 6 142 6q121 0 215.5 -17.5t155 -47.5t100 -72.5t55.5 -88.5t16 -99q0 -31 -5.5 -65t-23.5 -79.5t-47 -87t-80 -83t-118 -71t-167 -48t-220 -17.5l-328 2
q-153 0 -282 -6l12 45l76 4q31 2 55 13.5t39.5 27.5t29 47t21.5 56.5t20 70.5l220 815q32 119 32 166q0 25 -7.5 41.5t-22 23.5t-26 9.5t-28.5 3.5zM641 721l-113 -416q-28 -98 -28 -141q0 -28 5 -46t20.5 -35.5t49.5 -25.5t87 -8q94 0 172 29.5t127.5 75.5t83.5 104.5
t48.5 114.5t14.5 108q0 244 -338 244q-86 0 -129 -4zM1642 1323l13 45l307 -6q65 -2 283 6l-13 -45l-73 -4q-38 -2 -65 -17t-46 -47.5t-29.5 -63.5t-25.5 -87l-217 -815l-12.5 -46.5l-11 -40t-7 -29.5t-5 -28t-1.5 -22q0 -73 86 -78l92 -4l-12 -45l-308 6q-64 2 -282 -6
l12 45l76 4q38 2 65 17t46 47.5t29.5 63.5t25.5 87l219 815q33 122 33 166q0 25 -7.5 41.5t-22 23.5t-26 9.5t-28.5 3.5z" />
    <glyph glyph-name="afii10046" unicode="&#x42c;" horiz-adv-x="1296" 
d="M393 1323l13 45l307 -6q64 -2 282 6l-12 -45l-74 -4q-39 -2 -66 -17t-46 -46.5t-30.5 -64t-25.5 -87.5l-88 -334q70 6 142 6q121 0 215.5 -17.5t155 -47.5t100 -72.5t55.5 -88.5t16 -99q0 -31 -5.5 -65t-23.5 -79.5t-47 -87t-80 -83t-118 -71t-167 -48t-220 -17.5l-328 2
q-153 0 -282 -6l12 45l76 4q31 2 55 13.5t39.5 27.5t29 47t21.5 56.5t20 70.5l220 815q32 119 32 166q0 25 -7.5 41.5t-22 23.5t-26 9.5t-28.5 3.5zM641 721l-111 -416q-3 -12 -12.5 -44.5t-13.5 -54.5t-4 -42q0 -28 5 -46t20.5 -35.5t49.5 -25.5t87 -8q94 0 172 29.5
t127.5 75.5t83.5 104.5t48.5 114.5t14.5 108q0 244 -338 244q-86 0 -129 -4z" />
    <glyph glyph-name="afii10047" unicode="&#x42d;" horiz-adv-x="1247" 
d="M408 647l-15 41q108 78 180.5 114t137.5 36q28 0 55 -8t40.5 -15.5t39 -25l31.5 -21.5q63 -37 122 -37q73 0 131 31q25 118 25 194q0 84 -18 151t-47.5 109.5t-69.5 71t-80.5 40t-83.5 11.5q-134 0 -262 -114t-186 -277h-50l109 412h35l6 -98q182 129 371 129
q100 0 182 -29t137.5 -78t94 -116.5t56 -143t17.5 -158.5q0 -56 -29 -178q-39 -152 -108.5 -275.5t-152 -204t-179 -135t-188 -77.5t-181.5 -23q-97 0 -174 23.5t-121.5 61t-67 80t-22.5 85.5q0 62 35 100.5t80 38.5q42 0 74.5 -25.5t32.5 -72.5q0 -26 -9 -47
q-5 -14 -11.5 -26.5t-9.5 -20t-3 -16.5q0 -17 10.5 -37.5t32.5 -42t65 -35.5t99 -14q184 0 332.5 161.5t246.5 518.5q-142 -91 -225 -91q-46 0 -98 27l-42.5 26t-49 29t-50 19.5t-63.5 9.5q-69 0 -182 -78z" />
    <glyph glyph-name="afii10048" unicode="&#x42e;" horiz-adv-x="2031" 
d="M645 735h256q41 150 123 275t185.5 207.5t221.5 128t236 45.5q143 0 254 -70.5t170 -188t59 -260.5q0 -105 -27.5 -213.5t-76.5 -208t-121.5 -187t-158.5 -152t-191.5 -101.5t-216.5 -37q-230 0 -361 147.5t-131 383.5q0 77 19 164h-258l-103 -379q-1 -4 -11.5 -40.5
t-17 -68t-6.5 -57.5q0 -73 86 -78l93 -4l-13 -45l-307 6q-64 2 -282 -6l12 45l76 4q31 2 55 13.5t39.5 27.5t29 47t21.5 56.5t20 70.5l220 815q32 119 32 166q0 25 -7.5 41.5t-22 23.5t-26 9.5t-28.5 3.5l-94 4l13 45l307 -6q64 -2 282 6l-12 -45l-74 -4q-39 -2 -66 -17
t-46 -46.5t-30.5 -64t-25.5 -87.5zM1956 956q0 85 -17 153t-44.5 111t-64.5 71.5t-75 40t-78 11.5q-134 0 -256 -100q-139 -115 -244.5 -369.5t-105.5 -472.5q0 -91 19.5 -161t49 -110.5t69.5 -66.5t74.5 -34.5t70.5 -8.5q52 0 106 17.5t113.5 55.5t119 110t109.5 170
q65 129 109.5 290t44.5 293z" />
    <glyph glyph-name="afii10049" unicode="&#x42f;" horiz-adv-x="1343" 
d="M1614 1368l-12 -45l-74 -4q-31 -2 -55 -13.5t-39.5 -27.5t-30 -46.5t-22.5 -56t-21 -71.5l-219 -815q-33 -123 -33 -166q0 -73 86 -78l92 -4l-12 -45l-307 6q-65 2 -283 -6l12 45l76 4q32 2 55 13t39.5 29.5t29 48.5t23 64t23.5 81q3 11 4 16l96 356h-137
q-137 0 -229 -151l-176 -291q-21 -36 -41.5 -64.5t-53.5 -62.5t-67 -57t-82 -38.5t-100 -15.5q-44 0 -79 13t-56 33.5t-35 47.5t-20 51.5t-7 49.5l49 12q18 -86 88 -86q26 0 53 15.5t56.5 48t52.5 61.5t59 79.5t58 78.5q92 120 171.5 182t215.5 113v6q-44 2 -86 11.5t-84 30
t-73 50t-50.5 74.5t-19.5 100t19 111.5t66 114t116.5 101.5t180.5 71t248 26q55 -1 146.5 -4t174.5 -2.5t214 6.5zM1053 702l149 553q3 15 4.5 28.5t-12 22.5t-41.5 9h-23q-104 0 -188.5 -26.5t-137.5 -67.5t-89 -95t-51 -106t-15 -102q0 -101 77 -158.5t194 -57.5h133z" />
    <glyph glyph-name="afii10065" unicode="&#x430;" horiz-adv-x="1046" 
d="M942 870h141l-49 -141q-90 -258 -133 -410t-43 -233q0 -47 35 -47q76 0 201 283l45 -19q-77 -175 -141.5 -252.5t-157.5 -77.5q-64 0 -91.5 38t-27.5 87q0 40 14 92l6 23l-6 2q-14 -25 -27.5 -46.5t-45 -60.5t-64.5 -66t-82.5 -48t-101.5 -21q-95 0 -161.5 66t-66.5 194
q0 77 27 160t71 155.5t99.5 137t114 111t112.5 69.5q70 31 142 31q62 0 103.5 -29.5t51.5 -81.5h6zM764 848q-67 0 -146.5 -77t-140.5 -184t-102 -221.5t-41 -187.5q0 -149 110 -149q154 0 295 288q46 96 86.5 221.5t40.5 194.5q0 63 -31 89t-71 26z" />
    <glyph glyph-name="afii10066" unicode="&#x431;" horiz-adv-x="858" 
d="M336 707l6 -5q61 84 149.5 139.5t180.5 55.5q118 0 193 -93.5t75 -244.5q0 -117 -43.5 -227t-112.5 -187.5t-156 -124.5t-173 -47q-38 0 -74 9.5t-72 32.5t-63 58t-43.5 91.5t-16.5 126.5q0 160 77.5 394.5t182.5 373.5q71 95 156 150t211 89q50 14 110 26l94.5 19
t68.5 18.5t52.5 29t26.5 45.5h49l-16 -47q-26 -74 -81.5 -122t-127.5 -70.5t-144.5 -38t-151.5 -38.5t-130 -57q-145 -97 -227 -356zM797 690q0 38 -9 67.5t-22 46t-31 27t-33.5 14t-31.5 3.5q-73 0 -140 -75.5t-109.5 -183.5t-67.5 -218.5t-25 -188.5q0 -48 13 -81.5
t34 -49t40.5 -22t39.5 -6.5q93 0 173.5 103t124.5 256t44 308z" />
    <glyph glyph-name="afii10067" unicode="&#x432;" horiz-adv-x="890" 
d="M696 477v-6q68 -12 105 -60t37 -114q0 -130 -114 -227t-278 -97q-124 0 -192 70t-68 188q0 72 23.5 159.5t72.5 177t114 163t156.5 120t192.5 46.5q103 0 160.5 -49.5t57.5 -122.5q0 -86 -74 -161.5t-193 -86.5zM389 469l107 4q153 6 243 89t90 183q0 8 -1 17.5t-7 25.5
t-16 28.5t-30.5 22t-47.5 9.5q-91 0 -181 -91t-157 -288zM373 418l-17 -56q-30 -102 -30 -184q0 -17 1.5 -32t9.5 -39t22 -41t42.5 -30t67.5 -13q97 0 154 76t57 173q0 44 -12 75t-32 45.5t-44.5 23.5t-49.5 8.5t-48 -0.5z" />
    <glyph glyph-name="afii10068" unicode="&#x433;" horiz-adv-x="729" 
d="M311 580l-47 20q37 92 103.5 168t152.5 109q51 20 131 20q81 0 124.5 -50.5t43.5 -117.5q0 -54 -21 -99.5t-58.5 -78t-69.5 -52t-74 -38.5q-118 -54 -163 -88q-101 -76 -91 -183q5 -49 38.5 -79.5t88.5 -30.5q29 0 59 9t66.5 31t75 68.5t71.5 112.5l43 -25l-20 -36
q-148 -267 -377 -267q-97 0 -153 54.5t-56 132.5q0 48 17.5 90t41 70t64 55t69 41.5t72.5 34.5q34 15 50.5 23t50 26t52 34t40 39t31.5 50.5t10 58.5q0 47 -30 80t-89 33q-46 0 -86.5 -19.5t-70.5 -53.5t-51.5 -68.5t-37.5 -73.5z" />
    <glyph glyph-name="afii10069" unicode="&#x434;" horiz-adv-x="923" 
d="M416 1296l-31 58q106 51 197 51q50 0 97.5 -12t96.5 -37.5t89.5 -71t72.5 -107t50 -151.5t18 -199q0 -193 -45.5 -356.5t-121 -271t-172.5 -167t-200 -59.5q-115 0 -198 83t-83 235q0 82 26 169t74 164t109 139t137 98t152 36q103 0 164 -63q6 56 6 110q0 87 -17.5 157.5
t-45 115t-63.5 74.5t-71.5 42.5t-70.5 12.5q-93 0 -170 -50zM682 848q-69 0 -135 -71t-110 -173t-70.5 -211t-26.5 -190q0 -83 34 -131.5t97 -48.5q127 0 228.5 194.5t136.5 523.5q-22 59 -67 83t-87 24z" />
    <glyph glyph-name="afii10070" unicode="&#x435;" horiz-adv-x="702" 
d="M715 270l39 -28q-19 -31 -40.5 -61t-58.5 -69.5t-76 -68.5t-91 -49.5t-105 -20.5q-99 0 -168.5 60.5t-69.5 177.5q0 93 43.5 215.5t112.5 220.5q76 110 179.5 180t201.5 70q75 0 118.5 -40.5t43.5 -102.5q0 -210 -461 -404l-49 -20q-35 -111 -35 -191q0 -58 29 -87
t75 -29q136 0 297 227zM350 387q158 62 266.5 169t108.5 214q0 78 -59 78q-76 0 -161 -108.5t-155 -352.5z" />
    <glyph glyph-name="afii10072" unicode="&#x436;" horiz-adv-x="1693" 
d="M1167 870l-100 -387h133q32 107 96.5 200.5t152 153.5t175.5 60q69 0 109.5 -36.5t40.5 -78.5q0 -37 -22 -61.5t-58 -24.5q-28 0 -44 16t-16 38q0 10 13 43q0 2 3 9.5t3 12.5q0 12 -9.5 22.5t-31.5 10.5q-58 0 -119 -72t-105.5 -175.5t-73 -218t-28.5 -198.5
q0 -83 33 -118t80 -35q70 0 141.5 70.5t124.5 177.5l39 -19q-56 -127 -152 -207t-188 -80q-37 0 -72.5 15.5t-67.5 47t-51.5 89.5t-19.5 133q0 69 31 176h-131l-117 -434h-143l116 434h-133q-39 -121 -94.5 -213t-115.5 -144.5t-118.5 -78t-113.5 -25.5q-75 0 -114.5 35.5
t-39.5 79.5q0 40 20.5 68t57.5 28q32 0 51 -18.5t19 -44.5q0 -9 -4 -21q-2 -7 -10.5 -22.5t-8.5 -22.5q0 -11 9.5 -21.5t31.5 -10.5q73 0 151 116.5t126.5 272.5t48.5 274q0 154 -105 154q-43 0 -87 -29.5t-79.5 -76.5t-56 -79.5t-35.5 -62.5l-39 18q58 129 150 208t182 79
q83 0 143 -71t60 -214q0 -56 -17 -129h134l102 387h143z" />
    <glyph glyph-name="afii10073" unicode="&#x437;" horiz-adv-x="724" 
d="M342 430l14 49h95q91 0 152 63.5t61 145.5q0 9 -0.5 17.5t-7 29t-18 35t-36 26t-57.5 11.5q-157 0 -260 -207l-47 18q22 49 52 92.5t75 88.5t109 71.5t138 26.5q55 0 95.5 -19t61 -49t29.5 -59.5t9 -58.5q0 -71 -55.5 -140t-155.5 -102v-8q61 -19 101 -65.5t40 -116.5
q0 -128 -102 -217t-268 -89q-69 0 -123 18t-83.5 46.5t-44 59t-14.5 59.5q0 34 23.5 60t60.5 26q34 0 59 -22.5t25 -61.5q0 -17 -2 -25q-1 -4 -4.5 -12.5t-5.5 -17t-2 -19.5q0 -26 26 -43.5t70 -17.5q94 0 162 69.5t68 183.5q0 154 -164 154h-76z" />
    <glyph glyph-name="afii10074" unicode="&#x438;" horiz-adv-x="1122" 
d="M956 870h154l-29 -79q-74 -209 -116.5 -396t-42.5 -284q0 -72 45 -72q39 0 91.5 75t80.5 146l20 51l43 -16l-24 -55q-25 -55 -47 -95t-55 -83t-73.5 -66t-87.5 -23q-56 0 -94.5 38t-38.5 102q0 56 13 131l10 67h-4l-8 -18q-14 -33 -36.5 -71t-58.5 -83.5t-75 -81.5
t-89 -60t-100 -24q-69 0 -119.5 53.5t-50.5 151.5q0 29 5.5 59.5t18.5 68.5t21 59.5t28 69l25 59.5q80 192 80 266q0 71 -43 71q-90 0 -211 -260l-45 23l37 74q18 36 34 63t41 60.5t50.5 54.5t61 36t73.5 15q55 0 97.5 -35.5t42.5 -109.5q0 -99 -56 -242l-39.5 -101.5
l-33 -85t-22 -59.5t-17.5 -56.5t-7.5 -42t-3.5 -46.5q0 -42 19 -61t45 -19q99 0 224.5 182t225.5 514z" />
    <glyph glyph-name="afii10075" unicode="&#x439;" horiz-adv-x="1122" 
d="M956 870h154l-29 -79q-74 -209 -116.5 -396t-42.5 -284q0 -72 45 -72q39 0 91.5 75t80.5 146l20 51l43 -16l-24 -55q-25 -55 -47 -95t-55 -83t-73.5 -66t-87.5 -23q-56 0 -94.5 38t-38.5 102q0 56 13 131l10 67h-4l-8 -18q-14 -33 -36.5 -71t-58.5 -83.5t-75 -81.5
t-89 -60t-100 -24q-69 0 -119.5 53.5t-50.5 151.5q0 29 5.5 59.5t18.5 68.5t21 59.5t28 69l25 59.5q80 192 80 266q0 71 -43 71q-90 0 -211 -260l-45 23l37 74q18 36 34 63t41 60.5t50.5 54.5t61 36t73.5 15q55 0 97.5 -35.5t42.5 -109.5q0 -99 -56 -242l-39.5 -101.5
l-33 -85t-22 -59.5t-17.5 -56.5t-7.5 -42t-3.5 -46.5q0 -42 19 -61t45 -19q99 0 224.5 182t225.5 514zM1059 1339l37 -24q-141 -225 -351 -225q-85 0 -141.5 40t-56.5 95q0 41 23.5 72.5t64.5 31.5q36 0 58 -21t22 -51q0 -12 -4 -32t-4 -33q0 -22 18.5 -35.5t50.5 -13.5
q67 0 144 49t139 147z" />
    <glyph glyph-name="afii10076" unicode="&#x43a;" horiz-adv-x="1026" 
d="M483 434l-114 -434h-154l156 565q41 145 41 205q0 61 -37 61q-46 0 -100.5 -78.5t-106.5 -197.5l-45 23q13 33 30 68.5t46.5 82t61 82.5t74 61t85.5 25q51 0 89 -39.5t38 -124.5t-33 -194l-16 -56h39q36 0 62.5 8.5t46 21.5t42.5 47t39.5 64.5t48.5 96.5
q41 83 88.5 129.5t116.5 46.5q46 0 76 -22t30 -60q0 -44 -23.5 -68t-53.5 -24q-46 0 -72 47q-11 18 -31 18t-39.5 -21t-31 -45.5l-27 -60t-21.5 -47.5q-33 -65 -63 -99t-82 -50v-6q30 -5 53.5 -20t38 -32.5t27.5 -48t19.5 -52t15.5 -60.5q4 -18 10.5 -50.5t11 -53t12 -43
t18 -33.5t23.5 -11q59 0 132 170l14 33l39 -16l-25 -58q-41 -98 -67 -132q-57 -79 -148 -79q-129 0 -158 156l-34 186q-23 119 -109 119h-33z" />
    <glyph glyph-name="afii10077" unicode="&#x43b;" horiz-adv-x="935" 
d="M971 299l45 -18l-19 -50q-29 -77 -64.5 -131t-71 -80t-65 -36.5t-59.5 -10.5q-57 0 -94 41t-37 111t25 172q4 15 11 45t11 45l111 414q2 4 2 14q0 23 -27 23q-45 -1 -84 -24.5t-65 -55t-50 -79.5t-36.5 -84t-26.5 -83q-11 -37 -27.5 -98l-27 -98.5t-28 -89.5t-33 -83.5
t-40.5 -67.5t-52 -55.5t-64.5 -33t-81.5 -13.5q-53 0 -83 32t-30 65q0 35 25.5 60.5t62.5 25.5q46 0 66 -41q1 -3 4 -10.5t5 -11t6 -8.5t10 -7t14 -2q34 0 63 30.5t51.5 88.5t39 112.5t37 134t34.5 121.5q19 59 40 105.5t53.5 90.5t71 73t93.5 46.5t121 18.5
q57 0 81.5 -14.5t24.5 -48.5q0 -11 -4 -27l-18 -70l-53.5 -199.5l-41 -151t-24.5 -99.5q-2 -10 -7.5 -35.5l-8.5 -39.5t-5.5 -35t-2.5 -38q0 -4 -0.5 -16.5t0 -19t1 -18t3 -18.5t6.5 -14t10.5 -10.5t15.5 -3.5q77 0 187 260z" />
    <glyph glyph-name="afii10078" unicode="&#x43c;" horiz-adv-x="1292" 
d="M1286 870l-26 -98q-16 -59 -47.5 -166.5t-51.5 -185.5q-57 -232 -57 -324q0 -57 37 -57q38 0 85.5 65t73.5 129l27 66l45 -18l-14 -33q-27 -63 -48 -103t-53.5 -84t-73 -66t-89.5 -22q-61 0 -96 44.5t-35 121.5q0 37 8.5 86t15.5 76t27 98l80 297h-7l-436 -696h-43
l-47 727h-6l-117 -387q-19 -64 -33 -105.5t-40 -96.5t-52.5 -87t-66 -55t-86.5 -23q-45 0 -77 27.5t-32 69.5q0 39 24.5 62.5t57.5 23.5q50 0 66 -39q0 -1 3 -8.5t4.5 -9.5l5 -7t7.5 -6.5t10 -1.5q67 0 146 248l119 377q13 32 10 54t-9 35t-21.5 20t-28 9t-29.5 2h-51l12 41
h315l49 -628l402 628h143z" />
    <glyph glyph-name="afii10079" unicode="&#x43d;" horiz-adv-x="1122" 
d="M967 870h149l-35 -114q-155 -511 -155 -627q0 -90 49 -90q43 0 89.5 67t78.5 154l14 39l45 -18l-14 -33l-24.5 -56t-26 -53t-31 -53t-34 -44t-41 -37.5t-47.5 -22t-56 -9.5q-57 0 -95 46.5t-38 119.5q0 94 36 223l19 68h-322l-114 -430h-150l25 84q91 309 124 451.5
t33 226.5q0 69 -38 69q-78 0 -164 -215l-17 -41l-47 17l15 33q52 120 83 165q73 107 177 107q52 0 91.5 -36.5t39.5 -119.5q0 -107 -31 -215l-12 -47h319z" />
    <glyph glyph-name="afii10080" unicode="&#x43e;" horiz-adv-x="870" 
d="M952 559q0 -105 -39 -211t-103.5 -188.5t-155 -134.5t-187.5 -52q-115 0 -198 83t-83 235q0 80 26 167t74 164t109 139.5t137 99t152 36.5q117 0 192.5 -93t75.5 -245zM809 690q0 74 -34.5 116t-92.5 42q-69 0 -135.5 -68.5t-116.5 -197.5q-30 -78 -60 -202.5t-30 -197.5
q0 -75 36 -117t91 -42q28 0 60 12t68.5 39.5t72.5 82t63 128.5q25 69 51.5 198.5t26.5 206.5z" />
    <glyph glyph-name="afii10081" unicode="&#x43f;" horiz-adv-x="1165" 
d="M219 559l-43 14l17 37q23 51 41.5 88t45 77t53.5 65t62.5 41t75.5 16q49 0 88 -35t39 -104q0 -71 -12 -137l-13 -62h5l4 10q18 45 52.5 98t82 106t109.5 88.5t122 35.5q66 0 115 -45t49 -123q0 -125 -94 -352q-86 -205 -86 -266q0 -72 43 -72q91 0 213 260l45 -23
q-68 -160 -145 -231.5t-154 -71.5q-54 0 -95.5 36.5t-41.5 109.5q0 113 90 323q92 214 92 328q0 11 -2.5 22t-17.5 25t-41 14q-242 0 -482 -772l-18 -59h-158l29 80q170 478 170 698q0 53 -29 53q-43 0 -93.5 -59t-94.5 -162z" />
    <glyph glyph-name="afii10082" unicode="&#x440;" horiz-adv-x="985" 
d="M686 1192l-135 -502q19 33 42.5 64t59.5 65.5t83.5 56t97.5 21.5q95 0 164 -70.5t69 -193.5q0 -120 -46 -241.5t-118.5 -212.5t-166 -148.5t-183.5 -57.5q-108 0 -162 111l-88 -336q-41 -152 -41 -199q0 -50 49 -61q14 -3 60 -6l28 -2l-14 -45l-223 4l-203 -4l10 45l33 2
q52 3 77 30t52 128l209 772l24 88.5t10.5 42.5l16 73l31.5 138q-107 -70 -163.5 -129.5t-88.5 -147.5l-45 17q46 132 151 217q22 18 57 44t48 37.5t35 39t35 61.5t31 90.5t38 140.5l21 86zM918 705q0 78 -34.5 110.5t-76.5 32.5q-82 0 -170.5 -113t-144.5 -271.5t-56 -289.5
q0 -68 26.5 -107.5t78.5 -39.5q58 0 116.5 51t104 130.5t81.5 171.5t55.5 178.5t19.5 146.5z" />
    <glyph glyph-name="afii10083" unicode="&#x441;" horiz-adv-x="747" 
d="M756 285l41 -25l-19 -37q-18 -35 -45 -72.5t-67.5 -80t-95 -70t-111.5 -27.5q-162 0 -232 119q-41 65 -41 144q0 128 56 262q46 110 108 191.5t126.5 124.5t123 63t111.5 20q74 0 115.5 -34.5t41.5 -80.5q0 -37 -19.5 -63.5t-51.5 -26.5q-33 0 -55.5 21t-22.5 49
q0 10 2.5 18t8.5 17.5t7 11.5q6 9 6 18q0 10 -12 18.5t-35 8.5q-72 0 -140.5 -79.5t-113 -192.5t-71.5 -229t-27 -197q0 -18 4 -36.5t15.5 -41.5t38 -37t65.5 -14q45 0 89 22t74 51.5t59 70t42 65t25 49.5z" />
    <glyph glyph-name="afii10084" unicode="&#x442;" horiz-adv-x="1497" 
d="M225 563l-41 17q45 147 123.5 232t163.5 85q60 0 89.5 -44t29.5 -108q0 -41 -15 -127l-10 -55h2l27 51q55 106 115.5 172t107.5 88.5t94 22.5q60 0 99 -37t39 -104q0 -71 -33 -156h6l16 31q20 38 50.5 79.5t71 85.5t90.5 72.5t96 28.5q55 0 100 -44t45 -126
q0 -20 -2.5 -40.5t-5.5 -35t-11.5 -42l-12 -39t-17.5 -50.5l-19 -53l-90 -254q-5 -16 -13.5 -38.5t-12 -33t-6.5 -24t-3 -23.5q0 -55 31 -55q38 0 77.5 49t127.5 191l16 26l41 -22q-26 -59 -48.5 -101t-60 -96t-83.5 -83.5t-96 -29.5q-53 0 -93.5 37t-40.5 113q0 14 1.5 29
t3 28t6.5 31.5l8 30t10.5 34l11 33t14 37t14 36.5t16 41.5l16.5 41.5q34 86 48.5 126.5t28 91.5t13.5 87q0 58 -47 61t-110 -61t-114.5 -147.5t-93.5 -173.5q-16 -35 -32 -74t-32.5 -86l-27 -78l-29.5 -88.5l-26 -79.5l-14 -43h-150l35 100q199 575 199 668q0 59 -52 63
q-46 5 -111 -74.5t-124 -194t-105.5 -223t-66.5 -175.5l-49 -164h-150l21 63q172 530 172 711q0 29 -6.5 43t-26.5 14q-25 0 -54.5 -29t-57 -74.5t-47.5 -86t-36 -78.5z" />
    <glyph glyph-name="afii10085" unicode="&#x443;" horiz-adv-x="800" 
d="M211 510h-51l-2 51q-3 82 7.5 145t29 98t43 57t44 29t37.5 7q84 0 146 -127q70 -152 104 -343.5t39 -367.5q61 111 109.5 255t48.5 253q0 83 -37 142q-9 15 -27.5 40.5t-27 43t-8.5 36.5q0 31 19 49.5t48 18.5q33 0 55 -17t32.5 -49.5t14 -66t3.5 -78.5
q0 -165 -77 -386.5t-189 -413t-250.5 -325.5t-251.5 -134q-47 0 -71 19.5t-24 49.5q0 10 3 19.5t11.5 22t28 21t48.5 9.5h32q4 0 11.5 -1t11.5 -1h26q81 4 134 41.5t98 97.5q47 64 72.5 131t25.5 164q0 46 -17.5 171.5t-31.5 203.5q-22 114 -71 255.5t-89 141.5
q-7 0 -14.5 -5t-17 -19.5t-16 -37.5t-10 -64t-1.5 -93z" />
    <glyph glyph-name="afii10086" unicode="&#x444;" horiz-adv-x="1368" 
d="M608 -111l29 134q-82 -50 -162 -50q-99 0 -166 72.5t-67 218.5q0 125 44 244t113 203t154 135t166 51q74 0 139 -49l8 29q13 46 26 84.5t35.5 94t47 99t59.5 90t74 77.5t90 51t107 20q84 0 127 -35t43 -78q0 -26 -17.5 -46t-48.5 -20q-27 0 -46.5 17.5t-23.5 54.5
q-6 64 -57 64q-134 0 -235 -367l-37 -135q88 49 168 49q41 0 79 -14t74 -45t58 -90.5t22 -139.5q0 -125 -44 -244.5t-113 -203.5t-154 -135.5t-166 -51.5q-70 0 -143 50l-7 -25q-30 -122 -74 -217t-89 -150t-96.5 -90.5t-93.5 -48t-83 -12.5q-83 0 -126.5 34.5t-43.5 77.5
q0 26 18.5 46t47.5 20q25 0 40.5 -11.5t19.5 -24t7.5 -33.5t5.5 -27q15 -39 54 -39q66 0 134 103.5t103 262.5zM979 727l-156 -582q-12 -48 19 -85t86 -37q68 0 130.5 81t102 196t63 231.5t23.5 197.5q0 16 -4 33.5t-13.5 38.5t-31 34t-51.5 13q-47 0 -101 -36t-67 -85z
M670 145l155 582q17 61 -17.5 91t-82.5 30q-62 0 -122.5 -74.5t-102.5 -183.5t-68 -230.5t-26 -216.5q0 -63 31 -91.5t69 -28.5q27 0 58 10.5t62.5 39.5t43.5 72z" />
    <glyph glyph-name="afii10087" unicode="&#x445;" horiz-adv-x="946" 
d="M963 268l49 -16l-13 -35q-15 -43 -26.5 -70.5t-30 -64t-37.5 -57.5t-45.5 -36.5t-56.5 -15.5q-27 0 -49.5 9t-41 30t-32 40.5t-27.5 55t-21.5 58l-21 65t-20.5 62.5l-21 61l-39 -61q-6 -9 -25.5 -40.5l-29 -47l-29.5 -46t-33.5 -48l-33.5 -42.5t-36 -39.5t-35 -29
t-37 -21t-35 -6.5q-33 0 -58.5 24.5t-25.5 70.5q0 20 4 39t7 31t14.5 32.5l14.5 26t20.5 30.5t20.5 29l19 27l47 -31l-16 -23q-50 -67 -50 -110q0 -23 10 -35t25 -12q31 0 68 45.5t141 201.5l66 99l-86 252q-2 5 -7.5 21.5t-7.5 22t-7.5 18.5t-9.5 18l-10 12t-13 9.5
t-15 2.5q-14 0 -27.5 -10t-29.5 -44t-25 -89l-6 -35l-47 14l4 27q20 130 73.5 195t110.5 65q24 0 46 -10t37.5 -22.5t31.5 -39t25 -45.5t22 -57.5l19 -57.5t18 -63l12 -43l41 57l42.5 60.5l46 65.5t44.5 57t48.5 52t47 32t50.5 14q36 0 63 -24t27 -70q0 -51 -37 -108.5
t-78 -98.5l-35 29l13 16q1 1 8 10.5t8.5 12t7.5 11.5t8 12.5l7.5 12.5t7.5 13.5l5.5 12.5t5 13.5t2.5 12t1 12.5q0 23 -13.5 34t-29.5 11q-24 0 -70.5 -49t-152.5 -199l-43 -61q28 -94 63 -193l15 -44.5l16 -47t16.5 -41t20 -36.5t23 -22.5t28.5 -9.5q48 0 96 140z" />
    <glyph glyph-name="afii10088" unicode="&#x446;" horiz-adv-x="1173" 
d="M1012 870h153l-24 -82l-37 -122.5t-36.5 -122l-29.5 -102.5t-28 -103l-18.5 -81t-14.5 -79t-4 -59q0 -80 39 -80q32 0 71.5 22t59.5 52l49 -23l-24.5 -66.5l-24 -65.5t-23.5 -61t-24.5 -58t-25.5 -51t-29 -46t-32 -36t-36.5 -28.5t-41.5 -17t-48 -6.5q-60 0 -119 41
l-34.5 25l-36.5 26t-33 17t-39 8q-22 0 -32.5 -12t-10.5 -23q0 -8 7 -15t18.5 -14.5t17.5 -13.5q16 -16 16 -39q0 -26 -20.5 -43t-51.5 -17q-33 0 -53 23.5t-20 58.5q0 69 61.5 126t136.5 57q70 0 154 -54q67 -42 83 -45q7 -2 13 -2q28 0 54.5 26.5t50.5 77t34.5 77.5
t26.5 73l-6 4q-69 -43 -135 -43q-12 0 -25 2t-33.5 11.5t-35.5 26t-26 49.5t-11 77q0 53 12 123h-2q-71 -132 -161 -210.5t-187 -78.5q-79 0 -128 52.5t-49 132.5q0 69 35 170l58 166.5t41.5 117t18 73t7.5 91.5q0 14 -0.5 20t-2.5 16t-8.5 14.5t-16.5 4.5q-43 0 -104.5 -72
t-121.5 -204l-45 23q58 138 144 228.5t165 90.5q55 0 94.5 -43t39.5 -119q0 -27 -13 -98q-24 -109 -63 -222.5l-63.5 -186.5t-24.5 -119q0 -37 22.5 -53.5t48.5 -16.5q73 0 158 99.5t162 266.5t135 371z" />
    <glyph glyph-name="afii10089" unicode="&#x447;" horiz-adv-x="1021" 
d="M870 870h154l-27 -82q-59 -182 -112.5 -385.5t-53.5 -293.5q0 -70 39 -70q24 0 51.5 25t52 66t39 70t27.5 58l17 41l45 -18l-15 -33q-22 -50 -36.5 -79.5t-40.5 -71.5t-50.5 -65.5t-60.5 -41t-76 -17.5q-20 0 -40 6t-42 21t-35.5 46.5t-13.5 76.5q0 41 8.5 103t20.5 102
l43 149h-8q-139 -213 -277 -213q-75 0 -120.5 54t-45.5 131q0 35 9 69q7 28 28 98q33 109 33 158q0 57 -39 57q-28 0 -58 -25.5t-61.5 -74.5t-49 -81t-43.5 -85q-3 -7 -5 -10l-45 23q16 37 35.5 74.5t50.5 83t63.5 80t75 58t84.5 23.5q60 0 96.5 -37.5t36.5 -111.5
q0 -24 -8 -74q-9 -43 -36 -130t-27 -134q0 -80 65 -80q82 0 174.5 132t145.5 302z" />
    <glyph glyph-name="afii10090" unicode="&#x448;" horiz-adv-x="1509" 
d="M1360 870h149l-73 -237q-40 -129 -75.5 -294.5t-35.5 -240.5q0 -59 33 -59q29 0 66.5 43.5t64.5 93t43 90.5l16 43l41 -16q-44 -149 -120 -234.5t-162 -85.5q-37 0 -63 17t-37 44t-15 49t-4 44q0 103 20 182h-2q-16 -36 -35.5 -73.5t-53.5 -86.5t-70 -86.5t-84.5 -63.5
t-96.5 -26q-55 0 -96 34t-41 110q0 79 31 155h-6q-68 -132 -154 -215.5t-168 -83.5q-61 0 -104 49t-43 123q0 84 65 261q17 47 43.5 112.5l40 101t24.5 78t11 76.5q0 44 -20 53q-8 4 -19 4q-40 0 -85 -58.5t-107 -174.5l-17 -31l-41 23l15 31q28 61 53 104t58.5 85.5
t73.5 64.5t85 22q60 0 97.5 -40t37.5 -107q0 -43 -23 -125.5t-39.5 -128.5t-29.5 -78l-48 -125.5t-28 -93.5t-14 -97q0 -63 47 -63q80 0 196 171t203 443l70 217h149l-137 -426q-86 -265 -86 -340q0 -65 51 -65q44 0 95.5 54t94.5 130t86.5 174.5t69.5 169t46 131.5z" />
    <glyph glyph-name="afii10091" unicode="&#x449;" horiz-adv-x="1515" 
d="M1360 870h149l-73 -237q-31 -102 -71 -281.5t-40 -253.5q0 -31 8 -45t31 -14q30 0 67.5 24.5t53.5 49.5l49 -23l-24.5 -66.5l-24 -65.5t-23.5 -61t-24.5 -58t-25.5 -51t-29 -46t-32 -36t-36.5 -28.5t-41.5 -17t-48 -6.5q-60 0 -119 41l-34.5 25l-36.5 26t-33 17t-39 8
q-22 0 -32.5 -12t-10.5 -23q0 -8 7 -15t18.5 -14.5t17.5 -13.5q16 -16 16 -39q0 -26 -20.5 -43t-51.5 -17q-33 0 -53 23.5t-20 58.5q0 69 61.5 126t136.5 57q48 0 111 -29q27 -14 58 -34t48.5 -29t32.5 -9q28 0 54.5 26.5t50.5 77t34.5 77.5t26.5 73l-6 4q-69 -43 -135 -43
q-30 0 -53 12t-35 28.5t-19.5 39t-9.5 40t-2 34.5q0 103 20 182h-2q-16 -36 -35.5 -73.5t-53.5 -86.5t-70 -86.5t-84.5 -63.5t-96.5 -26q-55 0 -96 34t-41 110q0 79 31 155h-6q-68 -132 -154 -215.5t-168 -83.5q-61 0 -104 49t-43 123q0 84 65 261l31 84l27 73l21 58.5
t18 52t12 39t8 35t2 26.5q0 57 -39 57q-40 0 -84 -57t-108 -176l-17 -31l-41 23l15 31q28 61 53 104t58.5 85.5t73.5 64.5t85 22q54 0 94.5 -37t40.5 -110q0 -92 -96 -342l-45 -116.5t-27.5 -92.5t-13.5 -97q0 -63 47 -63q80 0 196 171t203 443l70 217h149l-137 -426
q-86 -265 -86 -340q0 -65 51 -65q44 0 95.5 54t94.5 130t86.5 174.5t69.5 169t46 131.5z" />
    <glyph glyph-name="afii10092" unicode="&#x44a;" horiz-adv-x="841" 
d="M299 606l-18 8q-95 46 -95 121q0 64 51 113t138 49q54 0 92.5 -12.5l99.5 -32t152 -31.5q68 49 123 49q29 0 45 -13.5t16 -29.5q0 -23 -22 -40t-68 -17q-5 0 -78 8q-113 -113 -174 -211l-31 -49q57 12 119 12q132 0 203.5 -69t71.5 -180q0 -130 -100.5 -219t-250.5 -89
q-76 0 -135 23t-93.5 62.5t-51.5 87t-17 100.5q0 75 35 154.5t93 147t126.5 124.5t141.5 98l-4 12q-8 -2 -26.5 -7.5l-25 -7.5t-21 -6l-20 -5.5t-17 -4t-17 -3.5t-14.5 -3t-15 -2.5t-13 -1t-14 -0.5q-20 0 -73 17q-16 5 -37 13t-33.5 11.5t-24.5 3.5q-32 0 -50.5 -16.5
t-18.5 -40.5q0 -26 18.5 -48t52.5 -32zM506 467l-21 -31q-26 -37 -43.5 -102t-17.5 -117q0 -88 42.5 -141t108.5 -53q32 0 64 12.5t63 38.5t50.5 74.5t19.5 113.5q0 64 -14.5 109.5t-38.5 68t-48 32t-50 9.5q-61 0 -115 -14z" />
    <glyph glyph-name="afii10093" unicode="&#x44b;" horiz-adv-x="1404" 
d="M584 559l-15 -43q66 14 136 14q115 0 187.5 -65t72.5 -184q0 -137 -97.5 -222.5t-242.5 -85.5q-128 0 -202.5 67.5t-74.5 188.5q0 53 17 123q11 41 43 124t53.5 156.5t21.5 135.5q0 14 -0.5 20.5t-3 18.5t-9.5 18t-19 6q-44 0 -104 -76.5t-93 -140.5l-29 -59l-45 23
q59 141 145 230t173 89q50 0 87.5 -40.5t37.5 -121.5q0 -57 -39 -176zM551 467l-37 -102q-37 -105 -37 -172q0 -84 42.5 -127t103.5 -43q78 0 136 64.5t58 191.5q0 102 -46.5 152t-115.5 50q-50 0 -104 -14zM1260 870h149l-18 -61l-76.5 -245.5l-62 -194.5t-32.5 -125
t-14 -115q0 -90 47 -90q45 0 94.5 73t92.5 187l45 -18l-15 -33q-22 -50 -37.5 -81.5t-41 -72.5t-50.5 -64.5t-60 -40t-75 -16.5q-57 0 -94 44.5t-37 121.5q0 63 19.5 144.5t60.5 212.5t62 211z" />
    <glyph glyph-name="afii10094" unicode="&#x44c;" horiz-adv-x="827" 
d="M526 559l-14 -43q66 14 135 14q115 0 187.5 -65t72.5 -184q0 -137 -97.5 -222.5t-242.5 -85.5q-128 0 -202 67.5t-74 188.5q0 57 16 123q11 42 43.5 124t54 156t21.5 136q0 63 -33 63q-31 0 -75 -45.5t-73.5 -91t-47.5 -80.5l-29 -59l-45 23q59 141 144.5 230t172.5 89
q50 0 87.5 -40.5t37.5 -121.5q0 -57 -39 -176zM494 467l-37 -102q-37 -105 -37 -172q0 -84 42 -127t103 -43q78 0 136.5 65t58.5 191q0 102 -46.5 152t-115.5 50q-50 0 -104 -14z" />
    <glyph glyph-name="afii10095" unicode="&#x44d;" horiz-adv-x="849" 
d="M354 602l-43 27l31 51q130 217 344 217q34 0 65.5 -7t65.5 -27.5t58.5 -53t40.5 -87.5t16 -126q0 -81 -20 -166.5t-62 -167t-100 -146t-140.5 -104t-177.5 -39.5q-117 0 -184.5 56t-67.5 127q0 37 24.5 61.5t59.5 24.5q33 0 58.5 -22.5t25.5 -61.5q0 -21 -4 -29
q-10 -27 -10 -45q0 -61 104 -61q51 0 98.5 30t80.5 74.5t62 103t46 106.5t29 95q-58 -40 -92 -57t-66 -17q-13 0 -25 2.5t-23.5 8t-17 8.5t-17 12t-13.5 10q-50 37 -76 37q-34 0 -64 -35l-36 29q31 38 74.5 66t86.5 28q16 0 32.5 -6t24.5 -10t26.5 -17t19.5 -14
q43 -26 78 -26q39 0 98 38q10 51 10 127q0 15 -1 29t-5.5 38.5t-15 44t-26.5 38.5t-44 30t-64 11q-155 0 -264 -205z" />
    <glyph glyph-name="afii10096" unicode="&#x44e;" horiz-adv-x="1376" 
d="M545 485h182q55 167 185.5 289.5t277.5 122.5q118 0 193 -93t75 -245q0 -118 -43.5 -228.5t-112.5 -187.5t-156 -123.5t-173 -46.5q-119 0 -200 84t-81 234q0 71 21 145h-183l-118 -436h-150l25 84l41 140.5l35 119l27 94t22.5 80.5l15.5 62t12 56l7 45.5t5 46.5t1 44
q0 59 -37 59q-39 0 -83.5 -58.5t-86.5 -160.5l-17 -39l-45 19l15 33q52 119 89 170q76 102 175 102q65 0 97 -48t32 -116q0 -54 -35 -198zM1315 690q0 38 -9 67.5t-22 46t-31 27t-33.5 14t-31.5 3.5q-73 0 -140 -75.5t-109.5 -183.5t-67.5 -218.5t-25 -188.5q0 -43 11 -74
t26 -47t36 -25t35 -11t29 -2q86 0 164 99.5t123 253.5t45 314z" />
    <glyph glyph-name="afii10097" unicode="&#x44f;" horiz-adv-x="974" 
d="M1014 305l43 -12l-8 -27q-46 -150 -121 -221.5t-152 -71.5q-54 0 -93.5 45t-39.5 125q0 39 8 72l45 172h-90q-62 0 -101 -37t-79 -114q-12 -24 -33 -71.5t-35 -74t-37 -57.5t-53.5 -45.5t-70.5 -14.5q-71 0 -113.5 39t-42.5 99q0 30 11 60.5t24 47.5l14 19l35 -19
l-10 -18q-17 -34 -17 -66q0 -25 13.5 -39t29.5 -14q34 0 70 65q62 110 128 171t146 85v7q-81 6 -138.5 61.5t-57.5 138.5q0 18 2 35t11.5 47.5t25.5 56t48.5 54t76.5 48.5t113.5 33t154.5 13q89 0 248 -27l-80 -292q-68 -246 -86.5 -325.5t-18.5 -129.5q0 -38 17.5 -55
t34.5 -17q36 0 79 52.5t86 168.5zM713 440l102 391q-57 13 -110 13q-57 0 -102.5 -15.5t-74 -39.5t-47.5 -56.5t-27 -64.5t-8 -64q0 -75 51.5 -119.5t137.5 -44.5h78z" />
    <glyph glyph-name="afii10071" unicode="&#x451;" horiz-adv-x="712" 
d="M727 270l39 -28q-19 -31 -40.5 -61t-58.5 -69.5t-76 -68.5t-91 -49.5t-105 -20.5q-99 0 -168 60.5t-69 177.5q0 93 43.5 216t111.5 220q76 110 179.5 180t201.5 70q75 0 118.5 -40.5t43.5 -102.5q0 -210 -461 -404l-49 -20q-35 -111 -35 -191q0 -58 29.5 -87t75.5 -29
q136 0 297 227zM362 387q158 62 266.5 169t108.5 214q0 78 -59 78q-76 0 -161 -108.5t-155 -352.5zM465 1264q0 40 27 67t67 27t67 -27t27 -67t-27 -67.5t-67 -27.5t-67 27.5t-27 67.5zM809 1264q0 40 27 67t67 27t67 -27t27 -67t-27 -67.5t-67 -27.5t-67 27.5t-27 67.5z
" />
    <glyph glyph-name="afii10099" unicode="&#x452;" horiz-adv-x="913" 
d="M172 0h-141q17 63 27 96.5l21.5 69t24.5 80.5l234 811h-217l12 51h221l15 53q20 76 20 96t-8.5 33t-27.5 19t-33.5 7.5t-40.5 2.5l-41 2l14 45q176 5 338 20l-88 -278h293l-13 -51h-295l-127 -445l13 17q4 5 24 33l30.5 42.5t34 43t41 45.5t45 39.5t51.5 34.5t55 21t61 9
q65 0 111 -47t46 -131q0 -85 -40 -266t-78 -301l-39.5 -121.5t-50 -133t-63 -139t-74.5 -125.5t-88 -108t-101.5 -70.5t-116.5 -27.5q-74 0 -123 35.5t-49 82.5q0 25 16.5 42.5t40.5 17.5q26 0 38 -14.5t26 -49.5q2 -5 6 -16t6 -14.5l6 -11t7.5 -10.5t9 -7t12.5 -5t16 -1
q89 0 168 145q87 156 205 545q29 97 81 318t52 278q0 42 -18 58t-39 16q-22 0 -44.5 -6.5t-54.5 -26.5t-63.5 -53t-71 -91t-78.5 -135.5t-84 -191.5t-89 -254z" />
    <glyph glyph-name="afii10100" unicode="&#x453;" horiz-adv-x="731" 
d="M311 580l-47 20q37 92 103.5 168t152.5 109q51 20 131 20q81 0 124.5 -50.5t43.5 -117.5q0 -54 -21 -99.5t-58.5 -78t-69.5 -52t-74 -38.5q-118 -54 -163 -88q-101 -76 -91 -183q5 -49 38.5 -79.5t88.5 -30.5q29 0 59 9t66.5 31t75 68.5t71.5 112.5l43 -25l-20 -36
q-148 -267 -377 -267q-97 0 -153 54.5t-56 132.5q0 48 17.5 90t41 70t64 55t69 41.5t72.5 34.5q34 15 50.5 23t50 26t52 34t40 39t31.5 50.5t10 58.5q0 47 -30 80t-89 33q-46 0 -86.5 -19.5t-70.5 -53.5t-51.5 -68.5t-37.5 -73.5zM545 1038l233 236l8 8l9.5 9.5l9 9t10 9
l10 7t11.5 7t11 5t12.5 3.5t12.5 1q27 0 46.5 -17.5t19.5 -41.5q0 -53 -90 -103l-248 -133h-55z" />
    <glyph glyph-name="afii10101" unicode="&#x454;" horiz-adv-x="747" 
d="M745 264l41 -24l-20 -37q-61 -109 -142.5 -169.5t-164.5 -60.5q-32 0 -66 7t-72 26t-67.5 47.5t-48.5 76t-19 106.5q0 128 56 262q46 110 108 191.5t126.5 124.5t123 63t111.5 20q74 0 115.5 -34.5t41.5 -80.5q0 -37 -19.5 -63.5t-51.5 -26.5q-33 0 -55.5 21t-22.5 49
q0 10 2.5 18t8.5 17.5t7 11.5q6 9 6 18q0 10 -12 18.5t-35 8.5q-69 0 -147 -87t-146 -294q58 40 92 57t66 17q13 0 25 -2.5t23.5 -8t17 -8.5t17 -12t13.5 -10q50 -37 76 -37q34 0 64 35l32 -29q-30 -39 -73 -66.5t-84 -27.5q-34 0 -64 20q-8 4 -30.5 20.5t-42.5 25t-43 8.5
q-38 0 -99 -39q-49 -104 -49 -228q0 -87 38 -122t85 -35q50 0 97.5 25t82.5 64t59 74.5t39 69.5z" />
    <glyph glyph-name="afii10102" unicode="&#x455;" horiz-adv-x="716" 
d="M756 713q-31 0 -45.5 14t-18 33.5t-7.5 39.5t-24.5 34t-60.5 14q-60 0 -96.5 -37t-36.5 -86q0 -34 20 -76.5t36 -64l50 -64.5q69 -86 101.5 -149t32.5 -133q0 -55 -20 -100.5t-52.5 -75.5t-75.5 -50.5t-88 -29.5t-92 -9q-127 0 -188.5 51.5t-61.5 114.5q0 35 18.5 57.5
t45.5 22.5q25 0 44 -17t19 -44q0 -9 -3 -28t-3 -28q0 -30 27.5 -57t99.5 -27q83 0 132.5 45t49.5 113q0 35 -17 74.5t-34.5 64l-56.5 76.5q-41 53 -64 86.5t-43 83.5t-20 98q0 99 77.5 168.5t202.5 69.5q96 0 149.5 -39.5t53.5 -83.5q0 -23 -12 -42t-39 -19z" />
    <glyph glyph-name="afii10103" unicode="&#x456;" horiz-adv-x="579" 
d="M618 285l41 -21q-59 -134 -136 -212.5t-158 -78.5q-55 0 -95.5 40.5t-40.5 107.5q0 91 68 244l45.5 102.5l37.5 85l27.5 63.5t22.5 53.5t14 38.5t9 33.5t2 24.5q0 2 0.5 10.5t0 12.5t-2 12t-4 12t-8 9t-13.5 7q-8 4 -29 0q-27 -7 -57 -39.5t-49 -63.5t-43 -74
q-5 -10 -8 -15l-17 -29l-41 23q61 134 135.5 200t143.5 66q50 0 86.5 -37.5t36.5 -103.5q0 -62 -25 -139t-82 -216l-18 -43q-60 -153 -78 -207t-18 -77q0 -39 36 -39q29 0 63 29.5t66.5 77t51.5 79t36 64.5zM494 1266q0 40 27 67t67 27t67 -27t27 -67t-27 -67.5t-67 -27.5
t-67 27.5t-27 67.5z" />
    <glyph glyph-name="afii10104" unicode="&#x457;" horiz-adv-x="563" 
d="M618 285l41 -21q-59 -134 -136 -212.5t-158 -78.5q-55 0 -95.5 40.5t-40.5 107.5q0 91 68 244l45.5 103l37.5 84.5l28 64t22 53t13.5 38.5t9 33t2.5 25q0 1 0.5 10.5t0 15.5t-3 14.5t-8.5 15t-16 9.5q-8 4 -29 0q-10 -3 -20.5 -8.5t-21 -15.5l-19 -18.5t-19 -23.5
l-17 -24.5t-17.5 -28l-15.5 -26t-15 -26.5t-12.5 -23l-17 -29l-41 23q63 136 136 202t143 66q50 0 86.5 -38.5t36.5 -104.5q0 -88 -72 -267q-93 -231 -121 -308.5t-28 -106.5q0 -39 36 -39q29 0 63 29.5t66.5 77t51.5 79t36 64.5zM274 1257q0 41 31 72t72 31t71.5 -31
t30.5 -72t-30.5 -71.5t-71.5 -30.5t-72 30.5t-31 71.5zM618 1257q0 41 31 72t72 31t71.5 -31t30.5 -72t-30.5 -71.5t-71.5 -30.5t-72 30.5t-31 71.5z" />
    <glyph glyph-name="afii10105" unicode="&#x458;" horiz-adv-x="548" 
d="M211 563l-41 25q25 50 59.5 101.5t77.5 99.5t93 78t96 30q50 0 75 -35.5t25 -93.5t-41 -217l-127 -488q-18 -70 -33 -121t-39.5 -122t-49 -121.5t-60.5 -105t-74.5 -88.5t-90 -56t-108.5 -22q-74 0 -123 36t-49 82q0 25 16.5 42.5t41.5 17.5t37 -14t26 -50q1 -3 5.5 -13
t5.5 -13t5 -10.5t6.5 -10t7 -7.5t9.5 -6.5t11 -3t14 -1.5q40 0 81.5 48t77 130t63 165.5t52.5 178.5l129 498q62 242 62 282q0 37 -27 37q-32 0 -93 -68t-95 -135zM514 1266q0 40 27 67t67 27t67 -27t27 -67t-27 -67.5t-67 -27.5t-67 27.5t-27 67.5z" />
    <glyph glyph-name="afii10106" unicode="&#x459;" horiz-adv-x="1374" 
d="M817 465l6 -4q50 70 120.5 108.5t143.5 38.5q96 0 161 -60t65 -161q0 -64 -29 -135.5t-80.5 -134.5t-132.5 -104.5t-174 -41.5q-56 0 -100.5 13.5t-72 33t-47.5 49.5t-29 53t-13.5 54.5t-5 44t-0.5 29.5v4q0 45 24 135l113 414q2 4 2 14q0 23 -27 23q-21 1 -54.5 -13
t-55.5 -30q-29 -21 -54 -57.5t-41.5 -69t-39.5 -104t-34.5 -111l-39.5 -142.5q-15 -55 -28 -93t-38.5 -89t-54.5 -82t-75 -53.5t-101 -22.5q-52 0 -83.5 31t-31.5 68q0 33 23.5 59.5t64.5 26.5q10 0 19.5 -2.5t15.5 -6t12 -9t8.5 -9l6.5 -9.5l4 -5q1 -3 4 -9.5t4 -9t3.5 -7
t5 -6.5l5.5 -4.5t7.5 -3.5t9.5 -1q33 0 62 31t53 91t40.5 113.5t38 134t33.5 117.5q12 38 22 64.5t28 64t37 64t48 55t62.5 46t79.5 29.5t100 13q38 1 62 -5t32.5 -18t10 -19t1.5 -21q0 -19 -2 -27l-20 -70zM741 172q0 -68 34.5 -110t94.5 -42q77 0 148.5 61t113.5 150.5
t42 174.5q0 74 -33 108.5t-82 34.5q-74 0 -150 -64.5t-122 -152.5t-46 -160z" />
    <glyph glyph-name="afii10107" unicode="&#x45a;" horiz-adv-x="1425" 
d="M862 461l6 -4q128 151 271 151q95 0 160 -59.5t65 -161.5q0 -66 -29 -137.5t-80.5 -133.5t-132.5 -102.5t-174 -40.5q-69 0 -123.5 22t-86.5 59t-48 81t-16 92q0 57 20 135l21 74h-322l-117 -436h-149l25 84q91 309 124 451.5t33 226.5q0 69 -39 69q-78 0 -164 -215
l-16 -41l-47 17l14 33q52 120 83 165q73 107 177 107q52 0 92 -36.5t40 -119.5q0 -107 -31 -215l-12 -47h319l104 391h150l-35 -114q-12 -37 -82 -295zM793 172q0 -66 34.5 -107.5t94.5 -41.5q77 0 148.5 59.5t113 148t41.5 175.5q0 47 -14.5 78.5t-36.5 44t-36.5 16.5
t-27.5 4q-74 0 -150 -66.5t-121.5 -154.5t-45.5 -156z" />
    <glyph glyph-name="afii10108" unicode="&#x45b;" horiz-adv-x="1040" 
d="M375 1321l14 45q176 5 338 20l-88 -278h346l-12 -51h-348l-127 -445l12 17q4 5 24 33l30.5 42.5t34 43t41 45.5t45 39.5t51.5 34.5t55 21t61 9q71 0 114.5 -51.5t43.5 -126.5q0 -114 -101 -354q-39 -93 -53 -129.5t-26.5 -79t-12.5 -70.5q0 -27 11.5 -40t23.5 -13
q40 0 103.5 77t95.5 144l22 47l45 -20l-22 -48q-123 -260 -281 -260q-50 0 -87.5 35.5t-37.5 104.5q0 48 16.5 111.5t30.5 100t45 111.5q95 226 95 326q0 42 -18.5 58t-39.5 16q-22 0 -44.5 -6.5t-54.5 -26.5t-63.5 -53t-71 -91t-78.5 -135.5t-84 -191.5t-89 -254l-25 -78
h-141q22 81 41.5 142l32.5 104l233 811h-235l12 51h240l14 53q20 76 20 96t-8.5 33t-27.5 19t-33.5 7.5t-40.5 2.5z" />
    <glyph glyph-name="afii10109" unicode="&#x45c;" horiz-adv-x="1026" 
d="M483 434l-114 -434h-154l156 565q41 145 41 205q0 61 -37 61q-46 0 -100.5 -78.5t-106.5 -197.5l-45 23q13 33 30 68.5t46.5 82t61 82.5t74 61t85.5 25q51 0 89 -39.5t38 -124.5t-33 -194l-16 -56h39q36 0 62.5 8.5t46 21.5t42.5 47t39.5 64.5t48.5 96.5
q41 83 88.5 129.5t116.5 46.5q46 0 76 -22t30 -60q0 -44 -23.5 -68t-53.5 -24q-46 0 -72 47q-11 18 -31 18t-39.5 -21t-31 -45.5l-27 -60t-21.5 -47.5q-33 -65 -63 -99t-82 -50v-6q30 -5 53.5 -20t38 -32.5t27.5 -48t19.5 -52t15.5 -60.5q4 -18 10.5 -50.5t11 -53t12 -43
t18 -33.5t23.5 -11q59 0 132 170l14 33l39 -16l-25 -58q-41 -98 -67 -132q-57 -79 -148 -79q-129 0 -158 156l-34 186q-23 119 -109 119h-33zM637 1038l233 236l5 5q17 17 27 26t28 18.5t35 9.5q26 0 45.5 -17t19.5 -42q0 -53 -90 -103l-248 -133h-55z" />
    <glyph glyph-name="afii10110" unicode="&#x45e;" horiz-adv-x="800" 
d="M211 510h-51l-2 51q-3 82 7.5 145t29 98t43 57t44 29t37.5 7q84 0 146 -127q70 -152 104 -343.5t39 -367.5q61 111 109.5 255t48.5 253q0 83 -37 142q-9 15 -27.5 40.5t-27 43t-8.5 36.5q0 31 19 49.5t48 18.5q33 0 55 -17t32.5 -49.5t14 -66t3.5 -78.5
q0 -165 -77 -386.5t-189 -413t-250.5 -325.5t-251.5 -134q-47 0 -71 19.5t-24 49.5q0 10 3 19.5t11.5 22t28 21t48.5 9.5h32q4 0 11.5 -1t11.5 -1h26q138 7 232 139q47 64 73.5 123.5t26.5 128.5q0 62 -17.5 204.5t-35.5 229.5q-10 52 -34.5 136t-60.5 164.5t-63 80.5
q-7 0 -14.5 -5t-17 -19.5t-16 -37.5t-10 -64t-1.5 -93zM899 1333l37 -28q-141 -226 -350 -226q-85 0 -142 40t-57 95q0 41 23.5 73t64.5 32q36 0 58 -21t22 -51q0 -13 -4 -33t-4 -32q0 -22 18.5 -35.5t50.5 -13.5q67 0 143 50.5t140 149.5z" />
    <glyph glyph-name="afii10193" unicode="&#x45f;" horiz-adv-x="1159" 
d="M993 870h154l-29 -79q-74 -209 -117 -396.5t-43 -283.5q0 -72 46 -72q39 0 91.5 75t80.5 146l20 51l43 -16l-25 -55q-25 -56 -47 -95.5t-54.5 -82.5t-73 -66t-87.5 -23q-56 0 -94.5 38t-38.5 102q0 62 12 131l11 67h-4l-9 -18q-19 -43 -51 -92.5t-78 -103.5t-107 -89
t-122 -35q-69 0 -119.5 53.5t-50.5 151.5q0 29 5.5 59.5t18.5 68.5t21 59.5t28 69l25 59.5q80 192 80 266q0 69 -43 69q-88 0 -211 -258l-45 23l37 74q18 36 34 63t41 60.5t50.5 54.5t61 36t73.5 15q54 0 96.5 -35.5t42.5 -109.5q0 -65 -23 -141.5t-71 -196.5
q-52 -131 -68 -187.5t-16 -107.5q0 -42 19 -61t45 -19q99 0 224.5 182t225.5 514zM723 68h47q-23 -61 -25.5 -105t4 -82.5t3.5 -64.5q-8 -76 -69.5 -137t-143.5 -95l-19 47q74 24 82 99q2 0 1 33t-1 34q0 31 6 59.5t20.5 57.5t25.5 48t34.5 54z" />
    <glyph glyph-name="afii10050" unicode="&#x490;" horiz-adv-x="1134" 
d="M395 1323l13 45l618 -4q44 -1 73 0t67.5 6.5t66 15t59.5 28t56 45.5t48.5 66.5t43.5 90.5h43l-86 -305h-555q-10 0 -17.5 -1.5t-13 -5t-9 -6t-6 -9t-4 -9.5t-3.5 -11.5t-3 -11.5l-262 -968q-32 -120 -32 -166q0 -73 86 -78l90 -4l-13 -45l-305 6q-60 2 -284 -6l12 45
l78 4q38 2 65 17t46 47.5t29.5 63.5t25.5 87l219 815q30 117 30 166q0 23 -4 37t-23 26.5t-55 14.5z" />
    <glyph glyph-name="afii10098" unicode="&#x491;" horiz-adv-x="722" 
d="M227 829l13 41h303q128 0 208 38t138 147h39l-60 -226h-336l-221 -829h-143l188 709q8 29 9 51t-6 34t-14 20t-21.5 11t-22.5 3.5t-22 0.5h-52z" />
    <glyph glyph-name="endash" unicode="&#x2013;" horiz-adv-x="1087" 
d="M209 741h930v-86h-930v86z" />
    <glyph glyph-name="emdash" unicode="&#x2014;" horiz-adv-x="942" 
d="M145 504h930l-31 -111h-927z" />
    <glyph glyph-name="quoteleft" unicode="&#x2018;" horiz-adv-x="495" 
d="M700 1405l21 -43q-97 -56 -154.5 -121.5t-54.5 -112.5l2 -26q28 18 55 18q44 0 73.5 -31.5t29.5 -76.5q0 -44 -35.5 -74.5t-79.5 -30.5q-56 0 -96.5 47.5t-40.5 118.5q0 89 71 176.5t209 155.5z" />
    <glyph glyph-name="quoteright" unicode="&#x2019;" horiz-adv-x="495" 
d="M451 907l-21 45q31 18 63 41.5t71.5 58t60.5 74t14 74.5l-2 10q-28 -18 -55 -18q-49 0 -76 34t-27 74q0 44 35.5 74.5t79.5 30.5q56 0 96.5 -46.5t40.5 -119.5q0 -90 -70.5 -176.5t-209.5 -155.5z" />
    <glyph glyph-name="quotesinglbase" unicode="&#x201a;" horiz-adv-x="495" 
d="M115 -319l-21 45q31 18 63 41t71.5 57.5t60.5 74t14 74.5l-2 11q-30 -19 -55 -19q-49 0 -76 34.5t-27 74.5q0 44 35 74t80 30q56 0 96.5 -46.5t40.5 -119.5q0 -90 -70.5 -176t-209.5 -155z" />
    <glyph glyph-name="quotedblleft" unicode="&#x201c;" horiz-adv-x="870" 
d="M1042 1405l21 -45q-31 -18 -63 -41.5t-71.5 -58t-60.5 -74t-14 -74.5l2 -10q28 18 55 18q49 0 76 -34t27 -74q0 -44 -35.5 -74.5t-79.5 -30.5q-56 0 -96.5 46.5t-40.5 119.5q0 90 70.5 176.5t209.5 155.5zM700 1405l21 -45q-31 -18 -63 -41.5t-71.5 -58t-60.5 -74
t-14 -74.5l2 -10q28 18 55 18q49 0 76 -34t27 -74q0 -44 -35.5 -74.5t-79.5 -30.5q-56 0 -96.5 46.5t-40.5 119.5q0 90 70.5 176.5t209.5 155.5z" />
    <glyph glyph-name="quotedblright" unicode="&#x201d;" horiz-adv-x="868" 
d="M793 907l-21 45q20 12 44.5 29t58 45t58 55.5t39 60.5t7.5 60l-2 8q-27 -18 -53 -18q-43 0 -73 32t-30 76t35.5 74.5t79.5 30.5q57 0 96 -45.5t39 -116.5q0 -93 -68.5 -180t-209.5 -156zM451 907l-21 45q29 17 60 39.5t70.5 56.5t62 74t16.5 76l-2 12q-28 -18 -55 -18
q-49 0 -76 34t-27 74q0 44 35.5 74.5t79.5 30.5q56 0 96.5 -46.5t40.5 -119.5q0 -90 -70.5 -176.5t-209.5 -155.5z" />
    <glyph glyph-name="quotedblbase" unicode="&#x201e;" horiz-adv-x="870" 
d="M115 -319l-21 45q31 18 63 41t71.5 57.5t60.5 74t14 74.5l-2 11q-30 -19 -55 -19q-49 0 -76 34.5t-27 74.5q0 44 35 74t80 30q56 0 96.5 -46.5t40.5 -119.5q0 -90 -70.5 -176t-209.5 -155zM457 -319l-21 45q31 18 63 41t71.5 57.5t60.5 74t14 74.5l-2 11q-30 -19 -55 -19
q-49 0 -76 34.5t-27 74.5q0 44 35 74t80 30q56 0 96.5 -46.5t40.5 -119.5q0 -90 -70.5 -176t-209.5 -155z" />
    <glyph glyph-name="dagger" unicode="&#x2020;" horiz-adv-x="1153" 
d="M522 -414h-45q158 639 199 1069l84 70q-6 40 -36.5 63t-64.5 23q-12 0 -24 -2t-24 -6.5t-20 -8l-19 -8.5t-13 -6q-67 -30 -102 -30q-39 0 -57.5 19t-18.5 38q0 41 23 76t65 35q30 0 39 -29q3 -16 0 -29q-1 -2 -8.5 -19t-7.5 -24q0 -8 18 -8q19 0 55 45q51 64 103 64
q19 0 35.5 -9t25 -18.5t21.5 -26.5q1 -2 5 -7l5.5 -7t5 -6t6 -6t6 -4.5t7.5 -3.5t8 -1q19 0 22 34l2 26v37q-6 114 -6 116q0 54 68 140q43 55 43 82q0 4 -15 26q-12 15 -12 35q0 25 23 56.5t71 31.5q14 0 24 -3t16 -8t9.5 -10.5t4.5 -13l1.5 -11.5t-0.5 -11v-6
q0 -11 -11 -29t-27 -31q-2 -2 -11 -8.5t-11.5 -9.5l-8 -9.5t-7 -14t-1.5 -17.5q0 -33 9 -54.5t9 -60.5q0 -28 -11 -56t-52 -95q-12 -18 -34.5 -60t-25.5 -55v-10q0 -11 12 -11q7 0 14.5 3.5t13 7t16 12t16.5 12.5q67 54 110 54q11 0 19.5 -1.5t15 -6t10.5 -8t8.5 -11.5
t6 -11.5l5.5 -13t5 -12.5q2 -6 6 -16.5t6 -15t7 -9t12 -4.5q18 0 23.5 9.5t5.5 29.5q1 32 22 51t47 19q39 0 47 -35q3 -19 0 -37q-7 -39 -45.5 -67.5t-79.5 -28.5q-40 0 -86 30q-51 31 -84 31q-31 0 -71 -19.5t-74 -66.5l47 -70q-94 -211 -180.5 -453.5t-194.5 -615.5z" />
    <glyph glyph-name="daggerdbl" unicode="&#x2021;" horiz-adv-x="1153" 
d="M813 930l78 65q-39 13 -60 13q-35 0 -53 -7t-25.5 -17t-18.5 -20t-41 -17t-83 -7t-69 37q-7 17 0 47q10 35 33 54.5t47 19.5q41 0 41 -39q0 -8 -2.5 -20t-2.5 -19q0 -14 9 -14q12 0 26 14l16 15.5t24.5 21.5t27.5 19t37 16.5t41 5.5q23 0 45 -11q3 38 22 74
q19 34 41.5 56t24.5 32v11q-3 17 -10 24q-9 14 -11 25v18q3 25 28 47.5t58 22.5q36 0 49 -27q8 -16 0 -43q-3 -11 -6 -15.5t-11 -12t-15 -15.5q-3 -3 -9 -8.5l-9.5 -8.5t-6.5 -8t-4 -10v-10q2 -20 9 -37t7 -41q0 -37 -14 -74q22 11 49 11q13 0 24 -2.5t19 -5t16.5 -9
l12.5 -9.5t10.5 -13t8 -12.5t7.5 -14t7 -12.5q9 -14 18 -14q11 0 16 14q10 23 15 33t14 23t21 17.5t28 4.5q20 0 32.5 -11t12.5 -24q0 -43 -32 -83t-84 -40q-40 0 -93 35q-2 1 -11.5 7t-16.5 9l-18 8t-23.5 7t-26.5 2q-13 0 -63 -13l41 -65l-187 -424h-49zM571 25l187 424
h49l-39 -424l-76 -66q38 -12 58 -12q13 0 26.5 2t27.5 7t21.5 8t21 9t15.5 7q68 34 111 34q41 0 55 -22.5t14 -61.5q0 -30 -26 -51.5t-55 -21.5q-21 0 -31 12t-10 27q0 4 2 12t2 12v14q0 15 -9 15q-11 0 -26 -15q-3 -2 -19 -17.5t-25 -22t-26.5 -17.5t-36 -15.5t-39.5 -4.5
q-25 0 -43 10q-13 -54 -24 -74q-10 -18 -38 -50t-28 -48q0 -5 11.5 -15t11.5 -34q0 -29 -23.5 -58.5t-64.5 -29.5q-49 0 -49 69q0 24 29 42t34 36v10q-1 6 -9.5 29t-8.5 49q0 45 16 74q-20 -10 -51 -10q-38 0 -57.5 16t-47.5 61q-10 15 -18 15q-4 0 -9 -5t-7 -10
q-1 -2 -6.5 -15t-10.5 -21t-13.5 -19t-20.5 -16.5t-27 -5.5q-21 0 -32 12t-11 22q0 43 30 83t86 40q43 0 91 -34q49 -33 96 -33q25 0 65 12z" />
    <glyph glyph-name="bullet" unicode="&#x2022;" horiz-adv-x="786" 
d="M373 586q0 82 57 139t139 57t139.5 -57t57.5 -139t-57.5 -139.5t-139.5 -57.5t-139 57.5t-57 139.5z" />
    <glyph glyph-name="ellipsis" unicode="&#x2026;" horiz-adv-x="1746" 
d="M229 92q0 46 34.5 80.5t80.5 34.5t80.5 -34.5t34.5 -80.5t-34.5 -80.5t-80.5 -34.5t-80.5 34.5t-34.5 80.5zM758 92q0 46 34 80.5t80 34.5t80.5 -34.5t34.5 -80.5t-34.5 -80.5t-80.5 -34.5t-80 34.5t-34 80.5zM1286 92q0 46 34.5 80.5t80.5 34.5t80.5 -34.5t34.5 -80.5
t-34.5 -80.5t-80.5 -34.5t-80.5 34.5t-34.5 80.5z" />
    <glyph glyph-name="perthousand" unicode="&#x2030;" horiz-adv-x="2904" 
d="M1749 1481l-948 -1598h-86l835 1413q-142 -73 -221 -73q-108 0 -188 30q18 -52 22 -78t4 -67q0 -133 -50.5 -247.5t-137 -181.5t-188.5 -67q-56 0 -110.5 20t-101.5 58t-76.5 101.5t-29.5 142.5q0 85 32.5 172t87.5 157t136.5 114t171.5 44q52 0 90.5 -15.5t100.5 -53.5
q43 -26 67 -38t64 -24t80 -12q100 0 202 59.5t176 143.5h68zM1100 1139q0 109 -48 168t-114 59q-82 0 -155 -78t-113.5 -190t-40.5 -219q0 -101 48.5 -154t113.5 -53q83 0 156 71.5t113 179t40 216.5zM1995 463q0 -69 -14.5 -140t-45.5 -140t-74.5 -122.5t-107.5 -86.5
t-139 -33q-128 0 -221 87.5t-93 245.5q0 110 54 219t153.5 183t216.5 74q112 0 191.5 -74.5t79.5 -212.5zM1927 465q0 109 -49 169t-117 60q-80 0 -152 -77.5t-112.5 -190t-40.5 -219.5q0 -98 45 -152.5t107 -54.5q55 0 111 34t102.5 92.5t76 148t29.5 190.5zM2836 463
q0 -69 -14 -140t-45 -140t-74.5 -122.5t-107.5 -86.5t-139 -33q-128 0 -221 87.5t-93 245.5q0 110 54 219t153.5 183t216.5 74q112 0 191 -74.5t79 -212.5zM2769 465q0 109 -49 169t-117 60q-80 0 -152 -77.5t-112.5 -190t-40.5 -219.5q0 -98 44.5 -152.5t106.5 -54.5
q55 0 111.5 34t103 92.5t76 148t29.5 190.5z" />
    <glyph glyph-name="guilsinglleft" unicode="&#x2039;" horiz-adv-x="659" 
d="M444 436l127 -239q15 -27 15 -35q0 -4 -4 -8t-9 -4q-10 0 -34 28l-222 262l349 281q25 18 34 18t9 -8q0 -14 -21 -37z" />
    <glyph glyph-name="guilsinglright" unicode="&#x203a;" horiz-adv-x="661" 
d="M485 453l-127 239q-14 25 -14 35q0 5 4 8.5t8 3.5q11 0 35 -28l221 -262l-348 -281q-25 -18 -35 -18q-8 0 -8 8q0 14 21 37z" />
    <glyph glyph-name="Euro" unicode="&#x20ac;" 
d="M1202 719h-41q4 64 -57.5 96.5t-169.5 32.5q-169 0 -270.5 -82t-165.5 -242h546l-40 -45h-521q-10 -31 -12 -41q-9 -26 -12 -43h467l-41 -47h-434q-28 -158 39.5 -241.5t224.5 -83.5q100 0 181 31.5t114 97.5h39l-37 -101q-117 -76 -346 -76q-225 0 -320 93.5t-67 279.5
h-138l41 47h101q0 18 10 43q3 12 12 41h-129l41 45h105q79 188 216 280.5t375 92.5q232 0 306 -74z" />
    <glyph glyph-name="afii61352" unicode="&#x2116;" horiz-adv-x="2029" 
d="M547 1434h313l488 -1121l231 865q77 284 313 284q14 0 27.5 -1t36.5 -7.5t40 -17t29.5 -32.5t12.5 -52q0 -60 -35 -99t-90 -39q-34 0 -57 19.5t-23 54.5q0 22 10 45q8 16 8 27q0 7 -2 13t-11 12t-23 6q-16 0 -34 -8t-42.5 -28t-48.5 -66t-41 -111l-322 -1205h-57
l-482 1108l-213 -802q-19 -74 -50 -130.5t-64 -89t-71 -53t-69 -27t-61 -6.5q-62 0 -113 32.5t-51 90.5t39.5 96.5t87.5 38.5q40 0 63.5 -31t4.5 -81q-8 -20 -8 -29q0 -17 12 -29t35 -12q46 0 97.5 64.5t90.5 210.5l227 852l-36 84q-6 15 -17.5 32t-32.5 38.5t-54.5 34.5
t-72.5 11zM1628 633q26 105 119 198q111 111 260 111q12 0 22 -0.5t35.5 -4.5t44.5 -11t44 -23t41.5 -38t28 -58t11.5 -80q0 -83 -36 -160t-93 -133q-112 -110 -262 -110q-45 0 -81.5 11t-59 27t-39.5 38.5t-25.5 42.5t-13 42.5t-5.5 34t-1 21.5q0 53 10 92zM1776 633
q-21 -86 -21 -123q0 -141 100 -141q106 0 175 141q65 130 65 248q0 139 -98 139q-103 0 -176 -139q-29 -57 -45 -125zM2003 0h-492l33 123h492z" />
    <glyph glyph-name="trademark" unicode="&#x2122;" horiz-adv-x="2039" 
d="M795 1325l-164 -612q-19 -68 -19 -88q0 -18 10 -28t40 -11l65 -2l-10 -41h-195h-188l10 41l33 2q30 2 41 4.5t27.5 16t27 43t25.5 83.5l157 592h-39q-53 0 -81.5 -1.5t-67 -11t-62 -27.5t-48.5 -52t-44 -84h-41l60 219h760v-219h-39q-6 48 -21 81.5t-33.5 51.5t-49 28
t-57 12.5t-67.5 2.5h-30zM1614 748l383 620h102h146l-11 -39l-34 -2q-22 -1 -39.5 -11.5t-27 -22.5t-17 -34.5t-10.5 -36t-7 -38.5l-74 -443q-10 -68 -10 -98q0 -11 2.5 -20t5.5 -15t10 -10t10.5 -6.5t14 -4t13.5 -2t14.5 -1t13.5 -0.5l29 -2l-10 -39h-187h-186l10 39l45 4
q24 2 40 13t25.5 33t14 40.5t10.5 52.5l88 524l-430 -702h-30l-144 710l-121 -452q-30 -125 -30 -158q0 -12 2 -21t7.5 -15t8.5 -10t13.5 -6.5t14 -3.5t17.5 -3t17 -2l28 -4l-10 -39h-164h-153l12 41l35 2q23 1 42.5 13t33 31.5t25 45.5t20 52.5l17.5 56.5q3 12 5 18
l123 420q10 39 10 67q0 21 -13 28t-44 9l-47 2l10 39h156h96z" />
    <glyph glyph-name="zerooldstyle" unicode="&#xf730;" 
d="M778 897q151 0 244.5 -94.5t93.5 -249.5q0 -135 -61.5 -254t-159.5 -203q-142 -123 -315 -123q-92 0 -163 31t-112.5 83.5t-62.5 115.5t-21 133q0 112 55.5 226t159.5 202q157 133 342 133zM774 848q-113 0 -205 -109q-70 -83 -123 -224.5t-53 -274.5q0 -52 11 -92
t28.5 -63t41.5 -37.5t46 -19.5t47 -5q143 0 252 182q56 95 90.5 215t34.5 211q0 53 -11.5 93t-29 63t-41.5 37.5t-45 19t-43 4.5z" />
    <glyph glyph-name="oneoldstyle" unicode="&#xf731;" 
d="M870 41l-14 -45q-164 4 -256 4h-131q-70 0 -203 -4l13 45l69 4q72 5 108.5 34t57.5 105l141 529q7 35 7 41q0 23 -10.5 37.5t-29.5 20.5t-41.5 9t-50.5 4h-8l-59 4l14 45q106 -4 250 -4h88q106 0 246 4l-12 -45l-68 -6q-48 -4 -77.5 -12.5t-45 -25t-22 -31.5t-13.5 -45
l-141 -527q-12 -40 -12 -65q0 -41 28 -54t103 -18z" />
    <glyph glyph-name="twooldstyle" unicode="&#xf732;" 
d="M1006 274h38l-92 -274h-714v39q322 212 432 301q88 71 129 125q53 69 53 125q0 26 -8.5 52t-28 53t-59.5 44t-94 17q-72 0 -122 -24.5t-75 -61.5q-29 -40 -29 -99q0 -14 2 -22q0 -3 1 -9.5t1 -9.5q0 -20 -12 -20q-10 0 -21 12t-19.5 40t-8.5 65q0 36 10 72t42.5 78.5
t84.5 70.5q87 49 207 49q158 0 238 -86q65 -69 65 -168q0 -125 -139 -240q-24 -20 -45.5 -36t-51 -35.5l-43 -28l-56.5 -34l-56 -33.5l-129 -78h301q72 0 116.5 21.5t71.5 74.5z" />
    <glyph glyph-name="threeoldstyle" unicode="&#xf733;" 
d="M416 670l37 176q128 51 274 51q149 0 229 -72q76 -68 76 -163q0 -131 -117 -228q-65 -52 -170 -96v-4q84 -15 134.5 -79.5t50.5 -164.5q0 -44 -11 -92t-39.5 -104t-72 -108.5t-114.5 -103.5t-160 -90t-216 -67t-276 -37l10 51q145 12 264.5 51.5t198 93t133 120t78 132
t23.5 130.5q0 184 -203 184q-51 0 -111 -14q-14 -3 -28 -7l-21.5 -6t-13.5 -2q-31 0 -31 27q0 10 3.5 17.5t8 11.5t13.5 7t14.5 3.5t17.5 1.5t17 2q72 8 164 35q166 47 247 135q62 71 62 137q0 24 -7.5 45.5t-25 44t-55.5 36t-92 13.5q-82 0 -213 -41z" />
    <glyph glyph-name="fouroldstyle" unicode="&#xf734;" 
d="M520 -489l135 489h-501l8 45l889 885h20l-227 -844h94q11 0 20 -0.5t10 -0.5t6 1t7.5 3t14.5 7.5l26 12.5h25l-33 -109h-193l-131 -489h-170zM678 86l151 543q-220 -204 -548 -543h397z" />
    <glyph glyph-name="fiveoldstyle" unicode="&#xf735;" 
d="M524 895h17q152 -78 311 -78q88 0 166 25q25 8 45 15.5l27 10t10 2.5q4 0 6 -2q4 -4 0 -12q-11 -38 -62 -84q-51 -47 -135 -75.5t-180 -28.5q-112 0 -203 26l-53 -186h78q101 0 177.5 -21.5t120.5 -54t71 -79t36 -88.5t9 -89q0 -208 -168 -389q-76 -82 -183 -149
t-227 -103q-154 -47 -350 -47l10 55q142 2 282.5 45t252.5 129q103 79 162 180t59 209q0 70 -24 117t-70 71t-98 33.5t-124 10.5h-43q-55 0 -82 -2z" />
    <glyph glyph-name="sixoldstyle" unicode="&#xf736;" 
d="M1217 1386l12 -49q-211 -46 -387 -163q-190 -135 -314 -381q-58 -116 -99.5 -261.5t-41.5 -261.5q0 -70 21 -121.5t54.5 -77t66.5 -37t65 -11.5q71 0 142.5 51.5t123.5 150.5q78 147 78 305q0 111 -53 166q-47 47 -113 47q-112 0 -186 -131q-22 -37 -31 -37q-11 0 -20 7
t-9 20q0 28 45 90q44 59 112 95t151 36q67 0 125.5 -28.5t95.5 -73.5q67 -83 67 -205q0 -81 -36 -177.5t-95 -168.5q-73 -92 -175.5 -144.5t-211.5 -52.5q-165 0 -269 112.5t-104 309.5q0 298 254 592q131 150 305 252.5t427 146.5z" />
    <glyph glyph-name="sevenoldstyle" unicode="&#xf737;" 
d="M442 983h39l-4 -33q-5 -40 15.5 -56.5t52.5 -16.5h612l-651 -1362h-230l411 628.5t331 567.5l-4 8h-439q-87 0 -122 -29q-41 -41 -70 -131l-21 -63h-55z" />
    <glyph glyph-name="eightoldstyle" unicode="&#xf738;" 
d="M872 1391q146 0 245.5 -82t99.5 -199q0 -59 -22.5 -111t-51.5 -85.5t-75 -65t-74 -45.5t-68 -31l-62 -27l29 -28q162 -162 162 -324q0 -75 -32 -149t-89 -135t-146.5 -98.5t-195.5 -37.5q-175 0 -283 91.5t-108 228.5q0 49 13 94t31 78t51 66t58 53t68 45t65 36l64 31
l61 29l-43 47q-26 28 -40.5 46t-35.5 50.5t-30.5 70t-9.5 81.5q0 68 27.5 133t78.5 119t132.5 86.5t180.5 32.5zM754 850l69 -66q67 26 117 63.5t76 73t41.5 77t19.5 68.5t4 54q0 93 -56.5 157t-160.5 64q-120 0 -186 -69.5t-66 -171.5q0 -34 8.5 -65t19 -52.5t33.5 -49
t37 -41zM715 633l-60 55q-156 -64 -234.5 -160t-78.5 -233q0 -51 15 -98t44.5 -86.5t80 -63.5t114.5 -24q72 0 130 27t92.5 71.5t52.5 96.5t18 106q0 44 -12 85t-26.5 69t-43.5 62t-44.5 48.5z" />
    <glyph glyph-name="nineoldstyle" unicode="&#xf739;" 
d="M145 -512l-12 53q134 32 241.5 86.5t172 110t121.5 127.5q117 146 192.5 343.5t75.5 379.5q0 65 -13.5 114.5t-32.5 76.5t-45 43.5t-45 21t-38 4.5q-125 0 -221 -141q-54 -80 -83.5 -184t-29.5 -204q0 -106 39.5 -147t95.5 -41q103 0 172 115q3 4 10.5 17.5t11 18
t11.5 10t18 5.5q14 0 17 -16v-15q-6 -39 -53 -102q-48 -64 -114.5 -91.5t-123.5 -27.5q-50 0 -96 17t-85.5 51.5t-63 94.5t-23.5 138q0 106 42 211.5t117 183.5q69 70 159.5 113t178.5 43q71 0 136 -26.5t110 -75.5q52 -55 80.5 -139t28.5 -183q0 -108 -32 -215t-86 -195.5
t-112 -157.5t-123 -126q-242 -215 -598 -291z" />
    <glyph glyph-name="hyphenminus" horiz-adv-x="380" 
d="M150 504h348l-29 -111h-348z" />
    <glyph glyph-name="accent" horiz-adv-x="2" 
d="M-326 1038l234 236l8 8l9.5 9.5l9 9t10 9l10 7t11.5 7t11 5t12.5 3.5t12.5 1q27 0 46.5 -17.5t19.5 -41.5q0 -53 -91 -103l-247 -133h-56z" />
    <glyph glyph-name="Accent" horiz-adv-x="2" 
d="M-508 1526l361 315q3 2 8.5 7.5t9.5 9t11 7.5t16 7q18 6 41 6q27 0 44 -22.5t17 -51.5q0 -18 -6 -32.5t-21.5 -27t-24.5 -18t-35 -18.5l-32 -16l-315 -166h-74z" />
    </font>
</defs>
</svg>
